M48
; DRILL file {KiCad 5.1.5-52549c5~84~ubuntu18.04.1} date Sat 11 Apr 2020 00:10:20 BST
; FORMAT={-:-/ absolute / inch / decimal}
; #@! TF.CreationDate,2020-04-11T00:10:20+01:00
; #@! TF.GenerationSoftware,Kicad,Pcbnew,5.1.5-52549c5~84~ubuntu18.04.1
; #@! TF.FileFunction,Plated,1,2,PTH
FMAT,2
INCH
T1C0.0157
T2C0.0354
T3C0.1260
%
G90
G05
T1
X7.3917Y-3.8681
X7.3917Y-3.9075
X7.3917Y-3.9567
X7.3917Y-3.9961
X7.4311Y-3.8681
X7.4311Y-3.9961
T2
X7.4654Y-3.5243
X7.5619Y-3.4984
X6.3138Y-5.4632
X6.3397Y-5.5598
X6.3127Y-2.4168
X6.3385Y-2.3202
X7.4258Y-4.3501
X7.5224Y-4.376
X4.7133Y-2.7638
X4.784Y-2.8345
X4.2884Y-4.3756
X4.385Y-4.3497
X7.0193Y-5.0541
X7.09Y-5.1248
X5.4632Y-2.3269
X5.4891Y-2.4235
X7.0182Y-2.829
X7.0889Y-2.7583
X5.4723Y-5.5583
X5.4982Y-5.4617
X4.2843Y-3.5097
X4.3809Y-3.5356
X4.7152Y-5.118
X4.7859Y-5.0473
T3
X4.959Y-4.8835
X6.852Y-2.9905
X4.959Y-2.9905
X6.852Y-4.8835
T0
M30
