G04 #@! TF.GenerationSoftware,KiCad,Pcbnew,5.1.5-52549c5~84~ubuntu18.04.1*
G04 #@! TF.CreationDate,2020-04-11T00:10:23+01:00*
G04 #@! TF.ProjectId,ambient,616d6269-656e-4742-9e6b-696361645f70,rev?*
G04 #@! TF.SameCoordinates,Original*
G04 #@! TF.FileFunction,Legend,Top*
G04 #@! TF.FilePolarity,Positive*
%FSLAX46Y46*%
G04 Gerber Fmt 4.6, Leading zero omitted, Abs format (unit mm)*
G04 Created by KiCad (PCBNEW 5.1.5-52549c5~84~ubuntu18.04.1) date 2020-04-11 00:10:23*
%MOMM*%
%LPD*%
G04 APERTURE LIST*
%ADD10C,0.120000*%
%ADD11C,0.150000*%
G04 APERTURE END LIST*
D10*
X187397100Y-84446038D02*
X187261866Y-83941337D01*
X188768714Y-84078515D02*
X188633480Y-83573814D01*
X174677001Y-67622883D02*
X174307535Y-67253417D01*
X173672909Y-68626975D02*
X173303443Y-68257509D01*
X155341584Y-59365570D02*
X154836883Y-59230336D01*
X154974061Y-60737184D02*
X154469360Y-60601950D01*
X133913161Y-62298337D02*
X133408460Y-62433571D01*
X134280684Y-63669951D02*
X133775983Y-63805185D01*
X117204324Y-75292669D02*
X116834858Y-75662135D01*
X118208416Y-76296761D02*
X117838950Y-76666227D01*
X109253197Y-94804863D02*
X109117963Y-95309564D01*
X110624811Y-95172386D02*
X110489577Y-95677087D01*
X112121260Y-115991804D02*
X112256494Y-116496505D01*
X113492874Y-115624281D02*
X113628108Y-116128982D01*
X124809405Y-132523864D02*
X125178871Y-132893330D01*
X125813497Y-131519772D02*
X126182963Y-131889238D01*
X144692490Y-140893249D02*
X145197191Y-141028483D01*
X145060013Y-139521635D02*
X145564714Y-139656869D01*
X165270427Y-136718277D02*
X165775128Y-136583043D01*
X165637950Y-138089891D02*
X166142651Y-137954657D01*
X181577706Y-124002615D02*
X181947172Y-123633149D01*
X182581798Y-125006707D02*
X182951264Y-124637241D01*
X186381810Y-115313888D02*
X186246576Y-115818589D01*
X187753424Y-115681411D02*
X187618190Y-116186112D01*
X189290000Y-100000000D02*
X188790000Y-99750000D01*
X188790000Y-99750000D02*
X188790000Y-100250000D01*
X188790000Y-100250000D02*
X189290000Y-100000000D01*
X189619402Y-90636086D02*
X189659778Y-90786771D01*
X189019977Y-88399002D02*
X189060353Y-88549687D01*
X192131858Y-89962708D02*
G75*
G02X190120755Y-90501749I-1285136J773579D01*
G01*
X191572895Y-87876621D02*
G75*
G03X189561706Y-88415349I-726173J-1312508D01*
G01*
X192741237Y-89798152D02*
G75*
G02X189659653Y-90786303I-1894515J609023D01*
G01*
X192182909Y-87714441D02*
G75*
G03X189020102Y-88399470I-1336187J-1474688D01*
G01*
X179579544Y-69012516D02*
G75*
G03X177182987Y-71187173I-419828J-1945212D01*
G01*
X181104928Y-70537900D02*
G75*
G02X178930271Y-72934457I-1945212J-419828D01*
G01*
X179132345Y-69457978D02*
G75*
G03X177659970Y-70930124I27371J-1499750D01*
G01*
X180659466Y-70985099D02*
G75*
G02X179187320Y-72457474I-1499750J27371D01*
G01*
X177182645Y-71186831D02*
X177292954Y-71297140D01*
X178820304Y-72824490D02*
X178930613Y-72934799D01*
X160061269Y-58265865D02*
G75*
G03X159073118Y-61347449I609023J-1894515D01*
G01*
X162144980Y-58824193D02*
G75*
G02X161459951Y-61987000I-1474688J-1336187D01*
G01*
X159896713Y-58875244D02*
G75*
G03X159357672Y-60886347I773579J-1285136D01*
G01*
X161982800Y-59434207D02*
G75*
G02X161444072Y-61445396I-1312508J-726173D01*
G01*
X159072650Y-61347324D02*
X159223335Y-61387700D01*
X161309734Y-61946749D02*
X161460419Y-61987125D01*
X137619406Y-58994168D02*
G75*
G03X138304435Y-62156975I1474688J-1336187D01*
G01*
X139703117Y-58435840D02*
G75*
G02X140691268Y-61517424I-609023J-1894515D01*
G01*
X137781586Y-59604182D02*
G75*
G03X138320314Y-61615371I1312508J-726173D01*
G01*
X139867673Y-59045219D02*
G75*
G02X140406714Y-61056322I-773579J-1285136D01*
G01*
X138303967Y-62157100D02*
X138454652Y-62116724D01*
X140541051Y-61557675D02*
X140691736Y-61517299D01*
X118671527Y-70679619D02*
G75*
G03X120846184Y-73076176I1945212J-419828D01*
G01*
X120196911Y-69154235D02*
G75*
G02X122593468Y-71328892I419828J-1945212D01*
G01*
X119116989Y-71126818D02*
G75*
G03X120589135Y-72599193I1499750J27371D01*
G01*
X120644110Y-69599697D02*
G75*
G02X122116485Y-71071843I-27371J-1499750D01*
G01*
X120845842Y-73076518D02*
X120956151Y-72966209D01*
X122483501Y-71438859D02*
X122593810Y-71328550D01*
X108153493Y-90085178D02*
G75*
G03X111235077Y-91073329I1894515J609023D01*
G01*
X108711821Y-88001467D02*
G75*
G02X111874628Y-88686496I1336187J-1474688D01*
G01*
X108762872Y-90249734D02*
G75*
G03X110773975Y-90788775I1285136J773579D01*
G01*
X109321835Y-88163647D02*
G75*
G02X111333024Y-88702375I726173J-1312508D01*
G01*
X111234952Y-91073797D02*
X111275328Y-90923112D01*
X111834377Y-88836713D02*
X111874753Y-88686028D01*
X108817091Y-112285559D02*
G75*
G03X111979898Y-111600530I1336187J1474688D01*
G01*
X108258763Y-110201848D02*
G75*
G02X111340347Y-109213697I1894515J-609023D01*
G01*
X109427105Y-112123379D02*
G75*
G03X111438294Y-111584651I726173J1312508D01*
G01*
X108868142Y-110037292D02*
G75*
G02X110879245Y-109498251I1285136J-773579D01*
G01*
X111980023Y-111600998D02*
X111939647Y-111450313D01*
X111380598Y-109363914D02*
X111340222Y-109213229D01*
X120244937Y-131043644D02*
G75*
G03X122641494Y-128868987I419828J1945212D01*
G01*
X118719553Y-129518260D02*
G75*
G02X120894210Y-127121703I1945212J419828D01*
G01*
X120692136Y-130598182D02*
G75*
G03X122164511Y-129126036I-27371J1499750D01*
G01*
X119165015Y-129071061D02*
G75*
G02X120637161Y-127598686I1499750J-27371D01*
G01*
X122641836Y-128869329D02*
X122531527Y-128759020D01*
X121004177Y-127231670D02*
X120893868Y-127121361D01*
X139933983Y-141848065D02*
G75*
G03X140922134Y-138766481I-609023J1894515D01*
G01*
X137850272Y-141289737D02*
G75*
G02X138535301Y-138126930I1474688J1336187D01*
G01*
X140098539Y-141238686D02*
G75*
G03X140637580Y-139227583I-773579J1285136D01*
G01*
X138012452Y-140679723D02*
G75*
G02X138551180Y-138668534I1312508J726173D01*
G01*
X140922602Y-138766606D02*
X140771917Y-138726230D01*
X138685518Y-138167181D02*
X138534833Y-138126805D01*
X162173187Y-141329356D02*
G75*
G03X161488158Y-138166549I-1474688J1336187D01*
G01*
X160089476Y-141887684D02*
G75*
G02X159101325Y-138806100I609023J1894515D01*
G01*
X162011007Y-140719342D02*
G75*
G03X161472279Y-138708153I-1312508J726173D01*
G01*
X159924920Y-141278305D02*
G75*
G02X159385879Y-139267202I773579J1285136D01*
G01*
X161488626Y-138166424D02*
X161337941Y-138206800D01*
X159251542Y-138765849D02*
X159100857Y-138806225D01*
X181133931Y-129691916D02*
G75*
G03X178959274Y-127295359I-1945212J419828D01*
G01*
X179608547Y-131217300D02*
G75*
G02X177211990Y-129042643I-419828J1945212D01*
G01*
X180688469Y-129244717D02*
G75*
G03X179216323Y-127772342I-1499750J-27371D01*
G01*
X179161348Y-130771838D02*
G75*
G02X177688973Y-129299692I27371J1499750D01*
G01*
X178959616Y-127295017D02*
X178849307Y-127405326D01*
X177321957Y-128932676D02*
X177211648Y-129042985D01*
X191735693Y-110212464D02*
G75*
G03X188654109Y-109224313I-1894515J-609023D01*
G01*
X191177365Y-112296175D02*
G75*
G02X188014558Y-111611146I-1336187J1474688D01*
G01*
X191126314Y-110047908D02*
G75*
G03X189115211Y-109508867I-1285136J-773579D01*
G01*
X190567351Y-112133995D02*
G75*
G02X188556162Y-111595267I-726173J1312508D01*
G01*
X188654234Y-109223845D02*
X188613858Y-109374530D01*
X188054809Y-111460929D02*
X188014433Y-111611614D01*
D11*
X176509770Y-127587266D02*
X175802663Y-126880159D01*
X176139381Y-127216877D02*
X176543442Y-126812816D01*
X176913831Y-127183205D02*
X176206724Y-126476098D01*
X177082190Y-126072037D02*
X177553594Y-126543442D01*
X176644457Y-125971022D02*
X176981175Y-126644457D01*
X177418907Y-126206724D01*
X122412733Y-126509770D02*
X123119840Y-125802663D01*
X122783122Y-126139381D02*
X123187183Y-126543442D01*
X122816794Y-126913831D02*
X123523901Y-126206724D01*
X123793275Y-126476098D02*
X124231007Y-126913831D01*
X123725931Y-126947503D01*
X123826946Y-127048518D01*
X123860618Y-127149533D01*
X123860618Y-127216877D01*
X123826946Y-127317892D01*
X123658588Y-127486251D01*
X123557572Y-127519923D01*
X123490229Y-127519923D01*
X123389214Y-127486251D01*
X123187183Y-127284220D01*
X123153511Y-127183205D01*
X123153511Y-127115862D01*
X123052496Y-74129992D02*
X122345389Y-73422885D01*
X122682107Y-73759603D02*
X123086168Y-73355542D01*
X123456557Y-73725931D02*
X122749450Y-73018824D01*
X123119840Y-72783122D02*
X123119840Y-72715779D01*
X123153511Y-72614763D01*
X123321870Y-72446405D01*
X123422885Y-72412733D01*
X123490229Y-72412733D01*
X123591244Y-72446405D01*
X123658588Y-72513748D01*
X123725931Y-72648435D01*
X123725931Y-73456557D01*
X124163664Y-73018824D01*
X175870007Y-73052496D02*
X176577114Y-72345389D01*
X176240396Y-72682107D02*
X176644457Y-73086168D01*
X176274068Y-73456557D02*
X176981175Y-72749450D01*
X176981175Y-74163664D02*
X176577114Y-73759603D01*
X176779144Y-73961633D02*
X177486251Y-73254527D01*
X177317892Y-73288198D01*
X177183205Y-73288198D01*
X177082190Y-73254527D01*
X185818161Y-83933109D02*
X186191853Y-83487887D01*
X185670265Y-83381151D02*
X186636191Y-83122332D01*
X186734788Y-83490304D01*
X186713441Y-83594622D01*
X186679770Y-83652943D01*
X186600101Y-83723589D01*
X186462112Y-83760563D01*
X186357794Y-83739216D01*
X186299473Y-83705544D01*
X186228827Y-83625876D01*
X186130229Y-83257904D01*
X186064656Y-84853038D02*
X185916759Y-84301081D01*
X185990707Y-84577060D02*
X186956633Y-84318240D01*
X186793994Y-84263222D01*
X186677352Y-84195878D01*
X186606706Y-84116210D01*
X187037186Y-84986840D02*
X187095508Y-85020512D01*
X187166153Y-85100180D01*
X187227777Y-85330163D01*
X187206430Y-85434480D01*
X187172758Y-85492802D01*
X187093090Y-85563448D01*
X187001097Y-85588097D01*
X186850783Y-85579075D01*
X186150929Y-85175014D01*
X186311150Y-85772968D01*
X172049045Y-68972234D02*
X172150060Y-68399815D01*
X171644984Y-68568173D02*
X172352091Y-67861067D01*
X172621465Y-68130441D01*
X172655137Y-68231456D01*
X172655137Y-68298799D01*
X172621465Y-68399815D01*
X172520450Y-68500830D01*
X172419434Y-68534502D01*
X172352091Y-68534502D01*
X172251076Y-68500830D01*
X171981702Y-68231456D01*
X172722480Y-69645670D02*
X172318419Y-69241609D01*
X172520450Y-69443639D02*
X173227557Y-68736532D01*
X173059198Y-68770204D01*
X172924511Y-68770204D01*
X172823496Y-68736532D01*
X173395915Y-70319105D02*
X172991854Y-69915044D01*
X173193885Y-70117074D02*
X173900992Y-69409967D01*
X173732633Y-69443639D01*
X173597946Y-69443639D01*
X173496931Y-69409967D01*
X153740383Y-61848120D02*
X153541655Y-61301883D01*
X153188426Y-61700224D02*
X153447245Y-60734298D01*
X153815217Y-60832896D01*
X153894885Y-60903541D01*
X153928557Y-60961863D01*
X153949904Y-61066180D01*
X153912929Y-61204170D01*
X153842284Y-61283838D01*
X153783962Y-61317510D01*
X153679645Y-61338857D01*
X153311673Y-61240259D01*
X154660313Y-62094615D02*
X154108355Y-61946718D01*
X154384334Y-62020666D02*
X154643153Y-61054740D01*
X154514186Y-61168080D01*
X154397544Y-61235424D01*
X154293226Y-61256771D01*
X155517086Y-61288910D02*
X155609079Y-61313560D01*
X155688747Y-61384205D01*
X155722419Y-61442527D01*
X155743766Y-61546844D01*
X155740463Y-61743155D01*
X155678840Y-61973137D01*
X155583544Y-62144798D01*
X155512899Y-62224467D01*
X155454577Y-62258138D01*
X155350260Y-62279485D01*
X155258267Y-62254836D01*
X155178599Y-62184190D01*
X155144927Y-62125869D01*
X155123580Y-62021551D01*
X155126882Y-61825241D01*
X155188506Y-61595258D01*
X155283801Y-61423597D01*
X155354447Y-61343929D01*
X155412768Y-61310257D01*
X155517086Y-61288910D01*
X134227720Y-65125641D02*
X133782497Y-64751950D01*
X133675762Y-65273538D02*
X133416943Y-64307612D01*
X133784915Y-64209014D01*
X133889232Y-64230362D01*
X133947554Y-64264033D01*
X134018199Y-64343701D01*
X134055174Y-64481691D01*
X134033827Y-64586009D01*
X134000155Y-64644330D01*
X133920487Y-64714976D01*
X133552515Y-64813573D01*
X134687684Y-65002394D02*
X134871670Y-64953095D01*
X134951338Y-64882450D01*
X134985010Y-64824128D01*
X135040029Y-64661490D01*
X135036727Y-64465179D01*
X134938129Y-64097207D01*
X134867483Y-64017539D01*
X134809162Y-63983867D01*
X134704844Y-63962520D01*
X134520858Y-64011819D01*
X134441190Y-64082465D01*
X134407518Y-64140786D01*
X134386171Y-64245104D01*
X134447795Y-64475086D01*
X134518441Y-64554754D01*
X134576762Y-64588426D01*
X134681080Y-64609773D01*
X134865065Y-64560474D01*
X134944734Y-64489828D01*
X134978405Y-64431507D01*
X134999752Y-64327190D01*
X118890393Y-77583906D02*
X118317973Y-77482891D01*
X118486332Y-77987967D02*
X117779225Y-77280861D01*
X118048599Y-77011486D01*
X118149614Y-76977815D01*
X118216958Y-76977815D01*
X118317973Y-77011486D01*
X118418988Y-77112502D01*
X118452660Y-77213517D01*
X118452660Y-77280861D01*
X118418988Y-77381876D01*
X118149614Y-77651250D01*
X118890393Y-76775784D02*
X118789378Y-76809456D01*
X118722034Y-76809456D01*
X118621019Y-76775784D01*
X118587347Y-76742112D01*
X118553675Y-76641097D01*
X118553675Y-76573754D01*
X118587347Y-76472738D01*
X118722034Y-76338051D01*
X118823050Y-76304380D01*
X118890393Y-76304380D01*
X118991408Y-76338051D01*
X119025080Y-76371723D01*
X119058752Y-76472738D01*
X119058752Y-76540082D01*
X119025080Y-76641097D01*
X118890393Y-76775784D01*
X118856721Y-76876799D01*
X118856721Y-76944143D01*
X118890393Y-77045158D01*
X119025080Y-77179845D01*
X119126095Y-77213517D01*
X119193439Y-77213517D01*
X119294454Y-77179845D01*
X119429141Y-77045158D01*
X119462813Y-76944143D01*
X119462813Y-76876799D01*
X119429141Y-76775784D01*
X119294454Y-76641097D01*
X119193439Y-76607425D01*
X119126095Y-76607425D01*
X119025080Y-76641097D01*
X111858994Y-95946098D02*
X111312757Y-96144826D01*
X111711098Y-96498056D02*
X110745172Y-96239237D01*
X110843770Y-95871265D01*
X110914416Y-95791597D01*
X110972737Y-95757925D01*
X111077054Y-95736578D01*
X111215044Y-95773552D01*
X111294712Y-95844198D01*
X111328384Y-95902519D01*
X111349731Y-96006837D01*
X111251133Y-96374808D01*
X110979342Y-95365304D02*
X111151888Y-94721353D01*
X112006891Y-95394140D01*
X113988359Y-115589439D02*
X114362050Y-115144216D01*
X113840462Y-115037481D02*
X114806388Y-114778662D01*
X114904986Y-115146634D01*
X114883638Y-115250951D01*
X114849967Y-115309273D01*
X114770299Y-115379918D01*
X114632309Y-115416893D01*
X114527991Y-115395546D01*
X114469670Y-115361874D01*
X114399024Y-115282206D01*
X114300427Y-114914234D01*
X115176129Y-116158556D02*
X115126830Y-115974570D01*
X115056185Y-115894902D01*
X114997863Y-115861230D01*
X114835224Y-115806211D01*
X114638914Y-115809514D01*
X114270942Y-115908112D01*
X114191274Y-115978757D01*
X114157602Y-116037079D01*
X114136255Y-116141396D01*
X114185554Y-116325382D01*
X114256200Y-116405050D01*
X114314521Y-116438722D01*
X114418839Y-116460069D01*
X114648821Y-116398446D01*
X114728489Y-116327800D01*
X114762161Y-116269478D01*
X114783508Y-116165161D01*
X114734209Y-115981175D01*
X114663563Y-115901507D01*
X114605242Y-115867835D01*
X114500924Y-115846488D01*
X126225177Y-131241855D02*
X126326192Y-130669435D01*
X125821116Y-130837794D02*
X126528222Y-130130687D01*
X126797597Y-130400061D01*
X126831268Y-130501076D01*
X126831268Y-130568420D01*
X126797597Y-130669435D01*
X126696581Y-130770450D01*
X126595566Y-130804122D01*
X126528222Y-130804122D01*
X126427207Y-130770450D01*
X126157833Y-130501076D01*
X127572047Y-131174512D02*
X127235329Y-130837794D01*
X126864940Y-131140840D01*
X126932284Y-131140840D01*
X127033299Y-131174512D01*
X127201658Y-131342870D01*
X127235329Y-131443886D01*
X127235329Y-131511229D01*
X127201658Y-131612244D01*
X127033299Y-131780603D01*
X126932284Y-131814275D01*
X126864940Y-131814275D01*
X126763925Y-131780603D01*
X126595566Y-131612244D01*
X126561894Y-131511229D01*
X126561894Y-131443886D01*
X145277580Y-139075110D02*
X145078852Y-138528873D01*
X144725622Y-138927214D02*
X144984441Y-137961288D01*
X145352413Y-138059886D01*
X145432081Y-138130532D01*
X145465753Y-138188853D01*
X145487100Y-138293170D01*
X145450126Y-138431160D01*
X145379480Y-138510828D01*
X145321159Y-138544500D01*
X145216841Y-138565847D01*
X144848870Y-138467249D01*
X146278063Y-138653005D02*
X146105516Y-139296955D01*
X146146678Y-138223409D02*
X145731825Y-138851733D01*
X146329779Y-139011954D01*
X165235585Y-136222791D02*
X164790362Y-135849100D01*
X164683627Y-136370688D02*
X164424808Y-135404762D01*
X164792780Y-135306164D01*
X164897097Y-135327512D01*
X164955419Y-135361183D01*
X165026064Y-135440851D01*
X165063039Y-135578841D01*
X165041692Y-135683159D01*
X165008020Y-135741480D01*
X164928352Y-135812126D01*
X164560380Y-135910723D01*
X165298741Y-135170593D02*
X165896695Y-135010371D01*
X165673317Y-135464616D01*
X165811307Y-135427642D01*
X165915624Y-135448989D01*
X165973946Y-135482661D01*
X166044592Y-135562329D01*
X166106215Y-135792311D01*
X166084868Y-135896629D01*
X166051196Y-135954950D01*
X165971528Y-136025596D01*
X165695549Y-136099544D01*
X165591232Y-136078197D01*
X165532911Y-136044526D01*
X181299789Y-123590934D02*
X180727369Y-123489919D01*
X180895728Y-123994995D02*
X180188621Y-123287889D01*
X180457995Y-123018514D01*
X180559010Y-122984843D01*
X180626354Y-122984843D01*
X180727369Y-123018514D01*
X180828384Y-123119530D01*
X180862056Y-123220545D01*
X180862056Y-123287889D01*
X180828384Y-123388904D01*
X180559010Y-123658278D01*
X180929400Y-122681797D02*
X180929400Y-122614453D01*
X180963071Y-122513438D01*
X181131430Y-122345079D01*
X181232446Y-122311408D01*
X181299789Y-122311408D01*
X181400804Y-122345079D01*
X181468148Y-122412423D01*
X181535491Y-122547110D01*
X181535491Y-123355232D01*
X181973224Y-122917499D01*
X188987607Y-116455123D02*
X188441370Y-116653851D01*
X188839711Y-117007081D02*
X187873785Y-116748262D01*
X187972383Y-116380290D01*
X188043029Y-116300622D01*
X188101350Y-116266950D01*
X188205667Y-116245603D01*
X188343657Y-116282577D01*
X188423325Y-116353223D01*
X188456997Y-116411544D01*
X188478344Y-116515862D01*
X188379746Y-116883833D01*
X189234102Y-115535194D02*
X189086205Y-116087151D01*
X189160153Y-115811172D02*
X188194228Y-115552353D01*
X188307568Y-115681320D01*
X188374911Y-115797963D01*
X188396258Y-115902280D01*
X187992380Y-97333333D02*
X188706666Y-97333333D01*
X188849523Y-97380952D01*
X188944761Y-97476190D01*
X188992380Y-97619047D01*
X188992380Y-97714285D01*
X188992380Y-96333333D02*
X188992380Y-96904761D01*
X188992380Y-96619047D02*
X187992380Y-96619047D01*
X188135238Y-96714285D01*
X188230476Y-96809523D01*
X188278095Y-96904761D01*
X189024791Y-87081234D02*
X188765972Y-86115308D01*
X188995955Y-86053685D01*
X189146269Y-86062707D01*
X189262911Y-86130051D01*
X189333557Y-86209719D01*
X189428852Y-86381380D01*
X189465827Y-86519369D01*
X189469129Y-86715680D01*
X189447782Y-86819998D01*
X189380438Y-86936640D01*
X189254774Y-87019611D01*
X189024791Y-87081234D01*
X190496678Y-86686843D02*
X189944721Y-86834740D01*
X190220700Y-86760792D02*
X189961880Y-85794866D01*
X189906862Y-85957505D01*
X189839518Y-86074147D01*
X189759850Y-86144793D01*
X190630480Y-85714313D02*
X190664152Y-85655991D01*
X190743820Y-85585346D01*
X190973803Y-85523722D01*
X191078120Y-85545069D01*
X191136442Y-85578741D01*
X191207088Y-85658409D01*
X191231737Y-85750402D01*
X191222715Y-85900716D01*
X190818654Y-86600570D01*
X191416608Y-86440349D01*
X176527931Y-70043203D02*
X175820825Y-69336096D01*
X175989183Y-69167737D01*
X176123870Y-69100394D01*
X176258557Y-69100394D01*
X176359573Y-69134066D01*
X176527931Y-69235081D01*
X176628947Y-69336096D01*
X176729962Y-69504455D01*
X176763634Y-69605470D01*
X176763634Y-69740157D01*
X176696290Y-69874844D01*
X176527931Y-70043203D01*
X177605428Y-68965707D02*
X177201367Y-69369768D01*
X177403397Y-69167737D02*
X176696290Y-68460630D01*
X176729962Y-68628989D01*
X176729962Y-68763676D01*
X176696290Y-68864692D01*
X178278863Y-68292272D02*
X177874802Y-68696333D01*
X178076832Y-68494302D02*
X177369725Y-67787195D01*
X177403397Y-67955554D01*
X177403397Y-68090241D01*
X177369725Y-68191256D01*
X157933838Y-60684270D02*
X156967912Y-60425451D01*
X157029535Y-60195469D01*
X157112506Y-60069804D01*
X157229148Y-60002461D01*
X157333466Y-59981114D01*
X157529777Y-59984416D01*
X157667766Y-60021390D01*
X157839427Y-60116686D01*
X157919095Y-60187331D01*
X157986439Y-60303974D01*
X157995461Y-60454288D01*
X157933838Y-60684270D01*
X158328229Y-59212383D02*
X158180332Y-59764341D01*
X158254280Y-59488362D02*
X157288354Y-59229543D01*
X157401694Y-59358510D01*
X157469038Y-59475152D01*
X157490385Y-59579470D01*
X157522524Y-58355610D02*
X157547174Y-58263617D01*
X157617819Y-58183949D01*
X157676141Y-58150277D01*
X157780458Y-58128930D01*
X157976769Y-58132233D01*
X158206751Y-58193856D01*
X158378412Y-58289152D01*
X158458081Y-58359797D01*
X158491752Y-58418119D01*
X158513099Y-58522436D01*
X158488450Y-58614429D01*
X158417804Y-58694097D01*
X158359483Y-58727769D01*
X158255165Y-58749116D01*
X158058855Y-58745814D01*
X157828872Y-58684190D01*
X157657211Y-58588895D01*
X157577543Y-58518249D01*
X157543871Y-58459928D01*
X157522524Y-58355610D01*
X135606953Y-60500599D02*
X136572879Y-60241780D01*
X136634502Y-60471762D01*
X136625480Y-60622076D01*
X136558137Y-60738719D01*
X136478468Y-60809365D01*
X136306807Y-60904660D01*
X136168818Y-60941634D01*
X135972507Y-60944937D01*
X135868190Y-60923590D01*
X135751547Y-60856246D01*
X135668577Y-60730581D01*
X135606953Y-60500599D01*
X135878097Y-61512521D02*
X135927396Y-61696507D01*
X135998041Y-61776175D01*
X136056363Y-61809847D01*
X136219001Y-61864866D01*
X136415312Y-61861564D01*
X136783284Y-61762966D01*
X136862952Y-61692320D01*
X136896624Y-61633999D01*
X136917971Y-61529681D01*
X136868672Y-61345695D01*
X136798026Y-61266027D01*
X136739705Y-61232355D01*
X136635387Y-61211008D01*
X136405405Y-61272632D01*
X136325737Y-61343278D01*
X136292065Y-61401599D01*
X136270718Y-61505917D01*
X136320017Y-61689902D01*
X136390663Y-61769571D01*
X136448984Y-61803242D01*
X136553301Y-61824589D01*
X117681909Y-72990452D02*
X118389015Y-72283345D01*
X118557374Y-72451704D01*
X118624718Y-72586391D01*
X118624718Y-72721078D01*
X118591046Y-72822093D01*
X118490031Y-72990452D01*
X118389015Y-73091467D01*
X118220657Y-73192483D01*
X118119641Y-73226154D01*
X117984954Y-73226154D01*
X117850267Y-73158811D01*
X117681909Y-72990452D01*
X118894092Y-73394513D02*
X118860420Y-73293498D01*
X118860420Y-73226154D01*
X118894092Y-73125139D01*
X118927764Y-73091467D01*
X119028779Y-73057795D01*
X119096122Y-73057795D01*
X119197138Y-73091467D01*
X119331825Y-73226154D01*
X119365496Y-73327170D01*
X119365496Y-73394513D01*
X119331825Y-73495528D01*
X119298153Y-73529200D01*
X119197138Y-73562872D01*
X119129794Y-73562872D01*
X119028779Y-73529200D01*
X118894092Y-73394513D01*
X118793077Y-73360841D01*
X118725733Y-73360841D01*
X118624718Y-73394513D01*
X118490031Y-73529200D01*
X118456359Y-73630215D01*
X118456359Y-73697559D01*
X118490031Y-73798574D01*
X118624718Y-73933261D01*
X118725733Y-73966933D01*
X118793077Y-73966933D01*
X118894092Y-73933261D01*
X119028779Y-73798574D01*
X119062451Y-73697559D01*
X119062451Y-73630215D01*
X119028779Y-73529200D01*
X108451873Y-92581228D02*
X108710692Y-91615302D01*
X108940675Y-91676926D01*
X109066340Y-91759896D01*
X109133683Y-91876539D01*
X109155030Y-91980856D01*
X109151728Y-92177167D01*
X109114754Y-92315156D01*
X109019458Y-92486817D01*
X108948812Y-92566486D01*
X108832170Y-92633829D01*
X108681856Y-92642851D01*
X108451873Y-92581228D01*
X109584625Y-91849472D02*
X110228576Y-92022018D01*
X109555789Y-92877021D01*
X110323522Y-114298011D02*
X110064703Y-113332085D01*
X110294685Y-113270462D01*
X110444999Y-113279484D01*
X110561642Y-113346827D01*
X110632288Y-113426496D01*
X110727583Y-113598157D01*
X110764557Y-113736146D01*
X110767860Y-113932457D01*
X110746513Y-114036774D01*
X110679169Y-114153417D01*
X110553504Y-114236387D01*
X110323522Y-114298011D01*
X111444597Y-112962344D02*
X111260611Y-113011643D01*
X111180943Y-113082288D01*
X111147271Y-113140610D01*
X111092252Y-113303249D01*
X111095555Y-113499559D01*
X111194153Y-113867531D01*
X111264798Y-113947199D01*
X111323120Y-113980871D01*
X111427437Y-114002218D01*
X111611423Y-113952919D01*
X111691091Y-113882273D01*
X111724763Y-113823952D01*
X111746110Y-113719634D01*
X111684487Y-113489652D01*
X111613841Y-113409984D01*
X111555519Y-113376312D01*
X111451202Y-113354965D01*
X111267216Y-113404264D01*
X111187548Y-113474910D01*
X111153876Y-113533231D01*
X111132529Y-113637549D01*
X122555770Y-132033261D02*
X121848663Y-131326155D01*
X122017022Y-131157796D01*
X122151709Y-131090452D01*
X122286396Y-131090452D01*
X122387411Y-131124124D01*
X122555770Y-131225139D01*
X122656785Y-131326155D01*
X122757801Y-131494513D01*
X122791472Y-131595529D01*
X122791472Y-131730216D01*
X122724129Y-131864903D01*
X122555770Y-132033261D01*
X122892488Y-130282330D02*
X122555770Y-130619048D01*
X122858816Y-130989437D01*
X122858816Y-130922093D01*
X122892488Y-130821078D01*
X123060846Y-130652719D01*
X123161862Y-130619048D01*
X123229205Y-130619048D01*
X123330220Y-130652719D01*
X123498579Y-130821078D01*
X123532251Y-130922093D01*
X123532251Y-130989437D01*
X123498579Y-131090452D01*
X123330220Y-131258811D01*
X123229205Y-131292483D01*
X123161862Y-131292483D01*
X142430033Y-141549684D02*
X141464107Y-141290865D01*
X141525731Y-141060882D01*
X141608701Y-140935217D01*
X141725344Y-140867874D01*
X141829661Y-140846527D01*
X142025972Y-140849829D01*
X142163961Y-140886803D01*
X142335622Y-140982099D01*
X142415291Y-141052745D01*
X142482634Y-141169387D01*
X142491656Y-141319701D01*
X142430033Y-141549684D01*
X142155824Y-139997243D02*
X142799774Y-140169790D01*
X141726228Y-140128628D02*
X142354552Y-140543481D01*
X142514773Y-139945527D01*
X162929640Y-138631203D02*
X163895566Y-138372384D01*
X163957189Y-138602366D01*
X163948167Y-138752680D01*
X163880824Y-138869323D01*
X163801155Y-138939969D01*
X163629494Y-139035264D01*
X163491505Y-139072238D01*
X163295194Y-139075541D01*
X163190877Y-139054194D01*
X163074234Y-138986850D01*
X162991264Y-138861185D01*
X162929640Y-138631203D01*
X164129735Y-139246317D02*
X164289957Y-139844271D01*
X163835712Y-139620893D01*
X163872686Y-139758883D01*
X163851339Y-139863200D01*
X163817667Y-139921522D01*
X163737999Y-139992168D01*
X163508017Y-140053791D01*
X163403699Y-140032444D01*
X163345378Y-139998772D01*
X163274732Y-139919104D01*
X163200784Y-139643125D01*
X163222131Y-139538808D01*
X163255802Y-139480487D01*
X180439961Y-126977021D02*
X181147067Y-126269914D01*
X181315426Y-126438273D01*
X181382770Y-126572960D01*
X181382770Y-126707647D01*
X181349098Y-126808662D01*
X181248083Y-126977021D01*
X181147067Y-127078036D01*
X180978709Y-127179052D01*
X180877693Y-127212723D01*
X180743006Y-127212723D01*
X180608319Y-127145380D01*
X180439961Y-126977021D01*
X181753159Y-127010693D02*
X181820503Y-127010693D01*
X181921518Y-127044364D01*
X182089877Y-127212723D01*
X182123548Y-127313739D01*
X182123548Y-127381082D01*
X182089877Y-127482097D01*
X182022533Y-127549441D01*
X181887846Y-127616784D01*
X181079724Y-127616784D01*
X181517457Y-128054517D01*
X189777251Y-108208280D02*
X190036070Y-107242354D01*
X190266053Y-107303978D01*
X190391718Y-107386948D01*
X190459061Y-107503591D01*
X190480408Y-107607908D01*
X190477106Y-107804219D01*
X190440132Y-107942208D01*
X190344836Y-108113869D01*
X190274190Y-108193538D01*
X190157548Y-108260881D01*
X190007234Y-108269903D01*
X189777251Y-108208280D01*
X191249138Y-108602671D02*
X190697181Y-108454774D01*
X190973160Y-108528722D02*
X191231979Y-107562797D01*
X191103012Y-107676137D01*
X190986369Y-107743480D01*
X190882052Y-107764827D01*
M02*
