G04 #@! TF.GenerationSoftware,KiCad,Pcbnew,5.1.5-52549c5~84~ubuntu18.04.1*
G04 #@! TF.CreationDate,2020-04-11T00:10:23+01:00*
G04 #@! TF.ProjectId,ambient,616d6269-656e-4742-9e6b-696361645f70,rev?*
G04 #@! TF.SameCoordinates,Original*
G04 #@! TF.FileFunction,Copper,L1,Top*
G04 #@! TF.FilePolarity,Positive*
%FSLAX46Y46*%
G04 Gerber Fmt 4.6, Leading zero omitted, Abs format (unit mm)*
G04 Created by KiCad (PCBNEW 5.1.5-52549c5~84~ubuntu18.04.1) date 2020-04-11 00:10:23*
%MOMM*%
%LPD*%
G04 APERTURE LIST*
%ADD10C,5.600000*%
%ADD11C,0.100000*%
%ADD12R,5.080000X1.500000*%
%ADD13C,1.800000*%
%ADD14C,0.800000*%
%ADD15C,0.500000*%
%ADD16C,0.254000*%
G04 APERTURE END LIST*
D10*
X174041631Y-124041631D03*
X125958369Y-124041631D03*
X125958369Y-75958369D03*
X174041631Y-75958369D03*
G04 #@! TA.AperFunction,SMDPad,CuDef*
D11*
G36*
X188663762Y-84321744D02*
G01*
X188687900Y-84326136D01*
X188711490Y-84332872D01*
X188734307Y-84341889D01*
X188756130Y-84353098D01*
X188776750Y-84366393D01*
X188795967Y-84381645D01*
X188813596Y-84398707D01*
X188829468Y-84417414D01*
X188843431Y-84437587D01*
X188855348Y-84459032D01*
X188865107Y-84481542D01*
X188872611Y-84504899D01*
X189040844Y-85132753D01*
X189046024Y-85156734D01*
X189048828Y-85181107D01*
X189049229Y-85205638D01*
X189047224Y-85230089D01*
X189042832Y-85254227D01*
X189036096Y-85277818D01*
X189027079Y-85300634D01*
X189015869Y-85322457D01*
X189002575Y-85343077D01*
X188987323Y-85362294D01*
X188970261Y-85379923D01*
X188951554Y-85395796D01*
X188931380Y-85409758D01*
X188909936Y-85421675D01*
X188887426Y-85431434D01*
X188864069Y-85438938D01*
X187994734Y-85671876D01*
X187970753Y-85677056D01*
X187946380Y-85679860D01*
X187921849Y-85680261D01*
X187897398Y-85678256D01*
X187873260Y-85673864D01*
X187849670Y-85667128D01*
X187826853Y-85658111D01*
X187805030Y-85646902D01*
X187784410Y-85633607D01*
X187765193Y-85618355D01*
X187747564Y-85601293D01*
X187731692Y-85582586D01*
X187717729Y-85562413D01*
X187705812Y-85540968D01*
X187696053Y-85518458D01*
X187688549Y-85495101D01*
X187520316Y-84867247D01*
X187515136Y-84843266D01*
X187512332Y-84818893D01*
X187511931Y-84794362D01*
X187513936Y-84769911D01*
X187518328Y-84745773D01*
X187525064Y-84722182D01*
X187534081Y-84699366D01*
X187545291Y-84677543D01*
X187558585Y-84656923D01*
X187573837Y-84637706D01*
X187590899Y-84620077D01*
X187609606Y-84604204D01*
X187629780Y-84590242D01*
X187651224Y-84578325D01*
X187673734Y-84568566D01*
X187697091Y-84561062D01*
X188566426Y-84328124D01*
X188590407Y-84322944D01*
X188614780Y-84320140D01*
X188639311Y-84319739D01*
X188663762Y-84321744D01*
G37*
G04 #@! TD.AperFunction*
G04 #@! TA.AperFunction,SMDPad,CuDef*
G36*
X188133182Y-82341596D02*
G01*
X188157320Y-82345988D01*
X188180910Y-82352724D01*
X188203727Y-82361741D01*
X188225550Y-82372950D01*
X188246170Y-82386245D01*
X188265387Y-82401497D01*
X188283016Y-82418559D01*
X188298888Y-82437266D01*
X188312851Y-82457439D01*
X188324768Y-82478884D01*
X188334527Y-82501394D01*
X188342031Y-82524751D01*
X188510264Y-83152605D01*
X188515444Y-83176586D01*
X188518248Y-83200959D01*
X188518649Y-83225490D01*
X188516644Y-83249941D01*
X188512252Y-83274079D01*
X188505516Y-83297670D01*
X188496499Y-83320486D01*
X188485289Y-83342309D01*
X188471995Y-83362929D01*
X188456743Y-83382146D01*
X188439681Y-83399775D01*
X188420974Y-83415648D01*
X188400800Y-83429610D01*
X188379356Y-83441527D01*
X188356846Y-83451286D01*
X188333489Y-83458790D01*
X187464154Y-83691728D01*
X187440173Y-83696908D01*
X187415800Y-83699712D01*
X187391269Y-83700113D01*
X187366818Y-83698108D01*
X187342680Y-83693716D01*
X187319090Y-83686980D01*
X187296273Y-83677963D01*
X187274450Y-83666754D01*
X187253830Y-83653459D01*
X187234613Y-83638207D01*
X187216984Y-83621145D01*
X187201112Y-83602438D01*
X187187149Y-83582265D01*
X187175232Y-83560820D01*
X187165473Y-83538310D01*
X187157969Y-83514953D01*
X186989736Y-82887099D01*
X186984556Y-82863118D01*
X186981752Y-82838745D01*
X186981351Y-82814214D01*
X186983356Y-82789763D01*
X186987748Y-82765625D01*
X186994484Y-82742034D01*
X187003501Y-82719218D01*
X187014711Y-82697395D01*
X187028005Y-82676775D01*
X187043257Y-82657558D01*
X187060319Y-82639929D01*
X187079026Y-82624056D01*
X187099200Y-82610094D01*
X187120644Y-82598177D01*
X187143154Y-82588418D01*
X187166511Y-82580914D01*
X188035846Y-82347976D01*
X188059827Y-82342796D01*
X188084200Y-82339992D01*
X188108731Y-82339591D01*
X188133182Y-82341596D01*
G37*
G04 #@! TD.AperFunction*
G04 #@! TA.AperFunction,SMDPad,CuDef*
G36*
X173378330Y-66418608D02*
G01*
X173402598Y-66422208D01*
X173426397Y-66428169D01*
X173449496Y-66436434D01*
X173471675Y-66446924D01*
X173492718Y-66459536D01*
X173512424Y-66474151D01*
X173530602Y-66490627D01*
X173990223Y-66950248D01*
X174006699Y-66968426D01*
X174021314Y-66988132D01*
X174033926Y-67009175D01*
X174044416Y-67031354D01*
X174052681Y-67054453D01*
X174058642Y-67078252D01*
X174062242Y-67102520D01*
X174063446Y-67127024D01*
X174062242Y-67151528D01*
X174058642Y-67175796D01*
X174052681Y-67199595D01*
X174044416Y-67222694D01*
X174033926Y-67244873D01*
X174021314Y-67265916D01*
X174006699Y-67285622D01*
X173990223Y-67303800D01*
X173353826Y-67940197D01*
X173335648Y-67956673D01*
X173315942Y-67971288D01*
X173294899Y-67983900D01*
X173272720Y-67994390D01*
X173249621Y-68002655D01*
X173225822Y-68008616D01*
X173201554Y-68012216D01*
X173177050Y-68013420D01*
X173152546Y-68012216D01*
X173128278Y-68008616D01*
X173104479Y-68002655D01*
X173081380Y-67994390D01*
X173059201Y-67983900D01*
X173038158Y-67971288D01*
X173018452Y-67956673D01*
X173000274Y-67940197D01*
X172540653Y-67480576D01*
X172524177Y-67462398D01*
X172509562Y-67442692D01*
X172496950Y-67421649D01*
X172486460Y-67399470D01*
X172478195Y-67376371D01*
X172472234Y-67352572D01*
X172468634Y-67328304D01*
X172467430Y-67303800D01*
X172468634Y-67279296D01*
X172472234Y-67255028D01*
X172478195Y-67231229D01*
X172486460Y-67208130D01*
X172496950Y-67185951D01*
X172509562Y-67164908D01*
X172524177Y-67145202D01*
X172540653Y-67127024D01*
X173177050Y-66490627D01*
X173195228Y-66474151D01*
X173214934Y-66459536D01*
X173235977Y-66446924D01*
X173258156Y-66436434D01*
X173281255Y-66428169D01*
X173305054Y-66422208D01*
X173329322Y-66418608D01*
X173353826Y-66417404D01*
X173378330Y-66418608D01*
G37*
G04 #@! TD.AperFunction*
G04 #@! TA.AperFunction,SMDPad,CuDef*
G36*
X174827898Y-67868176D02*
G01*
X174852166Y-67871776D01*
X174875965Y-67877737D01*
X174899064Y-67886002D01*
X174921243Y-67896492D01*
X174942286Y-67909104D01*
X174961992Y-67923719D01*
X174980170Y-67940195D01*
X175439791Y-68399816D01*
X175456267Y-68417994D01*
X175470882Y-68437700D01*
X175483494Y-68458743D01*
X175493984Y-68480922D01*
X175502249Y-68504021D01*
X175508210Y-68527820D01*
X175511810Y-68552088D01*
X175513014Y-68576592D01*
X175511810Y-68601096D01*
X175508210Y-68625364D01*
X175502249Y-68649163D01*
X175493984Y-68672262D01*
X175483494Y-68694441D01*
X175470882Y-68715484D01*
X175456267Y-68735190D01*
X175439791Y-68753368D01*
X174803394Y-69389765D01*
X174785216Y-69406241D01*
X174765510Y-69420856D01*
X174744467Y-69433468D01*
X174722288Y-69443958D01*
X174699189Y-69452223D01*
X174675390Y-69458184D01*
X174651122Y-69461784D01*
X174626618Y-69462988D01*
X174602114Y-69461784D01*
X174577846Y-69458184D01*
X174554047Y-69452223D01*
X174530948Y-69443958D01*
X174508769Y-69433468D01*
X174487726Y-69420856D01*
X174468020Y-69406241D01*
X174449842Y-69389765D01*
X173990221Y-68930144D01*
X173973745Y-68911966D01*
X173959130Y-68892260D01*
X173946518Y-68871217D01*
X173936028Y-68849038D01*
X173927763Y-68825939D01*
X173921802Y-68802140D01*
X173918202Y-68777872D01*
X173916998Y-68753368D01*
X173918202Y-68728864D01*
X173921802Y-68704596D01*
X173927763Y-68680797D01*
X173936028Y-68657698D01*
X173946518Y-68635519D01*
X173959130Y-68614476D01*
X173973745Y-68594770D01*
X173990221Y-68576592D01*
X174626618Y-67940195D01*
X174644796Y-67923719D01*
X174664502Y-67909104D01*
X174685545Y-67896492D01*
X174707724Y-67886002D01*
X174730823Y-67877737D01*
X174754622Y-67871776D01*
X174778890Y-67868176D01*
X174803394Y-67866972D01*
X174827898Y-67868176D01*
G37*
G04 #@! TD.AperFunction*
G04 #@! TA.AperFunction,SMDPad,CuDef*
G36*
X153734291Y-58950222D02*
G01*
X153758664Y-58953026D01*
X153782645Y-58958206D01*
X154410499Y-59126439D01*
X154433856Y-59133943D01*
X154456366Y-59143702D01*
X154477810Y-59155619D01*
X154497984Y-59169581D01*
X154516691Y-59185454D01*
X154533753Y-59203083D01*
X154549005Y-59222300D01*
X154562299Y-59242920D01*
X154573509Y-59264743D01*
X154582526Y-59287559D01*
X154589262Y-59311150D01*
X154593654Y-59335288D01*
X154595659Y-59359739D01*
X154595258Y-59384270D01*
X154592454Y-59408643D01*
X154587274Y-59432624D01*
X154354336Y-60301959D01*
X154346832Y-60325316D01*
X154337073Y-60347826D01*
X154325156Y-60369271D01*
X154311193Y-60389444D01*
X154295321Y-60408151D01*
X154277692Y-60425213D01*
X154258475Y-60440465D01*
X154237855Y-60453760D01*
X154216032Y-60464969D01*
X154193215Y-60473986D01*
X154169625Y-60480722D01*
X154145487Y-60485114D01*
X154121036Y-60487119D01*
X154096505Y-60486718D01*
X154072132Y-60483914D01*
X154048151Y-60478734D01*
X153420297Y-60310501D01*
X153396940Y-60302997D01*
X153374430Y-60293238D01*
X153352986Y-60281321D01*
X153332812Y-60267359D01*
X153314105Y-60251486D01*
X153297043Y-60233857D01*
X153281791Y-60214640D01*
X153268497Y-60194020D01*
X153257287Y-60172197D01*
X153248270Y-60149381D01*
X153241534Y-60125790D01*
X153237142Y-60101652D01*
X153235137Y-60077201D01*
X153235538Y-60052670D01*
X153238342Y-60028297D01*
X153243522Y-60004316D01*
X153476460Y-59134981D01*
X153483964Y-59111624D01*
X153493723Y-59089114D01*
X153505640Y-59067669D01*
X153519603Y-59047496D01*
X153535475Y-59028789D01*
X153553104Y-59011727D01*
X153572321Y-58996475D01*
X153592941Y-58983180D01*
X153614764Y-58971971D01*
X153637581Y-58962954D01*
X153661171Y-58956218D01*
X153685309Y-58951826D01*
X153709760Y-58949821D01*
X153734291Y-58950222D01*
G37*
G04 #@! TD.AperFunction*
G04 #@! TA.AperFunction,SMDPad,CuDef*
G36*
X155714439Y-59480802D02*
G01*
X155738812Y-59483606D01*
X155762793Y-59488786D01*
X156390647Y-59657019D01*
X156414004Y-59664523D01*
X156436514Y-59674282D01*
X156457958Y-59686199D01*
X156478132Y-59700161D01*
X156496839Y-59716034D01*
X156513901Y-59733663D01*
X156529153Y-59752880D01*
X156542447Y-59773500D01*
X156553657Y-59795323D01*
X156562674Y-59818139D01*
X156569410Y-59841730D01*
X156573802Y-59865868D01*
X156575807Y-59890319D01*
X156575406Y-59914850D01*
X156572602Y-59939223D01*
X156567422Y-59963204D01*
X156334484Y-60832539D01*
X156326980Y-60855896D01*
X156317221Y-60878406D01*
X156305304Y-60899851D01*
X156291341Y-60920024D01*
X156275469Y-60938731D01*
X156257840Y-60955793D01*
X156238623Y-60971045D01*
X156218003Y-60984340D01*
X156196180Y-60995549D01*
X156173363Y-61004566D01*
X156149773Y-61011302D01*
X156125635Y-61015694D01*
X156101184Y-61017699D01*
X156076653Y-61017298D01*
X156052280Y-61014494D01*
X156028299Y-61009314D01*
X155400445Y-60841081D01*
X155377088Y-60833577D01*
X155354578Y-60823818D01*
X155333134Y-60811901D01*
X155312960Y-60797939D01*
X155294253Y-60782066D01*
X155277191Y-60764437D01*
X155261939Y-60745220D01*
X155248645Y-60724600D01*
X155237435Y-60702777D01*
X155228418Y-60679961D01*
X155221682Y-60656370D01*
X155217290Y-60632232D01*
X155215285Y-60607781D01*
X155215686Y-60583250D01*
X155218490Y-60558877D01*
X155223670Y-60534896D01*
X155456608Y-59665561D01*
X155464112Y-59642204D01*
X155473871Y-59619694D01*
X155485788Y-59598249D01*
X155499751Y-59578076D01*
X155515623Y-59559369D01*
X155533252Y-59542307D01*
X155552469Y-59527055D01*
X155573089Y-59513760D01*
X155594912Y-59502551D01*
X155617729Y-59493534D01*
X155641319Y-59486798D01*
X155665457Y-59482406D01*
X155689908Y-59480401D01*
X155714439Y-59480802D01*
G37*
G04 #@! TD.AperFunction*
G04 #@! TA.AperFunction,SMDPad,CuDef*
G36*
X133084587Y-62550407D02*
G01*
X133108725Y-62554799D01*
X133132316Y-62561535D01*
X133155132Y-62570552D01*
X133176955Y-62581762D01*
X133197575Y-62595056D01*
X133216792Y-62610308D01*
X133234421Y-62627370D01*
X133250294Y-62646077D01*
X133264256Y-62666251D01*
X133276173Y-62687695D01*
X133285932Y-62710205D01*
X133293436Y-62733562D01*
X133526374Y-63602897D01*
X133531554Y-63626878D01*
X133534358Y-63651251D01*
X133534759Y-63675782D01*
X133532754Y-63700233D01*
X133528362Y-63724371D01*
X133521626Y-63747961D01*
X133512609Y-63770778D01*
X133501400Y-63792601D01*
X133488105Y-63813221D01*
X133472853Y-63832438D01*
X133455791Y-63850067D01*
X133437084Y-63865939D01*
X133416911Y-63879902D01*
X133395466Y-63891819D01*
X133372956Y-63901578D01*
X133349599Y-63909082D01*
X132721745Y-64077315D01*
X132697764Y-64082495D01*
X132673391Y-64085299D01*
X132648860Y-64085700D01*
X132624409Y-64083695D01*
X132600271Y-64079303D01*
X132576680Y-64072567D01*
X132553864Y-64063550D01*
X132532041Y-64052340D01*
X132511421Y-64039046D01*
X132492204Y-64023794D01*
X132474575Y-64006732D01*
X132458702Y-63988025D01*
X132444740Y-63967851D01*
X132432823Y-63946407D01*
X132423064Y-63923897D01*
X132415560Y-63900540D01*
X132182622Y-63031205D01*
X132177442Y-63007224D01*
X132174638Y-62982851D01*
X132174237Y-62958320D01*
X132176242Y-62933869D01*
X132180634Y-62909731D01*
X132187370Y-62886141D01*
X132196387Y-62863324D01*
X132207596Y-62841501D01*
X132220891Y-62820881D01*
X132236143Y-62801664D01*
X132253205Y-62784035D01*
X132271912Y-62768163D01*
X132292085Y-62754200D01*
X132313530Y-62742283D01*
X132336040Y-62732524D01*
X132359397Y-62725020D01*
X132987251Y-62556787D01*
X133011232Y-62551607D01*
X133035605Y-62548803D01*
X133060136Y-62548402D01*
X133084587Y-62550407D01*
G37*
G04 #@! TD.AperFunction*
G04 #@! TA.AperFunction,SMDPad,CuDef*
G36*
X135064735Y-62019827D02*
G01*
X135088873Y-62024219D01*
X135112464Y-62030955D01*
X135135280Y-62039972D01*
X135157103Y-62051182D01*
X135177723Y-62064476D01*
X135196940Y-62079728D01*
X135214569Y-62096790D01*
X135230442Y-62115497D01*
X135244404Y-62135671D01*
X135256321Y-62157115D01*
X135266080Y-62179625D01*
X135273584Y-62202982D01*
X135506522Y-63072317D01*
X135511702Y-63096298D01*
X135514506Y-63120671D01*
X135514907Y-63145202D01*
X135512902Y-63169653D01*
X135508510Y-63193791D01*
X135501774Y-63217381D01*
X135492757Y-63240198D01*
X135481548Y-63262021D01*
X135468253Y-63282641D01*
X135453001Y-63301858D01*
X135435939Y-63319487D01*
X135417232Y-63335359D01*
X135397059Y-63349322D01*
X135375614Y-63361239D01*
X135353104Y-63370998D01*
X135329747Y-63378502D01*
X134701893Y-63546735D01*
X134677912Y-63551915D01*
X134653539Y-63554719D01*
X134629008Y-63555120D01*
X134604557Y-63553115D01*
X134580419Y-63548723D01*
X134556828Y-63541987D01*
X134534012Y-63532970D01*
X134512189Y-63521760D01*
X134491569Y-63508466D01*
X134472352Y-63493214D01*
X134454723Y-63476152D01*
X134438850Y-63457445D01*
X134424888Y-63437271D01*
X134412971Y-63415827D01*
X134403212Y-63393317D01*
X134395708Y-63369960D01*
X134162770Y-62500625D01*
X134157590Y-62476644D01*
X134154786Y-62452271D01*
X134154385Y-62427740D01*
X134156390Y-62403289D01*
X134160782Y-62379151D01*
X134167518Y-62355561D01*
X134176535Y-62332744D01*
X134187744Y-62310921D01*
X134201039Y-62290301D01*
X134216291Y-62271084D01*
X134233353Y-62253455D01*
X134252060Y-62237583D01*
X134272233Y-62223620D01*
X134293678Y-62211703D01*
X134316188Y-62201944D01*
X134339545Y-62194440D01*
X134967399Y-62026207D01*
X134991380Y-62021027D01*
X135015753Y-62018223D01*
X135040284Y-62017822D01*
X135064735Y-62019827D01*
G37*
G04 #@! TD.AperFunction*
G04 #@! TA.AperFunction,SMDPad,CuDef*
G36*
X116732969Y-75907428D02*
G01*
X116757237Y-75911028D01*
X116781036Y-75916989D01*
X116804135Y-75925254D01*
X116826314Y-75935744D01*
X116847357Y-75948356D01*
X116867063Y-75962971D01*
X116885241Y-75979447D01*
X117521638Y-76615844D01*
X117538114Y-76634022D01*
X117552729Y-76653728D01*
X117565341Y-76674771D01*
X117575831Y-76696950D01*
X117584096Y-76720049D01*
X117590057Y-76743848D01*
X117593657Y-76768116D01*
X117594861Y-76792620D01*
X117593657Y-76817124D01*
X117590057Y-76841392D01*
X117584096Y-76865191D01*
X117575831Y-76888290D01*
X117565341Y-76910469D01*
X117552729Y-76931512D01*
X117538114Y-76951218D01*
X117521638Y-76969396D01*
X117062017Y-77429017D01*
X117043839Y-77445493D01*
X117024133Y-77460108D01*
X117003090Y-77472720D01*
X116980911Y-77483210D01*
X116957812Y-77491475D01*
X116934013Y-77497436D01*
X116909745Y-77501036D01*
X116885241Y-77502240D01*
X116860737Y-77501036D01*
X116836469Y-77497436D01*
X116812670Y-77491475D01*
X116789571Y-77483210D01*
X116767392Y-77472720D01*
X116746349Y-77460108D01*
X116726643Y-77445493D01*
X116708465Y-77429017D01*
X116072068Y-76792620D01*
X116055592Y-76774442D01*
X116040977Y-76754736D01*
X116028365Y-76733693D01*
X116017875Y-76711514D01*
X116009610Y-76688415D01*
X116003649Y-76664616D01*
X116000049Y-76640348D01*
X115998845Y-76615844D01*
X116000049Y-76591340D01*
X116003649Y-76567072D01*
X116009610Y-76543273D01*
X116017875Y-76520174D01*
X116028365Y-76497995D01*
X116040977Y-76476952D01*
X116055592Y-76457246D01*
X116072068Y-76439068D01*
X116531689Y-75979447D01*
X116549867Y-75962971D01*
X116569573Y-75948356D01*
X116590616Y-75935744D01*
X116612795Y-75925254D01*
X116635894Y-75916989D01*
X116659693Y-75911028D01*
X116683961Y-75907428D01*
X116708465Y-75906224D01*
X116732969Y-75907428D01*
G37*
G04 #@! TD.AperFunction*
G04 #@! TA.AperFunction,SMDPad,CuDef*
G36*
X118182537Y-74457860D02*
G01*
X118206805Y-74461460D01*
X118230604Y-74467421D01*
X118253703Y-74475686D01*
X118275882Y-74486176D01*
X118296925Y-74498788D01*
X118316631Y-74513403D01*
X118334809Y-74529879D01*
X118971206Y-75166276D01*
X118987682Y-75184454D01*
X119002297Y-75204160D01*
X119014909Y-75225203D01*
X119025399Y-75247382D01*
X119033664Y-75270481D01*
X119039625Y-75294280D01*
X119043225Y-75318548D01*
X119044429Y-75343052D01*
X119043225Y-75367556D01*
X119039625Y-75391824D01*
X119033664Y-75415623D01*
X119025399Y-75438722D01*
X119014909Y-75460901D01*
X119002297Y-75481944D01*
X118987682Y-75501650D01*
X118971206Y-75519828D01*
X118511585Y-75979449D01*
X118493407Y-75995925D01*
X118473701Y-76010540D01*
X118452658Y-76023152D01*
X118430479Y-76033642D01*
X118407380Y-76041907D01*
X118383581Y-76047868D01*
X118359313Y-76051468D01*
X118334809Y-76052672D01*
X118310305Y-76051468D01*
X118286037Y-76047868D01*
X118262238Y-76041907D01*
X118239139Y-76033642D01*
X118216960Y-76023152D01*
X118195917Y-76010540D01*
X118176211Y-75995925D01*
X118158033Y-75979449D01*
X117521636Y-75343052D01*
X117505160Y-75324874D01*
X117490545Y-75305168D01*
X117477933Y-75284125D01*
X117467443Y-75261946D01*
X117459178Y-75238847D01*
X117453217Y-75215048D01*
X117449617Y-75190780D01*
X117448413Y-75166276D01*
X117449617Y-75141772D01*
X117453217Y-75117504D01*
X117459178Y-75093705D01*
X117467443Y-75070606D01*
X117477933Y-75048427D01*
X117490545Y-75027384D01*
X117505160Y-75007678D01*
X117521636Y-74989500D01*
X117981257Y-74529879D01*
X117999435Y-74513403D01*
X118019141Y-74498788D01*
X118040184Y-74486176D01*
X118062363Y-74475686D01*
X118085462Y-74467421D01*
X118109261Y-74461460D01*
X118133529Y-74457860D01*
X118158033Y-74456656D01*
X118182537Y-74457860D01*
G37*
G04 #@! TD.AperFunction*
G04 #@! TA.AperFunction,SMDPad,CuDef*
G36*
X109271897Y-95551189D02*
G01*
X109296270Y-95553993D01*
X109320251Y-95559173D01*
X110189586Y-95792111D01*
X110212943Y-95799615D01*
X110235453Y-95809374D01*
X110256898Y-95821291D01*
X110277071Y-95835254D01*
X110295778Y-95851126D01*
X110312840Y-95868755D01*
X110328092Y-95887972D01*
X110341387Y-95908592D01*
X110352596Y-95930415D01*
X110361613Y-95953232D01*
X110368349Y-95976822D01*
X110372741Y-96000960D01*
X110374746Y-96025411D01*
X110374345Y-96049942D01*
X110371541Y-96074315D01*
X110366361Y-96098296D01*
X110198128Y-96726150D01*
X110190624Y-96749507D01*
X110180865Y-96772017D01*
X110168948Y-96793461D01*
X110154986Y-96813635D01*
X110139113Y-96832342D01*
X110121484Y-96849404D01*
X110102267Y-96864656D01*
X110081647Y-96877950D01*
X110059824Y-96889160D01*
X110037008Y-96898177D01*
X110013417Y-96904913D01*
X109989279Y-96909305D01*
X109964828Y-96911310D01*
X109940297Y-96910909D01*
X109915924Y-96908105D01*
X109891943Y-96902925D01*
X109022608Y-96669987D01*
X108999251Y-96662483D01*
X108976741Y-96652724D01*
X108955296Y-96640807D01*
X108935123Y-96626844D01*
X108916416Y-96610972D01*
X108899354Y-96593343D01*
X108884102Y-96574126D01*
X108870807Y-96553506D01*
X108859598Y-96531683D01*
X108850581Y-96508866D01*
X108843845Y-96485276D01*
X108839453Y-96461138D01*
X108837448Y-96436687D01*
X108837849Y-96412156D01*
X108840653Y-96387783D01*
X108845833Y-96363802D01*
X109014066Y-95735948D01*
X109021570Y-95712591D01*
X109031329Y-95690081D01*
X109043246Y-95668637D01*
X109057208Y-95648463D01*
X109073081Y-95629756D01*
X109090710Y-95612694D01*
X109109927Y-95597442D01*
X109130547Y-95584148D01*
X109152370Y-95572938D01*
X109175186Y-95563921D01*
X109198777Y-95557185D01*
X109222915Y-95552793D01*
X109247366Y-95550788D01*
X109271897Y-95551189D01*
G37*
G04 #@! TD.AperFunction*
G04 #@! TA.AperFunction,SMDPad,CuDef*
G36*
X109802477Y-93571041D02*
G01*
X109826850Y-93573845D01*
X109850831Y-93579025D01*
X110720166Y-93811963D01*
X110743523Y-93819467D01*
X110766033Y-93829226D01*
X110787478Y-93841143D01*
X110807651Y-93855106D01*
X110826358Y-93870978D01*
X110843420Y-93888607D01*
X110858672Y-93907824D01*
X110871967Y-93928444D01*
X110883176Y-93950267D01*
X110892193Y-93973084D01*
X110898929Y-93996674D01*
X110903321Y-94020812D01*
X110905326Y-94045263D01*
X110904925Y-94069794D01*
X110902121Y-94094167D01*
X110896941Y-94118148D01*
X110728708Y-94746002D01*
X110721204Y-94769359D01*
X110711445Y-94791869D01*
X110699528Y-94813313D01*
X110685566Y-94833487D01*
X110669693Y-94852194D01*
X110652064Y-94869256D01*
X110632847Y-94884508D01*
X110612227Y-94897802D01*
X110590404Y-94909012D01*
X110567588Y-94918029D01*
X110543997Y-94924765D01*
X110519859Y-94929157D01*
X110495408Y-94931162D01*
X110470877Y-94930761D01*
X110446504Y-94927957D01*
X110422523Y-94922777D01*
X109553188Y-94689839D01*
X109529831Y-94682335D01*
X109507321Y-94672576D01*
X109485876Y-94660659D01*
X109465703Y-94646696D01*
X109446996Y-94630824D01*
X109429934Y-94613195D01*
X109414682Y-94593978D01*
X109401387Y-94573358D01*
X109390178Y-94551535D01*
X109381161Y-94528718D01*
X109374425Y-94505128D01*
X109370033Y-94480990D01*
X109368028Y-94456539D01*
X109368429Y-94432008D01*
X109371233Y-94407635D01*
X109376413Y-94383654D01*
X109544646Y-93755800D01*
X109552150Y-93732443D01*
X109561909Y-93709933D01*
X109573826Y-93688489D01*
X109587788Y-93668315D01*
X109603661Y-93649608D01*
X109621290Y-93632546D01*
X109640507Y-93617294D01*
X109661127Y-93604000D01*
X109682950Y-93592790D01*
X109705766Y-93583773D01*
X109729357Y-93577037D01*
X109753495Y-93572645D01*
X109777946Y-93570640D01*
X109802477Y-93571041D01*
G37*
G04 #@! TD.AperFunction*
G04 #@! TA.AperFunction,SMDPad,CuDef*
G36*
X113523156Y-116372211D02*
G01*
X113547294Y-116376603D01*
X113570884Y-116383339D01*
X113593701Y-116392356D01*
X113615524Y-116403565D01*
X113636144Y-116416860D01*
X113655361Y-116432112D01*
X113672990Y-116449174D01*
X113688862Y-116467881D01*
X113702825Y-116488054D01*
X113714742Y-116509499D01*
X113724501Y-116532009D01*
X113732005Y-116555366D01*
X113900238Y-117183220D01*
X113905418Y-117207201D01*
X113908222Y-117231574D01*
X113908623Y-117256105D01*
X113906618Y-117280556D01*
X113902226Y-117304694D01*
X113895490Y-117328285D01*
X113886473Y-117351101D01*
X113875263Y-117372924D01*
X113861969Y-117393544D01*
X113846717Y-117412761D01*
X113829655Y-117430390D01*
X113810948Y-117446263D01*
X113790774Y-117460225D01*
X113769330Y-117472142D01*
X113746820Y-117481901D01*
X113723463Y-117489405D01*
X112854128Y-117722343D01*
X112830147Y-117727523D01*
X112805774Y-117730327D01*
X112781243Y-117730728D01*
X112756792Y-117728723D01*
X112732654Y-117724331D01*
X112709064Y-117717595D01*
X112686247Y-117708578D01*
X112664424Y-117697369D01*
X112643804Y-117684074D01*
X112624587Y-117668822D01*
X112606958Y-117651760D01*
X112591086Y-117633053D01*
X112577123Y-117612880D01*
X112565206Y-117591435D01*
X112555447Y-117568925D01*
X112547943Y-117545568D01*
X112379710Y-116917714D01*
X112374530Y-116893733D01*
X112371726Y-116869360D01*
X112371325Y-116844829D01*
X112373330Y-116820378D01*
X112377722Y-116796240D01*
X112384458Y-116772649D01*
X112393475Y-116749833D01*
X112404685Y-116728010D01*
X112417979Y-116707390D01*
X112433231Y-116688173D01*
X112450293Y-116670544D01*
X112469000Y-116654671D01*
X112489174Y-116640709D01*
X112510618Y-116628792D01*
X112533128Y-116619033D01*
X112556485Y-116611529D01*
X113425820Y-116378591D01*
X113449801Y-116373411D01*
X113474174Y-116370607D01*
X113498705Y-116370206D01*
X113523156Y-116372211D01*
G37*
G04 #@! TD.AperFunction*
G04 #@! TA.AperFunction,SMDPad,CuDef*
G36*
X112992576Y-114392063D02*
G01*
X113016714Y-114396455D01*
X113040304Y-114403191D01*
X113063121Y-114412208D01*
X113084944Y-114423417D01*
X113105564Y-114436712D01*
X113124781Y-114451964D01*
X113142410Y-114469026D01*
X113158282Y-114487733D01*
X113172245Y-114507906D01*
X113184162Y-114529351D01*
X113193921Y-114551861D01*
X113201425Y-114575218D01*
X113369658Y-115203072D01*
X113374838Y-115227053D01*
X113377642Y-115251426D01*
X113378043Y-115275957D01*
X113376038Y-115300408D01*
X113371646Y-115324546D01*
X113364910Y-115348137D01*
X113355893Y-115370953D01*
X113344683Y-115392776D01*
X113331389Y-115413396D01*
X113316137Y-115432613D01*
X113299075Y-115450242D01*
X113280368Y-115466115D01*
X113260194Y-115480077D01*
X113238750Y-115491994D01*
X113216240Y-115501753D01*
X113192883Y-115509257D01*
X112323548Y-115742195D01*
X112299567Y-115747375D01*
X112275194Y-115750179D01*
X112250663Y-115750580D01*
X112226212Y-115748575D01*
X112202074Y-115744183D01*
X112178484Y-115737447D01*
X112155667Y-115728430D01*
X112133844Y-115717221D01*
X112113224Y-115703926D01*
X112094007Y-115688674D01*
X112076378Y-115671612D01*
X112060506Y-115652905D01*
X112046543Y-115632732D01*
X112034626Y-115611287D01*
X112024867Y-115588777D01*
X112017363Y-115565420D01*
X111849130Y-114937566D01*
X111843950Y-114913585D01*
X111841146Y-114889212D01*
X111840745Y-114864681D01*
X111842750Y-114840230D01*
X111847142Y-114816092D01*
X111853878Y-114792501D01*
X111862895Y-114769685D01*
X111874105Y-114747862D01*
X111887399Y-114727242D01*
X111902651Y-114708025D01*
X111919713Y-114690396D01*
X111938420Y-114674523D01*
X111958594Y-114660561D01*
X111980038Y-114648644D01*
X112002548Y-114638885D01*
X112025905Y-114631381D01*
X112895240Y-114398443D01*
X112919221Y-114393263D01*
X112943594Y-114390459D01*
X112968125Y-114390058D01*
X112992576Y-114392063D01*
G37*
G04 #@! TD.AperFunction*
G04 #@! TA.AperFunction,SMDPad,CuDef*
G36*
X126333860Y-132134531D02*
G01*
X126358128Y-132138131D01*
X126381927Y-132144092D01*
X126405026Y-132152357D01*
X126427205Y-132162847D01*
X126448248Y-132175459D01*
X126467954Y-132190074D01*
X126486132Y-132206550D01*
X126945753Y-132666171D01*
X126962229Y-132684349D01*
X126976844Y-132704055D01*
X126989456Y-132725098D01*
X126999946Y-132747277D01*
X127008211Y-132770376D01*
X127014172Y-132794175D01*
X127017772Y-132818443D01*
X127018976Y-132842947D01*
X127017772Y-132867451D01*
X127014172Y-132891719D01*
X127008211Y-132915518D01*
X126999946Y-132938617D01*
X126989456Y-132960796D01*
X126976844Y-132981839D01*
X126962229Y-133001545D01*
X126945753Y-133019723D01*
X126309356Y-133656120D01*
X126291178Y-133672596D01*
X126271472Y-133687211D01*
X126250429Y-133699823D01*
X126228250Y-133710313D01*
X126205151Y-133718578D01*
X126181352Y-133724539D01*
X126157084Y-133728139D01*
X126132580Y-133729343D01*
X126108076Y-133728139D01*
X126083808Y-133724539D01*
X126060009Y-133718578D01*
X126036910Y-133710313D01*
X126014731Y-133699823D01*
X125993688Y-133687211D01*
X125973982Y-133672596D01*
X125955804Y-133656120D01*
X125496183Y-133196499D01*
X125479707Y-133178321D01*
X125465092Y-133158615D01*
X125452480Y-133137572D01*
X125441990Y-133115393D01*
X125433725Y-133092294D01*
X125427764Y-133068495D01*
X125424164Y-133044227D01*
X125422960Y-133019723D01*
X125424164Y-132995219D01*
X125427764Y-132970951D01*
X125433725Y-132947152D01*
X125441990Y-132924053D01*
X125452480Y-132901874D01*
X125465092Y-132880831D01*
X125479707Y-132861125D01*
X125496183Y-132842947D01*
X126132580Y-132206550D01*
X126150758Y-132190074D01*
X126170464Y-132175459D01*
X126191507Y-132162847D01*
X126213686Y-132152357D01*
X126236785Y-132144092D01*
X126260584Y-132138131D01*
X126284852Y-132134531D01*
X126309356Y-132133327D01*
X126333860Y-132134531D01*
G37*
G04 #@! TD.AperFunction*
G04 #@! TA.AperFunction,SMDPad,CuDef*
G36*
X124884292Y-130684963D02*
G01*
X124908560Y-130688563D01*
X124932359Y-130694524D01*
X124955458Y-130702789D01*
X124977637Y-130713279D01*
X124998680Y-130725891D01*
X125018386Y-130740506D01*
X125036564Y-130756982D01*
X125496185Y-131216603D01*
X125512661Y-131234781D01*
X125527276Y-131254487D01*
X125539888Y-131275530D01*
X125550378Y-131297709D01*
X125558643Y-131320808D01*
X125564604Y-131344607D01*
X125568204Y-131368875D01*
X125569408Y-131393379D01*
X125568204Y-131417883D01*
X125564604Y-131442151D01*
X125558643Y-131465950D01*
X125550378Y-131489049D01*
X125539888Y-131511228D01*
X125527276Y-131532271D01*
X125512661Y-131551977D01*
X125496185Y-131570155D01*
X124859788Y-132206552D01*
X124841610Y-132223028D01*
X124821904Y-132237643D01*
X124800861Y-132250255D01*
X124778682Y-132260745D01*
X124755583Y-132269010D01*
X124731784Y-132274971D01*
X124707516Y-132278571D01*
X124683012Y-132279775D01*
X124658508Y-132278571D01*
X124634240Y-132274971D01*
X124610441Y-132269010D01*
X124587342Y-132260745D01*
X124565163Y-132250255D01*
X124544120Y-132237643D01*
X124524414Y-132223028D01*
X124506236Y-132206552D01*
X124046615Y-131746931D01*
X124030139Y-131728753D01*
X124015524Y-131709047D01*
X124002912Y-131688004D01*
X123992422Y-131665825D01*
X123984157Y-131642726D01*
X123978196Y-131618927D01*
X123974596Y-131594659D01*
X123973392Y-131570155D01*
X123974596Y-131545651D01*
X123978196Y-131521383D01*
X123984157Y-131497584D01*
X123992422Y-131474485D01*
X124002912Y-131452306D01*
X124015524Y-131431263D01*
X124030139Y-131411557D01*
X124046615Y-131393379D01*
X124683012Y-130756982D01*
X124701190Y-130740506D01*
X124720896Y-130725891D01*
X124741939Y-130713279D01*
X124764118Y-130702789D01*
X124787217Y-130694524D01*
X124811016Y-130688563D01*
X124835284Y-130684963D01*
X124859788Y-130683759D01*
X124884292Y-130684963D01*
G37*
G04 #@! TD.AperFunction*
G04 #@! TA.AperFunction,SMDPad,CuDef*
G36*
X145937569Y-139772101D02*
G01*
X145961942Y-139774905D01*
X145985923Y-139780085D01*
X146613777Y-139948318D01*
X146637134Y-139955822D01*
X146659644Y-139965581D01*
X146681088Y-139977498D01*
X146701262Y-139991460D01*
X146719969Y-140007333D01*
X146737031Y-140024962D01*
X146752283Y-140044179D01*
X146765577Y-140064799D01*
X146776787Y-140086622D01*
X146785804Y-140109438D01*
X146792540Y-140133029D01*
X146796932Y-140157167D01*
X146798937Y-140181618D01*
X146798536Y-140206149D01*
X146795732Y-140230522D01*
X146790552Y-140254503D01*
X146557614Y-141123838D01*
X146550110Y-141147195D01*
X146540351Y-141169705D01*
X146528434Y-141191150D01*
X146514471Y-141211323D01*
X146498599Y-141230030D01*
X146480970Y-141247092D01*
X146461753Y-141262344D01*
X146441133Y-141275639D01*
X146419310Y-141286848D01*
X146396493Y-141295865D01*
X146372903Y-141302601D01*
X146348765Y-141306993D01*
X146324314Y-141308998D01*
X146299783Y-141308597D01*
X146275410Y-141305793D01*
X146251429Y-141300613D01*
X145623575Y-141132380D01*
X145600218Y-141124876D01*
X145577708Y-141115117D01*
X145556264Y-141103200D01*
X145536090Y-141089238D01*
X145517383Y-141073365D01*
X145500321Y-141055736D01*
X145485069Y-141036519D01*
X145471775Y-141015899D01*
X145460565Y-140994076D01*
X145451548Y-140971260D01*
X145444812Y-140947669D01*
X145440420Y-140923531D01*
X145438415Y-140899080D01*
X145438816Y-140874549D01*
X145441620Y-140850176D01*
X145446800Y-140826195D01*
X145679738Y-139956860D01*
X145687242Y-139933503D01*
X145697001Y-139910993D01*
X145708918Y-139889548D01*
X145722881Y-139869375D01*
X145738753Y-139850668D01*
X145756382Y-139833606D01*
X145775599Y-139818354D01*
X145796219Y-139805059D01*
X145818042Y-139793850D01*
X145840859Y-139784833D01*
X145864449Y-139778097D01*
X145888587Y-139773705D01*
X145913038Y-139771700D01*
X145937569Y-139772101D01*
G37*
G04 #@! TD.AperFunction*
G04 #@! TA.AperFunction,SMDPad,CuDef*
G36*
X143957421Y-139241521D02*
G01*
X143981794Y-139244325D01*
X144005775Y-139249505D01*
X144633629Y-139417738D01*
X144656986Y-139425242D01*
X144679496Y-139435001D01*
X144700940Y-139446918D01*
X144721114Y-139460880D01*
X144739821Y-139476753D01*
X144756883Y-139494382D01*
X144772135Y-139513599D01*
X144785429Y-139534219D01*
X144796639Y-139556042D01*
X144805656Y-139578858D01*
X144812392Y-139602449D01*
X144816784Y-139626587D01*
X144818789Y-139651038D01*
X144818388Y-139675569D01*
X144815584Y-139699942D01*
X144810404Y-139723923D01*
X144577466Y-140593258D01*
X144569962Y-140616615D01*
X144560203Y-140639125D01*
X144548286Y-140660570D01*
X144534323Y-140680743D01*
X144518451Y-140699450D01*
X144500822Y-140716512D01*
X144481605Y-140731764D01*
X144460985Y-140745059D01*
X144439162Y-140756268D01*
X144416345Y-140765285D01*
X144392755Y-140772021D01*
X144368617Y-140776413D01*
X144344166Y-140778418D01*
X144319635Y-140778017D01*
X144295262Y-140775213D01*
X144271281Y-140770033D01*
X143643427Y-140601800D01*
X143620070Y-140594296D01*
X143597560Y-140584537D01*
X143576116Y-140572620D01*
X143555942Y-140558658D01*
X143537235Y-140542785D01*
X143520173Y-140525156D01*
X143504921Y-140505939D01*
X143491627Y-140485319D01*
X143480417Y-140463496D01*
X143471400Y-140440680D01*
X143464664Y-140417089D01*
X143460272Y-140392951D01*
X143458267Y-140368500D01*
X143458668Y-140343969D01*
X143461472Y-140319596D01*
X143466652Y-140295615D01*
X143699590Y-139426280D01*
X143707094Y-139402923D01*
X143716853Y-139380413D01*
X143728770Y-139358968D01*
X143742733Y-139338795D01*
X143758605Y-139320088D01*
X143776234Y-139303026D01*
X143795451Y-139287774D01*
X143816071Y-139274479D01*
X143837894Y-139263270D01*
X143860711Y-139254253D01*
X143884301Y-139247517D01*
X143908439Y-139243125D01*
X143932890Y-139241120D01*
X143957421Y-139241521D01*
G37*
G04 #@! TD.AperFunction*
G04 #@! TA.AperFunction,SMDPad,CuDef*
G36*
X164946554Y-136835113D02*
G01*
X164970692Y-136839505D01*
X164994283Y-136846241D01*
X165017099Y-136855258D01*
X165038922Y-136866468D01*
X165059542Y-136879762D01*
X165078759Y-136895014D01*
X165096388Y-136912076D01*
X165112261Y-136930783D01*
X165126223Y-136950957D01*
X165138140Y-136972401D01*
X165147899Y-136994911D01*
X165155403Y-137018268D01*
X165388341Y-137887603D01*
X165393521Y-137911584D01*
X165396325Y-137935957D01*
X165396726Y-137960488D01*
X165394721Y-137984939D01*
X165390329Y-138009077D01*
X165383593Y-138032667D01*
X165374576Y-138055484D01*
X165363367Y-138077307D01*
X165350072Y-138097927D01*
X165334820Y-138117144D01*
X165317758Y-138134773D01*
X165299051Y-138150645D01*
X165278878Y-138164608D01*
X165257433Y-138176525D01*
X165234923Y-138186284D01*
X165211566Y-138193788D01*
X164583712Y-138362021D01*
X164559731Y-138367201D01*
X164535358Y-138370005D01*
X164510827Y-138370406D01*
X164486376Y-138368401D01*
X164462238Y-138364009D01*
X164438647Y-138357273D01*
X164415831Y-138348256D01*
X164394008Y-138337046D01*
X164373388Y-138323752D01*
X164354171Y-138308500D01*
X164336542Y-138291438D01*
X164320669Y-138272731D01*
X164306707Y-138252557D01*
X164294790Y-138231113D01*
X164285031Y-138208603D01*
X164277527Y-138185246D01*
X164044589Y-137315911D01*
X164039409Y-137291930D01*
X164036605Y-137267557D01*
X164036204Y-137243026D01*
X164038209Y-137218575D01*
X164042601Y-137194437D01*
X164049337Y-137170847D01*
X164058354Y-137148030D01*
X164069563Y-137126207D01*
X164082858Y-137105587D01*
X164098110Y-137086370D01*
X164115172Y-137068741D01*
X164133879Y-137052869D01*
X164154052Y-137038906D01*
X164175497Y-137026989D01*
X164198007Y-137017230D01*
X164221364Y-137009726D01*
X164849218Y-136841493D01*
X164873199Y-136836313D01*
X164897572Y-136833509D01*
X164922103Y-136833108D01*
X164946554Y-136835113D01*
G37*
G04 #@! TD.AperFunction*
G04 #@! TA.AperFunction,SMDPad,CuDef*
G36*
X166926702Y-136304533D02*
G01*
X166950840Y-136308925D01*
X166974431Y-136315661D01*
X166997247Y-136324678D01*
X167019070Y-136335888D01*
X167039690Y-136349182D01*
X167058907Y-136364434D01*
X167076536Y-136381496D01*
X167092409Y-136400203D01*
X167106371Y-136420377D01*
X167118288Y-136441821D01*
X167128047Y-136464331D01*
X167135551Y-136487688D01*
X167368489Y-137357023D01*
X167373669Y-137381004D01*
X167376473Y-137405377D01*
X167376874Y-137429908D01*
X167374869Y-137454359D01*
X167370477Y-137478497D01*
X167363741Y-137502087D01*
X167354724Y-137524904D01*
X167343515Y-137546727D01*
X167330220Y-137567347D01*
X167314968Y-137586564D01*
X167297906Y-137604193D01*
X167279199Y-137620065D01*
X167259026Y-137634028D01*
X167237581Y-137645945D01*
X167215071Y-137655704D01*
X167191714Y-137663208D01*
X166563860Y-137831441D01*
X166539879Y-137836621D01*
X166515506Y-137839425D01*
X166490975Y-137839826D01*
X166466524Y-137837821D01*
X166442386Y-137833429D01*
X166418795Y-137826693D01*
X166395979Y-137817676D01*
X166374156Y-137806466D01*
X166353536Y-137793172D01*
X166334319Y-137777920D01*
X166316690Y-137760858D01*
X166300817Y-137742151D01*
X166286855Y-137721977D01*
X166274938Y-137700533D01*
X166265179Y-137678023D01*
X166257675Y-137654666D01*
X166024737Y-136785331D01*
X166019557Y-136761350D01*
X166016753Y-136736977D01*
X166016352Y-136712446D01*
X166018357Y-136687995D01*
X166022749Y-136663857D01*
X166029485Y-136640267D01*
X166038502Y-136617450D01*
X166049711Y-136595627D01*
X166063006Y-136575007D01*
X166078258Y-136555790D01*
X166095320Y-136538161D01*
X166114027Y-136522289D01*
X166134200Y-136508326D01*
X166155645Y-136496409D01*
X166178155Y-136486650D01*
X166201512Y-136479146D01*
X166829366Y-136310913D01*
X166853347Y-136305733D01*
X166877720Y-136302929D01*
X166902251Y-136302528D01*
X166926702Y-136304533D01*
G37*
G04 #@! TD.AperFunction*
G04 #@! TA.AperFunction,SMDPad,CuDef*
G36*
X181475817Y-124247908D02*
G01*
X181500085Y-124251508D01*
X181523884Y-124257469D01*
X181546983Y-124265734D01*
X181569162Y-124276224D01*
X181590205Y-124288836D01*
X181609911Y-124303451D01*
X181628089Y-124319927D01*
X182264486Y-124956324D01*
X182280962Y-124974502D01*
X182295577Y-124994208D01*
X182308189Y-125015251D01*
X182318679Y-125037430D01*
X182326944Y-125060529D01*
X182332905Y-125084328D01*
X182336505Y-125108596D01*
X182337709Y-125133100D01*
X182336505Y-125157604D01*
X182332905Y-125181872D01*
X182326944Y-125205671D01*
X182318679Y-125228770D01*
X182308189Y-125250949D01*
X182295577Y-125271992D01*
X182280962Y-125291698D01*
X182264486Y-125309876D01*
X181804865Y-125769497D01*
X181786687Y-125785973D01*
X181766981Y-125800588D01*
X181745938Y-125813200D01*
X181723759Y-125823690D01*
X181700660Y-125831955D01*
X181676861Y-125837916D01*
X181652593Y-125841516D01*
X181628089Y-125842720D01*
X181603585Y-125841516D01*
X181579317Y-125837916D01*
X181555518Y-125831955D01*
X181532419Y-125823690D01*
X181510240Y-125813200D01*
X181489197Y-125800588D01*
X181469491Y-125785973D01*
X181451313Y-125769497D01*
X180814916Y-125133100D01*
X180798440Y-125114922D01*
X180783825Y-125095216D01*
X180771213Y-125074173D01*
X180760723Y-125051994D01*
X180752458Y-125028895D01*
X180746497Y-125005096D01*
X180742897Y-124980828D01*
X180741693Y-124956324D01*
X180742897Y-124931820D01*
X180746497Y-124907552D01*
X180752458Y-124883753D01*
X180760723Y-124860654D01*
X180771213Y-124838475D01*
X180783825Y-124817432D01*
X180798440Y-124797726D01*
X180814916Y-124779548D01*
X181274537Y-124319927D01*
X181292715Y-124303451D01*
X181312421Y-124288836D01*
X181333464Y-124276224D01*
X181355643Y-124265734D01*
X181378742Y-124257469D01*
X181402541Y-124251508D01*
X181426809Y-124247908D01*
X181451313Y-124246704D01*
X181475817Y-124247908D01*
G37*
G04 #@! TD.AperFunction*
G04 #@! TA.AperFunction,SMDPad,CuDef*
G36*
X182925385Y-122798340D02*
G01*
X182949653Y-122801940D01*
X182973452Y-122807901D01*
X182996551Y-122816166D01*
X183018730Y-122826656D01*
X183039773Y-122839268D01*
X183059479Y-122853883D01*
X183077657Y-122870359D01*
X183714054Y-123506756D01*
X183730530Y-123524934D01*
X183745145Y-123544640D01*
X183757757Y-123565683D01*
X183768247Y-123587862D01*
X183776512Y-123610961D01*
X183782473Y-123634760D01*
X183786073Y-123659028D01*
X183787277Y-123683532D01*
X183786073Y-123708036D01*
X183782473Y-123732304D01*
X183776512Y-123756103D01*
X183768247Y-123779202D01*
X183757757Y-123801381D01*
X183745145Y-123822424D01*
X183730530Y-123842130D01*
X183714054Y-123860308D01*
X183254433Y-124319929D01*
X183236255Y-124336405D01*
X183216549Y-124351020D01*
X183195506Y-124363632D01*
X183173327Y-124374122D01*
X183150228Y-124382387D01*
X183126429Y-124388348D01*
X183102161Y-124391948D01*
X183077657Y-124393152D01*
X183053153Y-124391948D01*
X183028885Y-124388348D01*
X183005086Y-124382387D01*
X182981987Y-124374122D01*
X182959808Y-124363632D01*
X182938765Y-124351020D01*
X182919059Y-124336405D01*
X182900881Y-124319929D01*
X182264484Y-123683532D01*
X182248008Y-123665354D01*
X182233393Y-123645648D01*
X182220781Y-123624605D01*
X182210291Y-123602426D01*
X182202026Y-123579327D01*
X182196065Y-123555528D01*
X182192465Y-123531260D01*
X182191261Y-123506756D01*
X182192465Y-123482252D01*
X182196065Y-123457984D01*
X182202026Y-123434185D01*
X182210291Y-123411086D01*
X182220781Y-123388907D01*
X182233393Y-123367864D01*
X182248008Y-123348158D01*
X182264484Y-123329980D01*
X182724105Y-122870359D01*
X182742283Y-122853883D01*
X182761989Y-122839268D01*
X182783032Y-122826656D01*
X182805211Y-122816166D01*
X182828310Y-122807901D01*
X182852109Y-122801940D01*
X182876377Y-122798340D01*
X182900881Y-122797136D01*
X182925385Y-122798340D01*
G37*
G04 #@! TD.AperFunction*
G04 #@! TA.AperFunction,SMDPad,CuDef*
G36*
X186400510Y-116060214D02*
G01*
X186424883Y-116063018D01*
X186448864Y-116068198D01*
X187318199Y-116301136D01*
X187341556Y-116308640D01*
X187364066Y-116318399D01*
X187385511Y-116330316D01*
X187405684Y-116344279D01*
X187424391Y-116360151D01*
X187441453Y-116377780D01*
X187456705Y-116396997D01*
X187470000Y-116417617D01*
X187481209Y-116439440D01*
X187490226Y-116462257D01*
X187496962Y-116485847D01*
X187501354Y-116509985D01*
X187503359Y-116534436D01*
X187502958Y-116558967D01*
X187500154Y-116583340D01*
X187494974Y-116607321D01*
X187326741Y-117235175D01*
X187319237Y-117258532D01*
X187309478Y-117281042D01*
X187297561Y-117302486D01*
X187283599Y-117322660D01*
X187267726Y-117341367D01*
X187250097Y-117358429D01*
X187230880Y-117373681D01*
X187210260Y-117386975D01*
X187188437Y-117398185D01*
X187165621Y-117407202D01*
X187142030Y-117413938D01*
X187117892Y-117418330D01*
X187093441Y-117420335D01*
X187068910Y-117419934D01*
X187044537Y-117417130D01*
X187020556Y-117411950D01*
X186151221Y-117179012D01*
X186127864Y-117171508D01*
X186105354Y-117161749D01*
X186083909Y-117149832D01*
X186063736Y-117135869D01*
X186045029Y-117119997D01*
X186027967Y-117102368D01*
X186012715Y-117083151D01*
X185999420Y-117062531D01*
X185988211Y-117040708D01*
X185979194Y-117017891D01*
X185972458Y-116994301D01*
X185968066Y-116970163D01*
X185966061Y-116945712D01*
X185966462Y-116921181D01*
X185969266Y-116896808D01*
X185974446Y-116872827D01*
X186142679Y-116244973D01*
X186150183Y-116221616D01*
X186159942Y-116199106D01*
X186171859Y-116177662D01*
X186185821Y-116157488D01*
X186201694Y-116138781D01*
X186219323Y-116121719D01*
X186238540Y-116106467D01*
X186259160Y-116093173D01*
X186280983Y-116081963D01*
X186303799Y-116072946D01*
X186327390Y-116066210D01*
X186351528Y-116061818D01*
X186375979Y-116059813D01*
X186400510Y-116060214D01*
G37*
G04 #@! TD.AperFunction*
G04 #@! TA.AperFunction,SMDPad,CuDef*
G36*
X186931090Y-114080066D02*
G01*
X186955463Y-114082870D01*
X186979444Y-114088050D01*
X187848779Y-114320988D01*
X187872136Y-114328492D01*
X187894646Y-114338251D01*
X187916091Y-114350168D01*
X187936264Y-114364131D01*
X187954971Y-114380003D01*
X187972033Y-114397632D01*
X187987285Y-114416849D01*
X188000580Y-114437469D01*
X188011789Y-114459292D01*
X188020806Y-114482109D01*
X188027542Y-114505699D01*
X188031934Y-114529837D01*
X188033939Y-114554288D01*
X188033538Y-114578819D01*
X188030734Y-114603192D01*
X188025554Y-114627173D01*
X187857321Y-115255027D01*
X187849817Y-115278384D01*
X187840058Y-115300894D01*
X187828141Y-115322338D01*
X187814179Y-115342512D01*
X187798306Y-115361219D01*
X187780677Y-115378281D01*
X187761460Y-115393533D01*
X187740840Y-115406827D01*
X187719017Y-115418037D01*
X187696201Y-115427054D01*
X187672610Y-115433790D01*
X187648472Y-115438182D01*
X187624021Y-115440187D01*
X187599490Y-115439786D01*
X187575117Y-115436982D01*
X187551136Y-115431802D01*
X186681801Y-115198864D01*
X186658444Y-115191360D01*
X186635934Y-115181601D01*
X186614489Y-115169684D01*
X186594316Y-115155721D01*
X186575609Y-115139849D01*
X186558547Y-115122220D01*
X186543295Y-115103003D01*
X186530000Y-115082383D01*
X186518791Y-115060560D01*
X186509774Y-115037743D01*
X186503038Y-115014153D01*
X186498646Y-114990015D01*
X186496641Y-114965564D01*
X186497042Y-114941033D01*
X186499846Y-114916660D01*
X186505026Y-114892679D01*
X186673259Y-114264825D01*
X186680763Y-114241468D01*
X186690522Y-114218958D01*
X186702439Y-114197514D01*
X186716401Y-114177340D01*
X186732274Y-114158633D01*
X186749903Y-114141571D01*
X186769120Y-114126319D01*
X186789740Y-114113025D01*
X186811563Y-114101815D01*
X186834379Y-114092798D01*
X186857970Y-114086062D01*
X186882108Y-114081670D01*
X186906559Y-114079665D01*
X186931090Y-114080066D01*
G37*
G04 #@! TD.AperFunction*
D12*
X192500000Y-100000000D03*
X192500000Y-95750000D03*
X192500000Y-104250000D03*
D13*
X192073448Y-88860429D03*
G04 #@! TA.AperFunction,ComponentPad*
D11*
G36*
X188983600Y-90620099D02*
G01*
X188517726Y-88881433D01*
X190256392Y-88415559D01*
X190722266Y-90154225D01*
X188983600Y-90620099D01*
G37*
G04 #@! TD.AperFunction*
G04 #@! TA.AperFunction,ComponentPad*
G36*
X178261690Y-73128546D02*
G01*
X176988898Y-71855754D01*
X178261690Y-70582962D01*
X179534482Y-71855754D01*
X178261690Y-73128546D01*
G37*
G04 #@! TD.AperFunction*
D13*
X180057741Y-70059703D03*
G04 #@! TA.AperFunction,ComponentPad*
D11*
G36*
X160977988Y-62489376D02*
G01*
X159239322Y-62023502D01*
X159705196Y-60284836D01*
X161443862Y-60750710D01*
X160977988Y-62489376D01*
G37*
G04 #@! TD.AperFunction*
D13*
X160998992Y-58933654D03*
G04 #@! TA.AperFunction,ComponentPad*
D11*
G36*
X140525064Y-62193477D02*
G01*
X138786398Y-62659351D01*
X138320524Y-60920685D01*
X140059190Y-60454811D01*
X140525064Y-62193477D01*
G37*
G04 #@! TD.AperFunction*
D13*
X138765394Y-59103629D03*
G04 #@! TA.AperFunction,ComponentPad*
D11*
G36*
X122787557Y-71997473D02*
G01*
X121514765Y-73270265D01*
X120241973Y-71997473D01*
X121514765Y-70724681D01*
X122787557Y-71997473D01*
G37*
G04 #@! TD.AperFunction*
D13*
X119718714Y-70201422D03*
G04 #@! TA.AperFunction,ComponentPad*
D11*
G36*
X112377004Y-89168459D02*
G01*
X111911130Y-90907125D01*
X110172464Y-90441251D01*
X110638338Y-88702585D01*
X112377004Y-89168459D01*
G37*
G04 #@! TD.AperFunction*
D13*
X108821282Y-89147455D03*
G04 #@! TA.AperFunction,ComponentPad*
D11*
G36*
X112016400Y-109379901D02*
G01*
X112482274Y-111118567D01*
X110743608Y-111584441D01*
X110277734Y-109845775D01*
X112016400Y-109379901D01*
G37*
G04 #@! TD.AperFunction*
D13*
X108926552Y-111139571D03*
G04 #@! TA.AperFunction,ComponentPad*
D11*
G36*
X121562791Y-126927614D02*
G01*
X122835583Y-128200406D01*
X121562791Y-129473198D01*
X120289999Y-128200406D01*
X121562791Y-126927614D01*
G37*
G04 #@! TD.AperFunction*
D13*
X119766740Y-129996457D03*
G04 #@! TA.AperFunction,ComponentPad*
D11*
G36*
X139017264Y-137624554D02*
G01*
X140755930Y-138090428D01*
X140290056Y-139829094D01*
X138551390Y-139363220D01*
X139017264Y-137624554D01*
G37*
G04 #@! TD.AperFunction*
D13*
X138996260Y-141180276D03*
G04 #@! TA.AperFunction,ComponentPad*
D11*
G36*
X159267529Y-138130047D02*
G01*
X161006195Y-137664173D01*
X161472069Y-139402839D01*
X159733403Y-139868713D01*
X159267529Y-138130047D01*
G37*
G04 #@! TD.AperFunction*
D13*
X161027199Y-141219895D03*
G04 #@! TA.AperFunction,ComponentPad*
D11*
G36*
X177017901Y-128374062D02*
G01*
X178290693Y-127101270D01*
X179563485Y-128374062D01*
X178290693Y-129646854D01*
X177017901Y-128374062D01*
G37*
G04 #@! TD.AperFunction*
D13*
X180086744Y-130170113D03*
G04 #@! TA.AperFunction,ComponentPad*
D11*
G36*
X187512182Y-111129183D02*
G01*
X187978056Y-109390517D01*
X189716722Y-109856391D01*
X189250848Y-111595057D01*
X187512182Y-111129183D01*
G37*
G04 #@! TD.AperFunction*
D13*
X191067904Y-111150187D03*
D14*
X187750000Y-99250000D03*
X187750000Y-98250000D03*
X187750000Y-100500000D03*
X187750000Y-101500000D03*
X188750000Y-101500000D03*
X188750000Y-98250000D03*
D15*
X192500000Y-100000000D02*
X188500000Y-100000000D01*
X188500000Y-100000000D02*
X187750000Y-99250000D01*
X192250000Y-100250000D02*
X192500000Y-100000000D01*
X188750000Y-98250000D02*
X192000000Y-98250000D01*
X189315685Y-101500000D02*
X188750000Y-101500000D01*
X192250000Y-101500000D02*
X189315685Y-101500000D01*
X192500000Y-101250000D02*
X192250000Y-101500000D01*
X192500000Y-100000000D02*
X192500000Y-101250000D01*
X192000000Y-100500000D02*
X192500000Y-100000000D01*
X187750000Y-100500000D02*
X192000000Y-100500000D01*
X189250000Y-100000000D02*
X187750000Y-101500000D01*
X192500000Y-100000000D02*
X189250000Y-100000000D01*
X188315685Y-98250000D02*
X187750000Y-98250000D01*
X192000000Y-98250000D02*
X188315685Y-98250000D01*
X192500000Y-98750000D02*
X192000000Y-98250000D01*
X192500000Y-100000000D02*
X192500000Y-98750000D01*
X187750000Y-98250000D02*
X189250000Y-99750000D01*
X189460000Y-100000000D02*
X192500000Y-100000000D01*
X189250000Y-99790000D02*
X189460000Y-100000000D01*
X189250000Y-99750000D02*
X189250000Y-99790000D01*
X188750000Y-101500000D02*
X187750000Y-101500000D01*
X187750000Y-101500000D02*
X187750000Y-100500000D01*
X187750000Y-99250000D02*
X187750000Y-100500000D01*
X187750000Y-99250000D02*
X187750000Y-98250000D01*
X187265290Y-111841949D02*
X188614452Y-110492787D01*
X187265290Y-114759926D02*
X187265290Y-111841949D01*
X178290693Y-128293720D02*
X181539701Y-125044712D01*
X178290693Y-128374062D02*
X178290693Y-128293720D01*
X163551779Y-138766443D02*
X164716465Y-137601757D01*
X160369799Y-138766443D02*
X163551779Y-138766443D01*
X140936605Y-140009769D02*
X144138528Y-140009769D01*
X139653660Y-138726824D02*
X140936605Y-140009769D01*
X121562791Y-128273158D02*
X124771400Y-131481767D01*
X121562791Y-128200406D02*
X121562791Y-128273158D01*
X111380004Y-113840929D02*
X112609394Y-115070319D01*
X111380004Y-110482171D02*
X111380004Y-113840929D01*
X111274734Y-93112844D02*
X110136677Y-94250901D01*
X111274734Y-89804855D02*
X111274734Y-93112844D01*
X118257574Y-75254664D02*
X121514765Y-71997473D01*
X118246421Y-75254664D02*
X118257574Y-75254664D01*
X136064036Y-61557081D02*
X134834646Y-62786471D01*
X139422794Y-61557081D02*
X136064036Y-61557081D01*
X159203536Y-60249050D02*
X160341592Y-61387106D01*
X155895546Y-60249050D02*
X159203536Y-60249050D01*
X175070916Y-68664980D02*
X178261690Y-71855754D01*
X174715006Y-68664980D02*
X175070916Y-68664980D01*
X188280580Y-88178413D02*
X189619996Y-89517829D01*
X188280580Y-85000000D02*
X188280580Y-88178413D01*
X187750000Y-83615135D02*
X187750000Y-83019852D01*
X187062322Y-84302813D02*
X187750000Y-83615135D01*
X187062322Y-92102322D02*
X187062322Y-84302813D01*
X190710000Y-95750000D02*
X187062322Y-92102322D01*
X192500000Y-95750000D02*
X190710000Y-95750000D01*
X173265438Y-67996598D02*
X173265438Y-67215412D01*
X173265438Y-69259982D02*
X173265438Y-67996598D01*
X187025308Y-83019852D02*
X173265438Y-69259982D01*
X187750000Y-83019852D02*
X187025308Y-83019852D01*
X153915398Y-60443162D02*
X153915398Y-59718470D01*
X156717308Y-61467308D02*
X154939544Y-61467308D01*
X170153862Y-64103836D02*
X159353836Y-64103836D01*
X154939544Y-61467308D02*
X153915398Y-60443162D01*
X159353836Y-64103836D02*
X156717308Y-61467308D01*
X173265438Y-67215412D02*
X170153862Y-64103836D01*
X134137459Y-64004729D02*
X133449781Y-63317051D01*
X139350224Y-64004729D02*
X134137459Y-64004729D01*
X133449781Y-63317051D02*
X132854498Y-63317051D01*
X143636483Y-59718470D02*
X139350224Y-64004729D01*
X153915398Y-59718470D02*
X143636483Y-59718470D01*
X119467317Y-76704232D02*
X116796853Y-76704232D01*
X132854498Y-63317051D02*
X119467317Y-76704232D01*
X110330789Y-96231049D02*
X109606097Y-96231049D01*
X112827014Y-80674071D02*
X112827014Y-93734824D01*
X112827014Y-93734824D02*
X110330789Y-96231049D01*
X116796853Y-76704232D02*
X112827014Y-80674071D01*
X113139974Y-116455184D02*
X113139974Y-117050467D01*
X113827652Y-115767506D02*
X113139974Y-116455184D01*
X113827652Y-110554741D02*
X113827652Y-115767506D01*
X109606097Y-106333186D02*
X113827652Y-110554741D01*
X109606097Y-96231049D02*
X109606097Y-106333186D01*
X126220968Y-130131461D02*
X126220968Y-132931335D01*
X113139974Y-117050467D02*
X126220968Y-130131461D01*
X145094530Y-138791511D02*
X146118676Y-139815657D01*
X143791511Y-138791511D02*
X145094530Y-138791511D01*
X141062874Y-136062874D02*
X143791511Y-138791511D01*
X129352507Y-136062874D02*
X141062874Y-136062874D01*
X126220968Y-132931335D02*
X129352507Y-136062874D01*
X166101330Y-137071177D02*
X166696613Y-137071177D01*
X164164569Y-136383499D02*
X165413652Y-136383499D01*
X163453892Y-137094176D02*
X164164569Y-136383499D01*
X165413652Y-136383499D02*
X166101330Y-137071177D01*
X146118676Y-139815657D02*
X148840157Y-137094176D01*
X148840157Y-137094176D02*
X163453892Y-137094176D01*
X146118676Y-140540349D02*
X146118676Y-139815657D01*
X180172646Y-123595144D02*
X182989269Y-123595144D01*
X166696613Y-137071177D02*
X180172646Y-123595144D01*
X182989269Y-120485515D02*
X182989269Y-123595144D01*
X186734710Y-116740074D02*
X182989269Y-120485515D01*
X186734710Y-116144791D02*
X186734710Y-116740074D01*
X192500000Y-104250000D02*
X189460000Y-104250000D01*
X186565282Y-113689780D02*
X186047032Y-114208030D01*
X189460000Y-104250000D02*
X186565282Y-107144718D01*
X186565282Y-107144718D02*
X186565282Y-113689780D01*
X186047032Y-114208030D02*
X186047032Y-115457113D01*
X186047032Y-115457113D02*
X186734710Y-116144791D01*
D16*
G36*
X152559183Y-54634681D02*
G01*
X155166371Y-54857224D01*
X157756392Y-55229474D01*
X160320703Y-55750201D01*
X162850793Y-56417678D01*
X165338250Y-57229687D01*
X167774855Y-58183541D01*
X170152491Y-59276067D01*
X172463316Y-60503659D01*
X174699638Y-61862230D01*
X176854041Y-63347277D01*
X178919393Y-64953883D01*
X180888840Y-66676717D01*
X182755842Y-68510056D01*
X184514208Y-70447824D01*
X186158127Y-72483613D01*
X187682125Y-74610650D01*
X189081146Y-76821870D01*
X190350572Y-79109980D01*
X191486181Y-81467370D01*
X192484202Y-83886207D01*
X193341329Y-86358489D01*
X194056024Y-88880604D01*
X194339999Y-90077239D01*
X194339999Y-94362882D01*
X192785750Y-94365000D01*
X192627000Y-94523750D01*
X192627000Y-95623000D01*
X194339999Y-95623000D01*
X194339999Y-95877000D01*
X192627000Y-95877000D01*
X192627000Y-96976250D01*
X192785750Y-97135000D01*
X194339999Y-97137118D01*
X194339999Y-98611928D01*
X193375683Y-98611928D01*
X193372195Y-98576510D01*
X193321589Y-98409687D01*
X193239411Y-98255941D01*
X193128817Y-98121183D01*
X193095044Y-98093466D01*
X192656534Y-97654956D01*
X192628817Y-97621183D01*
X192494059Y-97510589D01*
X192340313Y-97428411D01*
X192173490Y-97377805D01*
X192043477Y-97365000D01*
X192043469Y-97365000D01*
X192000000Y-97360719D01*
X191956531Y-97365000D01*
X189288454Y-97365000D01*
X189240256Y-97332795D01*
X189051898Y-97254774D01*
X188851939Y-97215000D01*
X188648061Y-97215000D01*
X188448102Y-97254774D01*
X188259744Y-97332795D01*
X188250000Y-97339306D01*
X188240256Y-97332795D01*
X188051898Y-97254774D01*
X187851939Y-97215000D01*
X187648061Y-97215000D01*
X187448102Y-97254774D01*
X187259744Y-97332795D01*
X187170484Y-97392436D01*
X187116363Y-96518088D01*
X187115660Y-96510644D01*
X187115269Y-96503154D01*
X187114936Y-96500000D01*
X189321928Y-96500000D01*
X189334188Y-96624482D01*
X189370498Y-96744180D01*
X189429463Y-96854494D01*
X189508815Y-96951185D01*
X189605506Y-97030537D01*
X189715820Y-97089502D01*
X189835518Y-97125812D01*
X189960000Y-97138072D01*
X192214250Y-97135000D01*
X192373000Y-96976250D01*
X192373000Y-95877000D01*
X189483750Y-95877000D01*
X189325000Y-96035750D01*
X189321928Y-96500000D01*
X187114936Y-96500000D01*
X187112359Y-96475663D01*
X186924840Y-95000000D01*
X189321928Y-95000000D01*
X189325000Y-95464250D01*
X189483750Y-95623000D01*
X192373000Y-95623000D01*
X192373000Y-94523750D01*
X192214250Y-94365000D01*
X189960000Y-94361928D01*
X189835518Y-94374188D01*
X189715820Y-94410498D01*
X189605506Y-94469463D01*
X189508815Y-94548815D01*
X189429463Y-94645506D01*
X189370498Y-94755820D01*
X189334188Y-94875518D01*
X189321928Y-95000000D01*
X186924840Y-95000000D01*
X186814303Y-94130141D01*
X186813120Y-94122747D01*
X186812247Y-94115308D01*
X186807569Y-94088063D01*
X186358772Y-91766664D01*
X186357115Y-91759366D01*
X186355763Y-91751994D01*
X186349337Y-91725108D01*
X185751671Y-89437510D01*
X185749547Y-89430337D01*
X185747722Y-89423066D01*
X185739574Y-89396650D01*
X184995529Y-87152388D01*
X184992938Y-87145343D01*
X184990655Y-87138229D01*
X184980820Y-87112394D01*
X184093499Y-84920826D01*
X184090466Y-84913980D01*
X184087722Y-84907010D01*
X184076240Y-84881863D01*
X183478120Y-83641389D01*
X186534447Y-83641389D01*
X186606343Y-83921578D01*
X186650403Y-84038645D01*
X186716456Y-84144867D01*
X186801963Y-84236161D01*
X186903637Y-84309019D01*
X186997644Y-84351613D01*
X186992704Y-84358507D01*
X186920855Y-84517081D01*
X186881323Y-84686626D01*
X186875626Y-84860625D01*
X186903985Y-85032392D01*
X187072218Y-85660246D01*
X187133542Y-85823180D01*
X187225475Y-85971020D01*
X187344483Y-86098083D01*
X187395580Y-86134699D01*
X187395581Y-88134934D01*
X187391299Y-88178413D01*
X187408385Y-88351903D01*
X187458992Y-88518726D01*
X187541170Y-88672472D01*
X187624048Y-88773459D01*
X187624051Y-88773462D01*
X187651764Y-88807230D01*
X187685531Y-88834942D01*
X187902944Y-89052355D01*
X188367270Y-90785244D01*
X188411331Y-90902311D01*
X188477383Y-91008533D01*
X188562890Y-91099827D01*
X188664564Y-91172686D01*
X188778498Y-91224309D01*
X188900315Y-91252712D01*
X189025332Y-91256805D01*
X189148745Y-91236429D01*
X190887411Y-90770555D01*
X191004478Y-90726494D01*
X191110700Y-90660442D01*
X191201994Y-90574935D01*
X191274853Y-90473261D01*
X191326476Y-90359327D01*
X191354879Y-90237510D01*
X191355307Y-90224437D01*
X191625705Y-90336440D01*
X191922264Y-90395429D01*
X192224632Y-90395429D01*
X192521191Y-90336440D01*
X192800543Y-90220728D01*
X193051953Y-90052741D01*
X193265760Y-89838934D01*
X193433747Y-89587524D01*
X193549459Y-89308172D01*
X193608448Y-89011613D01*
X193608448Y-88709245D01*
X193549459Y-88412686D01*
X193433747Y-88133334D01*
X193265760Y-87881924D01*
X193051953Y-87668117D01*
X192800543Y-87500130D01*
X192521191Y-87384418D01*
X192224632Y-87325429D01*
X191922264Y-87325429D01*
X191625705Y-87384418D01*
X191346353Y-87500130D01*
X191094943Y-87668117D01*
X190881136Y-87881924D01*
X190772976Y-88043797D01*
X190762609Y-88027125D01*
X190677102Y-87935831D01*
X190575428Y-87862972D01*
X190461494Y-87811349D01*
X190339677Y-87782946D01*
X190214660Y-87778853D01*
X190091247Y-87799229D01*
X189351255Y-87997509D01*
X189165580Y-87811835D01*
X189165580Y-86003944D01*
X189192148Y-85993945D01*
X189339987Y-85902012D01*
X189467051Y-85783004D01*
X189568456Y-85641493D01*
X189640305Y-85482919D01*
X189679837Y-85313374D01*
X189685534Y-85139375D01*
X189657175Y-84967608D01*
X189488942Y-84339754D01*
X189427618Y-84176820D01*
X189335685Y-84028980D01*
X189216677Y-83901917D01*
X189075166Y-83800512D01*
X189067441Y-83797012D01*
X189127556Y-83713122D01*
X189179178Y-83599188D01*
X189207583Y-83477371D01*
X189211675Y-83352354D01*
X189191299Y-83228941D01*
X189113469Y-82950342D01*
X188919040Y-82838089D01*
X187905543Y-83109655D01*
X187910719Y-83128973D01*
X187665373Y-83194714D01*
X187660197Y-83175395D01*
X186646700Y-83446960D01*
X186534447Y-83641389D01*
X183478120Y-83641389D01*
X183049341Y-82752124D01*
X183045872Y-82745487D01*
X183042685Y-82738711D01*
X183029604Y-82714357D01*
X183014361Y-82687350D01*
X186288325Y-82687350D01*
X186308701Y-82810763D01*
X186386531Y-83089362D01*
X186580960Y-83201615D01*
X187594457Y-82930049D01*
X187355244Y-82037292D01*
X187241379Y-81971552D01*
X187600589Y-81971552D01*
X187839803Y-82864309D01*
X188853300Y-82592744D01*
X188965553Y-82398315D01*
X188893657Y-82118126D01*
X188849597Y-82001059D01*
X188783544Y-81894837D01*
X188698037Y-81803543D01*
X188596363Y-81730685D01*
X188482429Y-81679062D01*
X188360613Y-81650658D01*
X188235595Y-81646565D01*
X188112182Y-81666941D01*
X187712842Y-81777124D01*
X187600589Y-81971552D01*
X187241379Y-81971552D01*
X187160816Y-81925039D01*
X186759886Y-82029288D01*
X186642819Y-82073348D01*
X186536597Y-82139401D01*
X186445303Y-82224908D01*
X186372444Y-82326582D01*
X186320822Y-82440516D01*
X186292417Y-82562333D01*
X186288325Y-82687350D01*
X183014361Y-82687350D01*
X181867408Y-80655325D01*
X181863517Y-80648924D01*
X181859900Y-80642369D01*
X181845275Y-80618910D01*
X180568936Y-78664146D01*
X180552452Y-78633097D01*
X180470256Y-78532369D01*
X180369989Y-78449611D01*
X180255504Y-78388005D01*
X180131201Y-78349917D01*
X180034264Y-78340096D01*
X176977797Y-78331542D01*
X176880806Y-78340821D01*
X176756291Y-78378213D01*
X176641463Y-78439177D01*
X176540735Y-78521372D01*
X176540054Y-78522197D01*
X175999615Y-78966118D01*
X175383944Y-79296238D01*
X174715877Y-79500487D01*
X174020865Y-79571083D01*
X173325373Y-79505340D01*
X172655898Y-79305760D01*
X172037933Y-78979944D01*
X171495028Y-78540308D01*
X171047853Y-78003592D01*
X170713445Y-77390243D01*
X170504538Y-76723617D01*
X170429091Y-76029113D01*
X170464879Y-75620051D01*
X170606631Y-75620051D01*
X170606631Y-76296687D01*
X170738637Y-76960321D01*
X170997574Y-77585451D01*
X171373493Y-78148054D01*
X171851946Y-78626507D01*
X172414549Y-79002426D01*
X173039679Y-79261363D01*
X173703313Y-79393369D01*
X174379949Y-79393369D01*
X175043583Y-79261363D01*
X175668713Y-79002426D01*
X176231316Y-78626507D01*
X176709769Y-78148054D01*
X177085688Y-77585451D01*
X177344625Y-76960321D01*
X177476631Y-76296687D01*
X177476631Y-75620051D01*
X177344625Y-74956417D01*
X177085688Y-74331287D01*
X176709769Y-73768684D01*
X176231316Y-73290231D01*
X175668713Y-72914312D01*
X175043583Y-72655375D01*
X174379949Y-72523369D01*
X173703313Y-72523369D01*
X173039679Y-72655375D01*
X172414549Y-72914312D01*
X171851946Y-73290231D01*
X171373493Y-73768684D01*
X170997574Y-74331287D01*
X170738637Y-74956417D01*
X170606631Y-75620051D01*
X170464879Y-75620051D01*
X170489977Y-75333178D01*
X170684878Y-74662326D01*
X171006369Y-74042108D01*
X171458163Y-73476156D01*
X171478627Y-73459265D01*
X171560822Y-73358537D01*
X171621786Y-73243709D01*
X171659178Y-73119193D01*
X171668457Y-73022203D01*
X171659905Y-69965736D01*
X171650084Y-69868799D01*
X171611996Y-69744495D01*
X171550390Y-69630010D01*
X171509294Y-69580218D01*
X171509271Y-69580189D01*
X171509246Y-69580160D01*
X171467633Y-69529743D01*
X171366904Y-69447548D01*
X171336666Y-69431494D01*
X169554888Y-68261084D01*
X169549273Y-68257650D01*
X169543822Y-68253972D01*
X169520116Y-68239751D01*
X169340308Y-68136949D01*
X172523506Y-68136949D01*
X172523506Y-68361455D01*
X172725865Y-68568158D01*
X172822556Y-68647511D01*
X172932870Y-68706475D01*
X173052568Y-68742785D01*
X173177050Y-68755045D01*
X173279757Y-68744929D01*
X173278926Y-68753368D01*
X173295990Y-68926622D01*
X173346526Y-69093218D01*
X173428593Y-69246754D01*
X173539036Y-69381329D01*
X173998657Y-69840950D01*
X174133232Y-69951393D01*
X174286768Y-70033460D01*
X174453364Y-70083996D01*
X174626618Y-70101060D01*
X174799872Y-70083996D01*
X174966468Y-70033460D01*
X175110716Y-69956358D01*
X176548320Y-71393962D01*
X176537713Y-71404569D01*
X176458361Y-71501260D01*
X176399396Y-71611574D01*
X176363086Y-71731272D01*
X176350826Y-71855754D01*
X176363086Y-71980236D01*
X176399396Y-72099934D01*
X176458361Y-72210248D01*
X176537713Y-72306939D01*
X177810505Y-73579731D01*
X177907196Y-73659083D01*
X178017510Y-73718048D01*
X178137208Y-73754358D01*
X178261690Y-73766618D01*
X178386172Y-73754358D01*
X178505870Y-73718048D01*
X178616184Y-73659083D01*
X178712875Y-73579731D01*
X179985667Y-72306939D01*
X180065019Y-72210248D01*
X180123984Y-72099934D01*
X180160294Y-71980236D01*
X180172554Y-71855754D01*
X180160294Y-71731272D01*
X180123984Y-71611574D01*
X180114966Y-71594703D01*
X180208925Y-71594703D01*
X180505484Y-71535714D01*
X180784836Y-71420002D01*
X181036246Y-71252015D01*
X181250053Y-71038208D01*
X181418040Y-70786798D01*
X181533752Y-70507446D01*
X181592741Y-70210887D01*
X181592741Y-69908519D01*
X181533752Y-69611960D01*
X181418040Y-69332608D01*
X181250053Y-69081198D01*
X181036246Y-68867391D01*
X180784836Y-68699404D01*
X180505484Y-68583692D01*
X180208925Y-68524703D01*
X179906557Y-68524703D01*
X179609998Y-68583692D01*
X179330646Y-68699404D01*
X179079236Y-68867391D01*
X178865429Y-69081198D01*
X178697442Y-69332608D01*
X178581730Y-69611960D01*
X178522741Y-69908519D01*
X178522741Y-70002478D01*
X178505870Y-69993460D01*
X178386172Y-69957150D01*
X178261690Y-69944890D01*
X178137208Y-69957150D01*
X178017510Y-69993460D01*
X177907196Y-70052425D01*
X177810505Y-70131777D01*
X177799898Y-70142384D01*
X176142016Y-68484502D01*
X176134022Y-68403338D01*
X176083486Y-68236742D01*
X176001419Y-68083206D01*
X175890976Y-67948631D01*
X175431355Y-67489010D01*
X175296780Y-67378567D01*
X175143244Y-67296500D01*
X174976648Y-67245964D01*
X174803394Y-67228900D01*
X174794955Y-67229731D01*
X174805071Y-67127024D01*
X174792811Y-67002542D01*
X174756501Y-66882844D01*
X174697537Y-66772530D01*
X174618184Y-66675839D01*
X174411481Y-66473480D01*
X174186975Y-66473480D01*
X173445043Y-67215412D01*
X173459186Y-67229555D01*
X173279581Y-67409160D01*
X173265438Y-67395017D01*
X172523506Y-68136949D01*
X169340308Y-68136949D01*
X167883071Y-67303800D01*
X171725805Y-67303800D01*
X171738065Y-67428282D01*
X171774375Y-67547980D01*
X171833339Y-67658294D01*
X171912692Y-67754985D01*
X172119395Y-67957344D01*
X172343901Y-67957344D01*
X173085833Y-67215412D01*
X172432289Y-66561869D01*
X172207783Y-66561869D01*
X171912692Y-66852615D01*
X171833339Y-66949307D01*
X171774375Y-67059621D01*
X171738065Y-67179319D01*
X171725805Y-67303800D01*
X167883071Y-67303800D01*
X167467524Y-67066219D01*
X167460894Y-67062708D01*
X167454440Y-67058935D01*
X167429866Y-67046274D01*
X165612804Y-66157757D01*
X172611895Y-66157757D01*
X172611895Y-66382263D01*
X173265438Y-67035807D01*
X174007370Y-66293875D01*
X174007370Y-66069369D01*
X173805011Y-65862666D01*
X173708320Y-65783313D01*
X173598006Y-65724349D01*
X173478308Y-65688039D01*
X173353826Y-65675779D01*
X173229345Y-65688039D01*
X173109647Y-65724349D01*
X172999333Y-65783313D01*
X172902641Y-65862666D01*
X172611895Y-66157757D01*
X165612804Y-66157757D01*
X165305821Y-66007647D01*
X165298993Y-66004577D01*
X165292295Y-66001222D01*
X165266955Y-65990173D01*
X163080313Y-65090779D01*
X163073286Y-65088151D01*
X163066400Y-65085241D01*
X163040400Y-65075850D01*
X160800276Y-64319441D01*
X160793099Y-64317273D01*
X160786035Y-64314812D01*
X160759483Y-64307119D01*
X158475216Y-63696846D01*
X158467927Y-63695149D01*
X158460706Y-63693145D01*
X158433731Y-63687186D01*
X158433713Y-63687182D01*
X158433707Y-63687181D01*
X156114824Y-63225591D01*
X156107441Y-63224368D01*
X156100105Y-63222834D01*
X156072797Y-63218627D01*
X156072784Y-63218625D01*
X156072780Y-63218625D01*
X153728940Y-62907639D01*
X153721491Y-62906894D01*
X153714075Y-62905838D01*
X153686538Y-62903401D01*
X151327512Y-62744317D01*
X151320029Y-62744055D01*
X151312561Y-62743479D01*
X151284925Y-62742824D01*
X148920550Y-62736304D01*
X148913075Y-62736525D01*
X148905576Y-62736432D01*
X148877955Y-62737562D01*
X146518088Y-62883635D01*
X146510644Y-62884338D01*
X146503154Y-62884729D01*
X146475663Y-62887639D01*
X144130141Y-63185695D01*
X144122747Y-63186878D01*
X144115308Y-63187751D01*
X144088063Y-63192429D01*
X141766664Y-63641226D01*
X141759361Y-63642884D01*
X141751995Y-63644235D01*
X141725108Y-63650661D01*
X139437510Y-64248328D01*
X139430337Y-64250452D01*
X139423066Y-64252277D01*
X139396650Y-64260425D01*
X137152387Y-65004470D01*
X137145342Y-65007061D01*
X137138228Y-65009344D01*
X137112393Y-65019179D01*
X134920825Y-65906500D01*
X134913979Y-65909533D01*
X134907009Y-65912277D01*
X134881862Y-65923759D01*
X132752123Y-66950658D01*
X132745486Y-66954127D01*
X132738710Y-66957314D01*
X132714356Y-66970395D01*
X130655324Y-68132591D01*
X130648923Y-68136482D01*
X130642368Y-68140099D01*
X130618909Y-68154724D01*
X128664145Y-69431063D01*
X128633096Y-69447547D01*
X128532368Y-69529743D01*
X128449610Y-69630010D01*
X128388004Y-69744495D01*
X128349916Y-69868799D01*
X128340095Y-69965736D01*
X128331542Y-73022204D01*
X128340821Y-73119194D01*
X128378213Y-73243709D01*
X128439177Y-73358537D01*
X128521372Y-73459265D01*
X128522197Y-73459946D01*
X128966118Y-74000385D01*
X129296239Y-74616057D01*
X129500487Y-75284122D01*
X129571083Y-75979135D01*
X129505340Y-76674627D01*
X129305760Y-77344102D01*
X128979944Y-77962067D01*
X128540308Y-78504972D01*
X128003592Y-78952147D01*
X127390243Y-79286555D01*
X126723617Y-79495462D01*
X126029114Y-79570909D01*
X125333180Y-79510023D01*
X124662326Y-79315122D01*
X124042108Y-78993631D01*
X123476156Y-78541837D01*
X123459265Y-78521373D01*
X123358537Y-78439178D01*
X123243709Y-78378214D01*
X123119193Y-78340822D01*
X123022203Y-78331543D01*
X119965736Y-78340095D01*
X119868799Y-78349916D01*
X119744495Y-78388004D01*
X119630010Y-78449610D01*
X119580218Y-78490706D01*
X119580189Y-78490729D01*
X119580160Y-78490754D01*
X119529743Y-78532367D01*
X119447548Y-78633096D01*
X119431494Y-78663334D01*
X118261084Y-80445112D01*
X118257650Y-80450727D01*
X118253972Y-80456178D01*
X118239751Y-80479884D01*
X117066219Y-82532476D01*
X117062708Y-82539106D01*
X117058935Y-82545560D01*
X117046274Y-82570134D01*
X116007647Y-84694179D01*
X116004577Y-84701007D01*
X116001222Y-84707705D01*
X115990173Y-84733045D01*
X115090779Y-86919687D01*
X115088151Y-86926714D01*
X115085241Y-86933600D01*
X115075850Y-86959600D01*
X114319441Y-89199724D01*
X114317273Y-89206901D01*
X114314812Y-89213965D01*
X114307119Y-89240517D01*
X113696846Y-91524784D01*
X113695149Y-91532073D01*
X113693145Y-91539294D01*
X113687182Y-91566288D01*
X113225591Y-93885176D01*
X113224368Y-93892559D01*
X113222834Y-93899895D01*
X113218625Y-93927217D01*
X112907639Y-96271060D01*
X112906894Y-96278509D01*
X112905838Y-96285925D01*
X112903401Y-96313462D01*
X112744317Y-98672488D01*
X112744055Y-98679971D01*
X112743479Y-98687439D01*
X112742824Y-98715075D01*
X112736304Y-101079450D01*
X112736525Y-101086925D01*
X112736432Y-101094424D01*
X112737562Y-101122045D01*
X112883635Y-103481913D01*
X112884338Y-103489357D01*
X112884729Y-103496847D01*
X112887639Y-103524337D01*
X113185695Y-105869859D01*
X113186878Y-105877249D01*
X113187751Y-105884692D01*
X113192429Y-105911937D01*
X113641226Y-108233336D01*
X113642884Y-108240639D01*
X113644235Y-108248005D01*
X113650661Y-108274892D01*
X114248328Y-110562491D01*
X114250459Y-110569687D01*
X114252278Y-110576934D01*
X114260425Y-110603351D01*
X115004470Y-112847613D01*
X115007061Y-112854658D01*
X115009344Y-112861772D01*
X115019179Y-112887607D01*
X115906500Y-115079175D01*
X115909536Y-115086028D01*
X115912277Y-115092990D01*
X115923759Y-115118137D01*
X116950658Y-117247877D01*
X116954130Y-117254519D01*
X116957315Y-117261291D01*
X116970396Y-117285644D01*
X118132591Y-119344676D01*
X118136483Y-119351079D01*
X118140099Y-119357632D01*
X118154724Y-119381091D01*
X119431571Y-121336634D01*
X119448576Y-121368448D01*
X119531053Y-121468946D01*
X119631551Y-121551423D01*
X119746208Y-121612708D01*
X119870618Y-121650448D01*
X119967582Y-121659998D01*
X123032419Y-121660001D01*
X123129383Y-121650451D01*
X123253793Y-121612711D01*
X123368450Y-121551426D01*
X123418800Y-121510104D01*
X123418923Y-121510005D01*
X123420763Y-121508494D01*
X123468948Y-121468949D01*
X123469036Y-121468842D01*
X124008754Y-121025513D01*
X124624426Y-120695392D01*
X125292491Y-120491144D01*
X125987504Y-120420548D01*
X126682996Y-120486291D01*
X127352471Y-120685871D01*
X127970434Y-121011685D01*
X128513339Y-121451321D01*
X128960516Y-121988040D01*
X129294923Y-122601387D01*
X129503831Y-123268014D01*
X129579278Y-123962517D01*
X129518392Y-124658451D01*
X129323491Y-125329305D01*
X129002000Y-125949523D01*
X128550535Y-126515064D01*
X128531052Y-126531053D01*
X128448575Y-126631551D01*
X128387290Y-126746208D01*
X128349550Y-126870618D01*
X128340000Y-126967582D01*
X128340002Y-130032418D01*
X128349552Y-130129382D01*
X128387292Y-130253792D01*
X128448577Y-130368449D01*
X128531054Y-130468947D01*
X128581055Y-130509982D01*
X128581079Y-130510003D01*
X128581105Y-130510023D01*
X128631552Y-130551424D01*
X128662564Y-130568000D01*
X130445111Y-131738916D01*
X130450735Y-131742355D01*
X130456178Y-131746028D01*
X130479884Y-131760249D01*
X132532476Y-132933781D01*
X132539109Y-132937294D01*
X132545560Y-132941065D01*
X132570134Y-132953726D01*
X134694179Y-133992353D01*
X134701007Y-133995423D01*
X134707705Y-133998778D01*
X134733045Y-134009827D01*
X136919687Y-134909221D01*
X136926717Y-134911850D01*
X136933600Y-134914759D01*
X136959600Y-134924150D01*
X139199724Y-135680559D01*
X139206901Y-135682727D01*
X139213965Y-135685188D01*
X139240517Y-135692881D01*
X141524783Y-136303154D01*
X141532077Y-136304852D01*
X141539294Y-136306855D01*
X141566268Y-136312814D01*
X141566286Y-136312818D01*
X141566292Y-136312819D01*
X143885176Y-136774409D01*
X143892558Y-136775632D01*
X143899895Y-136777166D01*
X143927203Y-136781373D01*
X143927216Y-136781375D01*
X143927220Y-136781375D01*
X146271059Y-137092361D01*
X146278511Y-137093106D01*
X146285925Y-137094162D01*
X146313453Y-137096598D01*
X146313461Y-137096599D01*
X146313463Y-137096599D01*
X148672488Y-137255683D01*
X148679971Y-137255945D01*
X148687439Y-137256521D01*
X148715075Y-137257176D01*
X151079450Y-137263696D01*
X151086925Y-137263475D01*
X151094424Y-137263568D01*
X151122045Y-137262438D01*
X153481913Y-137116365D01*
X153489357Y-137115662D01*
X153496847Y-137115271D01*
X153524337Y-137112361D01*
X155869859Y-136814305D01*
X155877249Y-136813122D01*
X155884692Y-136812249D01*
X155911937Y-136807571D01*
X158233336Y-136358774D01*
X158240639Y-136357116D01*
X158248005Y-136355765D01*
X158274892Y-136349339D01*
X160562491Y-135751672D01*
X160569687Y-135749541D01*
X160576934Y-135747722D01*
X160603351Y-135739575D01*
X162847613Y-134995530D01*
X162854658Y-134992939D01*
X162861772Y-134990656D01*
X162887607Y-134980821D01*
X165079175Y-134093500D01*
X165086028Y-134090464D01*
X165092990Y-134087723D01*
X165118137Y-134076241D01*
X167247877Y-133049342D01*
X167254519Y-133045870D01*
X167261291Y-133042685D01*
X167285644Y-133029604D01*
X169344676Y-131867409D01*
X169351079Y-131863517D01*
X169357632Y-131859901D01*
X169381091Y-131845276D01*
X171335863Y-130568932D01*
X171366904Y-130552452D01*
X171467632Y-130470257D01*
X171550390Y-130369990D01*
X171611996Y-130255505D01*
X171650084Y-130131201D01*
X171659905Y-130034264D01*
X171664550Y-128374062D01*
X176379829Y-128374062D01*
X176392089Y-128498544D01*
X176428399Y-128618242D01*
X176487364Y-128728556D01*
X176566716Y-128825247D01*
X177839508Y-130098039D01*
X177936199Y-130177391D01*
X178046513Y-130236356D01*
X178166211Y-130272666D01*
X178290693Y-130284926D01*
X178415175Y-130272666D01*
X178534873Y-130236356D01*
X178551744Y-130227338D01*
X178551744Y-130321297D01*
X178610733Y-130617856D01*
X178726445Y-130897208D01*
X178894432Y-131148618D01*
X179108239Y-131362425D01*
X179359649Y-131530412D01*
X179639001Y-131646124D01*
X179935560Y-131705113D01*
X180237928Y-131705113D01*
X180534487Y-131646124D01*
X180813839Y-131530412D01*
X181065249Y-131362425D01*
X181279056Y-131148618D01*
X181447043Y-130897208D01*
X181562755Y-130617856D01*
X181621744Y-130321297D01*
X181621744Y-130018929D01*
X181562755Y-129722370D01*
X181447043Y-129443018D01*
X181279056Y-129191608D01*
X181065249Y-128977801D01*
X180813839Y-128809814D01*
X180534487Y-128694102D01*
X180237928Y-128635113D01*
X180143969Y-128635113D01*
X180152987Y-128618242D01*
X180189297Y-128498544D01*
X180201557Y-128374062D01*
X180189297Y-128249580D01*
X180152987Y-128129882D01*
X180094022Y-128019568D01*
X180014670Y-127922877D01*
X179963892Y-127872099D01*
X181391482Y-126444510D01*
X181454835Y-126463728D01*
X181628089Y-126480792D01*
X181801343Y-126463728D01*
X181967939Y-126413192D01*
X182121475Y-126331125D01*
X182256050Y-126220682D01*
X182715671Y-125761061D01*
X182826114Y-125626486D01*
X182908181Y-125472950D01*
X182958717Y-125306354D01*
X182975781Y-125133100D01*
X182974950Y-125124661D01*
X183077657Y-125134777D01*
X183202139Y-125122517D01*
X183321837Y-125086207D01*
X183432151Y-125027243D01*
X183528842Y-124947890D01*
X183731201Y-124741187D01*
X183731201Y-124516681D01*
X182989269Y-123774749D01*
X182975127Y-123788892D01*
X182795522Y-123609287D01*
X182809664Y-123595144D01*
X183168874Y-123595144D01*
X183910806Y-124337076D01*
X184135312Y-124337076D01*
X184342015Y-124134717D01*
X184421368Y-124038026D01*
X184480332Y-123927712D01*
X184516642Y-123808014D01*
X184528902Y-123683532D01*
X184516642Y-123559051D01*
X184480332Y-123439353D01*
X184421368Y-123329039D01*
X184342015Y-123232347D01*
X184046924Y-122941601D01*
X183822418Y-122941601D01*
X183168874Y-123595144D01*
X182809664Y-123595144D01*
X182067732Y-122853212D01*
X181843226Y-122853212D01*
X181636523Y-123055571D01*
X181557170Y-123152262D01*
X181498206Y-123262576D01*
X181461896Y-123382274D01*
X181449636Y-123506756D01*
X181459752Y-123609463D01*
X181451313Y-123608632D01*
X181278059Y-123625696D01*
X181111463Y-123676232D01*
X180957927Y-123758299D01*
X180823352Y-123868742D01*
X180363731Y-124328363D01*
X180253288Y-124462938D01*
X180171221Y-124616474D01*
X180120685Y-124783070D01*
X180103621Y-124956324D01*
X180120685Y-125129578D01*
X180139903Y-125192931D01*
X178709402Y-126623433D01*
X178645187Y-126570733D01*
X178534873Y-126511768D01*
X178415175Y-126475458D01*
X178290693Y-126463198D01*
X178166211Y-126475458D01*
X178046513Y-126511768D01*
X177936199Y-126570733D01*
X177839508Y-126650085D01*
X176566716Y-127922877D01*
X176487364Y-128019568D01*
X176428399Y-128129882D01*
X176392089Y-128249580D01*
X176379829Y-128374062D01*
X171664550Y-128374062D01*
X171668458Y-126977796D01*
X171659179Y-126880806D01*
X171621787Y-126756291D01*
X171560823Y-126641463D01*
X171478628Y-126540734D01*
X171477801Y-126540051D01*
X171033882Y-125999615D01*
X170703762Y-125383944D01*
X170499513Y-124715877D01*
X170428917Y-124020865D01*
X170458934Y-123703313D01*
X170606631Y-123703313D01*
X170606631Y-124379949D01*
X170738637Y-125043583D01*
X170997574Y-125668713D01*
X171373493Y-126231316D01*
X171851946Y-126709769D01*
X172414549Y-127085688D01*
X173039679Y-127344625D01*
X173703313Y-127476631D01*
X174379949Y-127476631D01*
X175043583Y-127344625D01*
X175668713Y-127085688D01*
X176231316Y-126709769D01*
X176709769Y-126231316D01*
X177085688Y-125668713D01*
X177344625Y-125043583D01*
X177476631Y-124379949D01*
X177476631Y-123703313D01*
X177344625Y-123039679D01*
X177100000Y-122449101D01*
X182247337Y-122449101D01*
X182247337Y-122673607D01*
X182989269Y-123415539D01*
X183642812Y-122761995D01*
X183642812Y-122537489D01*
X183352066Y-122242398D01*
X183255374Y-122163045D01*
X183145060Y-122104081D01*
X183025362Y-122067771D01*
X182900881Y-122055511D01*
X182776399Y-122067771D01*
X182656701Y-122104081D01*
X182546387Y-122163045D01*
X182449696Y-122242398D01*
X182247337Y-122449101D01*
X177100000Y-122449101D01*
X177085688Y-122414549D01*
X176709769Y-121851946D01*
X176231316Y-121373493D01*
X175668713Y-120997574D01*
X175043583Y-120738637D01*
X174379949Y-120606631D01*
X173703313Y-120606631D01*
X173039679Y-120738637D01*
X172414549Y-120997574D01*
X171851946Y-121373493D01*
X171373493Y-121851946D01*
X170997574Y-122414549D01*
X170738637Y-123039679D01*
X170606631Y-123703313D01*
X170458934Y-123703313D01*
X170494660Y-123325373D01*
X170694240Y-122655898D01*
X171020054Y-122037935D01*
X171459690Y-121495030D01*
X171996409Y-121047853D01*
X172609756Y-120713446D01*
X173276383Y-120504538D01*
X173970887Y-120429091D01*
X174666822Y-120489977D01*
X175337674Y-120684878D01*
X175957892Y-121006369D01*
X176523847Y-121458165D01*
X176540736Y-121478627D01*
X176641464Y-121560822D01*
X176756292Y-121621786D01*
X176880807Y-121659178D01*
X176977797Y-121668457D01*
X180034263Y-121659904D01*
X180131200Y-121650083D01*
X180255504Y-121611995D01*
X180369989Y-121550389D01*
X180419772Y-121509300D01*
X180419810Y-121509270D01*
X180419848Y-121509237D01*
X180470256Y-121467631D01*
X180552452Y-121366903D01*
X180568510Y-121336657D01*
X181738914Y-119554887D01*
X181742348Y-119549272D01*
X181746026Y-119543821D01*
X181760247Y-119520115D01*
X182933779Y-117467523D01*
X182937292Y-117460890D01*
X182941063Y-117454439D01*
X182953724Y-117429865D01*
X183128433Y-117072576D01*
X185273035Y-117072576D01*
X185277127Y-117197593D01*
X185305532Y-117319410D01*
X185357154Y-117433344D01*
X185430013Y-117535018D01*
X185521307Y-117620525D01*
X185627529Y-117686578D01*
X185744596Y-117730638D01*
X186145526Y-117834887D01*
X186226088Y-117788374D01*
X186585299Y-117788374D01*
X186697552Y-117982802D01*
X187096892Y-118092985D01*
X187220305Y-118113361D01*
X187345323Y-118109268D01*
X187467139Y-118080864D01*
X187581073Y-118029241D01*
X187682747Y-117956383D01*
X187768254Y-117865089D01*
X187834307Y-117758867D01*
X187878367Y-117641800D01*
X187950263Y-117361611D01*
X187838010Y-117167182D01*
X186824513Y-116895617D01*
X186585299Y-117788374D01*
X186226088Y-117788374D01*
X186339954Y-117722634D01*
X186579167Y-116829877D01*
X185565670Y-116558311D01*
X185371241Y-116670564D01*
X185293411Y-116949163D01*
X185273035Y-117072576D01*
X183128433Y-117072576D01*
X183594945Y-116118537D01*
X185519157Y-116118537D01*
X185631410Y-116312966D01*
X186644907Y-116584531D01*
X186650083Y-116565212D01*
X186895429Y-116630953D01*
X186890253Y-116650271D01*
X187903750Y-116921837D01*
X188098179Y-116809584D01*
X188176009Y-116530985D01*
X188196385Y-116407572D01*
X188192293Y-116282555D01*
X188163888Y-116160738D01*
X188112266Y-116046804D01*
X188052151Y-115962914D01*
X188059876Y-115959414D01*
X188201387Y-115858009D01*
X188320395Y-115730945D01*
X188412328Y-115583106D01*
X188473652Y-115420172D01*
X188641885Y-114792318D01*
X188670244Y-114620551D01*
X188664547Y-114446552D01*
X188625015Y-114277007D01*
X188553166Y-114118433D01*
X188451761Y-113976922D01*
X188324698Y-113857914D01*
X188176858Y-113765981D01*
X188150290Y-113755982D01*
X188150290Y-112208527D01*
X188345711Y-112013107D01*
X189085703Y-112211387D01*
X189209116Y-112231763D01*
X189334133Y-112227670D01*
X189455950Y-112199267D01*
X189569884Y-112147644D01*
X189671558Y-112074785D01*
X189757065Y-111983491D01*
X189767432Y-111966819D01*
X189875592Y-112128692D01*
X190089399Y-112342499D01*
X190340809Y-112510486D01*
X190620161Y-112626198D01*
X190916720Y-112685187D01*
X191219088Y-112685187D01*
X191515647Y-112626198D01*
X191794999Y-112510486D01*
X192046409Y-112342499D01*
X192260216Y-112128692D01*
X192428203Y-111877282D01*
X192543915Y-111597930D01*
X192602904Y-111301371D01*
X192602904Y-110999003D01*
X192543915Y-110702444D01*
X192428203Y-110423092D01*
X192260216Y-110171682D01*
X192046409Y-109957875D01*
X191794999Y-109789888D01*
X191515647Y-109674176D01*
X191219088Y-109615187D01*
X190916720Y-109615187D01*
X190620161Y-109674176D01*
X190349763Y-109786179D01*
X190349335Y-109773106D01*
X190320932Y-109651289D01*
X190269309Y-109537355D01*
X190196450Y-109435681D01*
X190105156Y-109350174D01*
X189998934Y-109284122D01*
X189881867Y-109240061D01*
X188143201Y-108774187D01*
X188019788Y-108753811D01*
X187894771Y-108757904D01*
X187772954Y-108786307D01*
X187659020Y-108837930D01*
X187557346Y-108910789D01*
X187471839Y-109002083D01*
X187405787Y-109108305D01*
X187361726Y-109225372D01*
X186897400Y-110958261D01*
X186670241Y-111185420D01*
X186636474Y-111213132D01*
X186608761Y-111246900D01*
X186608758Y-111246903D01*
X186525880Y-111347890D01*
X186443702Y-111501636D01*
X186393095Y-111668459D01*
X186376009Y-111841949D01*
X186380291Y-111885428D01*
X186380290Y-113625227D01*
X186329193Y-113661843D01*
X186210185Y-113788907D01*
X186118252Y-113936746D01*
X186056928Y-114099680D01*
X185888695Y-114727534D01*
X185860336Y-114899301D01*
X185866033Y-115073300D01*
X185905565Y-115242845D01*
X185977414Y-115401419D01*
X185982354Y-115408313D01*
X185888347Y-115450907D01*
X185786673Y-115523765D01*
X185701166Y-115615059D01*
X185635113Y-115721281D01*
X185591053Y-115838348D01*
X185519157Y-116118537D01*
X183594945Y-116118537D01*
X183992352Y-115305821D01*
X183995422Y-115298993D01*
X183998777Y-115292295D01*
X184009826Y-115266955D01*
X184909219Y-113080313D01*
X184911847Y-113073286D01*
X184914757Y-113066400D01*
X184924148Y-113040400D01*
X185680558Y-110800276D01*
X185682726Y-110793099D01*
X185685187Y-110786035D01*
X185692880Y-110759483D01*
X186303152Y-108475216D01*
X186304849Y-108467928D01*
X186306853Y-108460706D01*
X186312816Y-108433713D01*
X186774408Y-106114824D01*
X186775631Y-106107442D01*
X186777165Y-106100105D01*
X186781374Y-106072783D01*
X186923713Y-105000000D01*
X189321928Y-105000000D01*
X189334188Y-105124482D01*
X189370498Y-105244180D01*
X189429463Y-105354494D01*
X189508815Y-105451185D01*
X189605506Y-105530537D01*
X189715820Y-105589502D01*
X189835518Y-105625812D01*
X189960000Y-105638072D01*
X192214250Y-105635000D01*
X192373000Y-105476250D01*
X192373000Y-104377000D01*
X189483750Y-104377000D01*
X189325000Y-104535750D01*
X189321928Y-105000000D01*
X186923713Y-105000000D01*
X187092360Y-103728941D01*
X187093105Y-103721489D01*
X187094161Y-103714075D01*
X187096598Y-103686538D01*
X187109177Y-103500000D01*
X189321928Y-103500000D01*
X189325000Y-103964250D01*
X189483750Y-104123000D01*
X192373000Y-104123000D01*
X192373000Y-103023750D01*
X192214250Y-102865000D01*
X189960000Y-102861928D01*
X189835518Y-102874188D01*
X189715820Y-102910498D01*
X189605506Y-102969463D01*
X189508815Y-103048815D01*
X189429463Y-103145506D01*
X189370498Y-103255820D01*
X189334188Y-103375518D01*
X189321928Y-103500000D01*
X187109177Y-103500000D01*
X187185541Y-102367624D01*
X187259744Y-102417205D01*
X187448102Y-102495226D01*
X187648061Y-102535000D01*
X187851939Y-102535000D01*
X188051898Y-102495226D01*
X188240256Y-102417205D01*
X188250000Y-102410694D01*
X188259744Y-102417205D01*
X188448102Y-102495226D01*
X188648061Y-102535000D01*
X188851939Y-102535000D01*
X189051898Y-102495226D01*
X189240256Y-102417205D01*
X189288454Y-102385000D01*
X192206531Y-102385000D01*
X192250000Y-102389281D01*
X192293469Y-102385000D01*
X192293477Y-102385000D01*
X192423490Y-102372195D01*
X192590313Y-102321589D01*
X192744059Y-102239411D01*
X192878817Y-102128817D01*
X192906534Y-102095044D01*
X193095044Y-101906534D01*
X193128817Y-101878817D01*
X193239411Y-101744059D01*
X193321589Y-101590313D01*
X193372195Y-101423490D01*
X193375683Y-101388072D01*
X194340000Y-101388072D01*
X194340000Y-102862882D01*
X192785750Y-102865000D01*
X192627000Y-103023750D01*
X192627000Y-104123000D01*
X194340000Y-104123000D01*
X194340000Y-104377000D01*
X192627000Y-104377000D01*
X192627000Y-105476250D01*
X192785750Y-105635000D01*
X194340000Y-105637118D01*
X194340000Y-109917912D01*
X193714504Y-112393696D01*
X192928584Y-114889535D01*
X192000298Y-117335994D01*
X190932733Y-119724934D01*
X189729401Y-122048501D01*
X188394324Y-124298920D01*
X186931925Y-126468747D01*
X185347040Y-128550804D01*
X183644922Y-130538187D01*
X181831230Y-132424288D01*
X179911977Y-134202854D01*
X177893526Y-135867991D01*
X175782548Y-137414192D01*
X173586106Y-138836288D01*
X171311418Y-140129603D01*
X168966053Y-141289835D01*
X166557793Y-142313132D01*
X164094627Y-143196101D01*
X161584726Y-143935814D01*
X159036381Y-144529826D01*
X156458079Y-144976158D01*
X153858355Y-145273334D01*
X151245848Y-145420365D01*
X148629218Y-145416765D01*
X146017101Y-145262547D01*
X143418210Y-144958221D01*
X140841163Y-144504802D01*
X138294463Y-143903782D01*
X135786590Y-143157162D01*
X133325867Y-142267422D01*
X130920431Y-141237504D01*
X130502035Y-141029092D01*
X137461260Y-141029092D01*
X137461260Y-141331460D01*
X137520249Y-141628019D01*
X137635961Y-141907371D01*
X137803948Y-142158781D01*
X138017755Y-142372588D01*
X138269165Y-142540575D01*
X138548517Y-142656287D01*
X138845076Y-142715276D01*
X139147444Y-142715276D01*
X139444003Y-142656287D01*
X139723355Y-142540575D01*
X139974765Y-142372588D01*
X140188572Y-142158781D01*
X140356559Y-141907371D01*
X140472271Y-141628019D01*
X140531260Y-141331460D01*
X140531260Y-141029092D01*
X140479513Y-140768939D01*
X140596292Y-140831358D01*
X140763115Y-140881964D01*
X140893128Y-140894769D01*
X140893138Y-140894769D01*
X140936604Y-140899050D01*
X140980070Y-140894769D01*
X143003830Y-140894769D01*
X143040445Y-140945866D01*
X143167509Y-141064874D01*
X143315348Y-141156807D01*
X143478282Y-141218131D01*
X144106136Y-141386364D01*
X144277903Y-141414723D01*
X144451902Y-141409026D01*
X144621447Y-141369494D01*
X144780021Y-141297645D01*
X144786915Y-141292705D01*
X144829509Y-141386712D01*
X144902367Y-141488386D01*
X144993661Y-141573893D01*
X145099883Y-141639946D01*
X145216950Y-141684006D01*
X145497139Y-141755902D01*
X145577702Y-141709389D01*
X145936913Y-141709389D01*
X146049166Y-141903818D01*
X146327765Y-141981648D01*
X146451178Y-142002024D01*
X146576195Y-141997932D01*
X146698012Y-141969527D01*
X146811946Y-141917905D01*
X146913620Y-141845046D01*
X146999127Y-141753752D01*
X147065180Y-141647530D01*
X147109240Y-141530463D01*
X147213489Y-141129533D01*
X147101236Y-140935105D01*
X146208479Y-140695892D01*
X145936913Y-141709389D01*
X145577702Y-141709389D01*
X145691568Y-141643649D01*
X145963133Y-140630152D01*
X145943814Y-140624976D01*
X145990552Y-140450546D01*
X146274219Y-140450546D01*
X147166976Y-140689760D01*
X147361404Y-140577507D01*
X147471587Y-140178167D01*
X147491963Y-140054754D01*
X147487870Y-139929736D01*
X147459466Y-139807920D01*
X147407843Y-139693986D01*
X147334985Y-139592312D01*
X147243691Y-139506805D01*
X147137469Y-139440752D01*
X147020402Y-139396692D01*
X146740213Y-139324796D01*
X146545784Y-139437049D01*
X146274219Y-140450546D01*
X145990552Y-140450546D01*
X146009555Y-140379630D01*
X146028873Y-140384806D01*
X146300439Y-139371309D01*
X146188186Y-139176880D01*
X145909587Y-139099050D01*
X145786174Y-139078674D01*
X145661157Y-139082766D01*
X145539340Y-139111171D01*
X145425406Y-139162793D01*
X145341516Y-139222908D01*
X145338016Y-139215183D01*
X145236611Y-139073672D01*
X145109547Y-138954664D01*
X144961708Y-138862731D01*
X144798774Y-138801407D01*
X144170920Y-138633174D01*
X143999153Y-138604815D01*
X143825154Y-138610512D01*
X143655609Y-138650044D01*
X143497035Y-138721893D01*
X143355524Y-138823298D01*
X143236516Y-138950361D01*
X143144583Y-139098201D01*
X143134584Y-139124769D01*
X141303184Y-139124769D01*
X141173980Y-138995565D01*
X141372260Y-138255573D01*
X141386094Y-138171779D01*
X158630823Y-138171779D01*
X158651199Y-138295192D01*
X159117073Y-140033858D01*
X159161134Y-140150925D01*
X159227186Y-140257147D01*
X159312693Y-140348441D01*
X159414367Y-140421300D01*
X159528301Y-140472923D01*
X159650118Y-140501326D01*
X159663191Y-140501754D01*
X159551188Y-140772152D01*
X159492199Y-141068711D01*
X159492199Y-141371079D01*
X159551188Y-141667638D01*
X159666900Y-141946990D01*
X159834887Y-142198400D01*
X160048694Y-142412207D01*
X160300104Y-142580194D01*
X160579456Y-142695906D01*
X160876015Y-142754895D01*
X161178383Y-142754895D01*
X161474942Y-142695906D01*
X161754294Y-142580194D01*
X162005704Y-142412207D01*
X162219511Y-142198400D01*
X162387498Y-141946990D01*
X162503210Y-141667638D01*
X162562199Y-141371079D01*
X162562199Y-141068711D01*
X162503210Y-140772152D01*
X162387498Y-140492800D01*
X162219511Y-140241390D01*
X162005704Y-140027583D01*
X161843831Y-139919423D01*
X161860503Y-139909056D01*
X161951797Y-139823549D01*
X162024656Y-139721875D01*
X162056568Y-139651443D01*
X163508310Y-139651443D01*
X163551779Y-139655724D01*
X163595248Y-139651443D01*
X163595256Y-139651443D01*
X163725269Y-139638638D01*
X163892092Y-139588032D01*
X164045838Y-139505854D01*
X164180596Y-139395260D01*
X164208313Y-139361487D01*
X164563533Y-139006267D01*
X164577090Y-139006711D01*
X164748857Y-138978352D01*
X165376711Y-138810119D01*
X165539645Y-138748795D01*
X165687485Y-138656862D01*
X165814548Y-138537854D01*
X165915953Y-138396343D01*
X165919453Y-138388618D01*
X166003343Y-138448733D01*
X166117277Y-138500355D01*
X166239094Y-138528760D01*
X166364111Y-138532852D01*
X166487524Y-138512476D01*
X166766123Y-138434646D01*
X166878376Y-138240217D01*
X166606810Y-137226720D01*
X166587492Y-137231896D01*
X166568490Y-137160980D01*
X166852156Y-137160980D01*
X167123721Y-138174477D01*
X167318150Y-138286730D01*
X167598339Y-138214834D01*
X167715406Y-138170774D01*
X167821628Y-138104721D01*
X167912922Y-138019214D01*
X167985780Y-137917540D01*
X168037403Y-137803606D01*
X168065807Y-137681790D01*
X168069900Y-137556772D01*
X168049524Y-137433359D01*
X167939341Y-137034019D01*
X167744913Y-136921766D01*
X166852156Y-137160980D01*
X166568490Y-137160980D01*
X166521751Y-136986550D01*
X166541070Y-136981374D01*
X166269505Y-135967877D01*
X166155640Y-135902137D01*
X166514850Y-135902137D01*
X166786416Y-136915634D01*
X167679173Y-136676421D01*
X167791426Y-136481993D01*
X167687177Y-136081063D01*
X167643117Y-135963996D01*
X167577064Y-135857774D01*
X167491557Y-135766480D01*
X167389883Y-135693621D01*
X167275949Y-135641999D01*
X167154132Y-135613594D01*
X167029115Y-135609502D01*
X166905702Y-135629878D01*
X166627103Y-135707708D01*
X166514850Y-135902137D01*
X166155640Y-135902137D01*
X166075076Y-135855624D01*
X165794887Y-135927520D01*
X165677820Y-135971580D01*
X165571598Y-136037633D01*
X165480304Y-136123140D01*
X165407446Y-136224814D01*
X165364852Y-136318821D01*
X165357958Y-136313881D01*
X165199384Y-136242032D01*
X165029839Y-136202500D01*
X164855840Y-136196803D01*
X164684073Y-136225162D01*
X164056219Y-136393395D01*
X163893285Y-136454719D01*
X163745445Y-136546652D01*
X163618382Y-136665660D01*
X163516977Y-136807171D01*
X163445128Y-136965745D01*
X163405596Y-137135290D01*
X163399899Y-137309289D01*
X163428258Y-137481056D01*
X163461506Y-137605138D01*
X163185201Y-137881443D01*
X161724993Y-137881443D01*
X161622525Y-137499028D01*
X161578464Y-137381961D01*
X161512412Y-137275739D01*
X161426905Y-137184445D01*
X161325231Y-137111586D01*
X161211297Y-137059963D01*
X161089480Y-137031560D01*
X160964463Y-137027467D01*
X160841050Y-137047843D01*
X159102384Y-137513717D01*
X158985317Y-137557778D01*
X158879095Y-137623830D01*
X158787801Y-137709337D01*
X158714942Y-137811011D01*
X158663319Y-137924945D01*
X158634916Y-138046762D01*
X158630823Y-138171779D01*
X141386094Y-138171779D01*
X141392636Y-138132160D01*
X141388543Y-138007143D01*
X141360140Y-137885326D01*
X141308517Y-137771392D01*
X141235658Y-137669718D01*
X141144364Y-137584211D01*
X141038142Y-137518159D01*
X140921075Y-137474098D01*
X139182409Y-137008224D01*
X139058996Y-136987848D01*
X138933979Y-136991941D01*
X138812162Y-137020344D01*
X138698228Y-137071967D01*
X138596554Y-137144826D01*
X138511047Y-137236120D01*
X138444995Y-137342342D01*
X138400934Y-137459409D01*
X137935060Y-139198075D01*
X137914684Y-139321488D01*
X137918777Y-139446505D01*
X137947180Y-139568322D01*
X137998803Y-139682256D01*
X138071662Y-139783930D01*
X138162956Y-139869437D01*
X138179628Y-139879804D01*
X138017755Y-139987964D01*
X137803948Y-140201771D01*
X137635961Y-140453181D01*
X137520249Y-140732533D01*
X137461260Y-141029092D01*
X130502035Y-141029092D01*
X128578275Y-140070828D01*
X126307155Y-138771261D01*
X124114598Y-137343107D01*
X122007917Y-135791129D01*
X119994042Y-134120436D01*
X119706902Y-133852872D01*
X125479036Y-133852872D01*
X125479036Y-134077378D01*
X125681395Y-134284081D01*
X125778086Y-134363434D01*
X125888400Y-134422398D01*
X126008098Y-134458708D01*
X126132580Y-134470968D01*
X126257061Y-134458708D01*
X126376759Y-134422398D01*
X126487073Y-134363434D01*
X126583765Y-134284081D01*
X126874511Y-133988990D01*
X126874511Y-133764484D01*
X126220968Y-133110940D01*
X125479036Y-133852872D01*
X119706902Y-133852872D01*
X118079701Y-132336608D01*
X116271195Y-130445514D01*
X115759967Y-129845273D01*
X118231740Y-129845273D01*
X118231740Y-130147641D01*
X118290729Y-130444200D01*
X118406441Y-130723552D01*
X118574428Y-130974962D01*
X118788235Y-131188769D01*
X119039645Y-131356756D01*
X119318997Y-131472468D01*
X119615556Y-131531457D01*
X119917924Y-131531457D01*
X120214483Y-131472468D01*
X120493835Y-131356756D01*
X120745245Y-131188769D01*
X120959052Y-130974962D01*
X121127039Y-130723552D01*
X121242751Y-130444200D01*
X121301740Y-130147641D01*
X121301740Y-130053682D01*
X121318611Y-130062700D01*
X121438309Y-130099010D01*
X121562791Y-130111270D01*
X121687273Y-130099010D01*
X121806971Y-130062700D01*
X121917285Y-130003735D01*
X121985669Y-129947614D01*
X123371602Y-131333548D01*
X123352384Y-131396901D01*
X123335320Y-131570155D01*
X123352384Y-131743409D01*
X123402920Y-131910005D01*
X123484987Y-132063541D01*
X123595430Y-132198116D01*
X124055051Y-132657737D01*
X124189626Y-132768180D01*
X124343162Y-132850247D01*
X124509758Y-132900783D01*
X124683012Y-132917847D01*
X124691451Y-132917016D01*
X124681335Y-133019723D01*
X124693595Y-133144205D01*
X124729905Y-133263903D01*
X124788869Y-133374217D01*
X124868222Y-133470908D01*
X125074925Y-133673267D01*
X125299431Y-133673267D01*
X126041363Y-132931335D01*
X126400573Y-132931335D01*
X127054117Y-133584878D01*
X127278623Y-133584878D01*
X127573714Y-133294132D01*
X127653067Y-133197440D01*
X127712031Y-133087126D01*
X127748341Y-132967428D01*
X127760601Y-132842947D01*
X127748341Y-132718465D01*
X127712031Y-132598767D01*
X127653067Y-132488453D01*
X127573714Y-132391762D01*
X127367011Y-132189403D01*
X127142505Y-132189403D01*
X126400573Y-132931335D01*
X126041363Y-132931335D01*
X126027221Y-132917193D01*
X126206826Y-132737588D01*
X126220968Y-132751730D01*
X126962900Y-132009798D01*
X126962900Y-131785292D01*
X126760541Y-131578589D01*
X126663850Y-131499236D01*
X126553536Y-131440272D01*
X126433838Y-131403962D01*
X126309356Y-131391702D01*
X126206649Y-131401818D01*
X126207480Y-131393379D01*
X126190416Y-131220125D01*
X126139880Y-131053529D01*
X126057813Y-130899993D01*
X125947370Y-130765418D01*
X125487749Y-130305797D01*
X125353174Y-130195354D01*
X125199638Y-130113287D01*
X125033042Y-130062751D01*
X124859788Y-130045687D01*
X124686534Y-130062751D01*
X124623181Y-130081969D01*
X123239785Y-128698574D01*
X123286768Y-128651591D01*
X123366120Y-128554900D01*
X123425085Y-128444586D01*
X123461395Y-128324888D01*
X123473655Y-128200406D01*
X123461395Y-128075924D01*
X123425085Y-127956226D01*
X123366120Y-127845912D01*
X123286768Y-127749221D01*
X122013976Y-126476429D01*
X121917285Y-126397077D01*
X121806971Y-126338112D01*
X121687273Y-126301802D01*
X121562791Y-126289542D01*
X121438309Y-126301802D01*
X121318611Y-126338112D01*
X121208297Y-126397077D01*
X121111606Y-126476429D01*
X119838814Y-127749221D01*
X119759462Y-127845912D01*
X119700497Y-127956226D01*
X119664187Y-128075924D01*
X119651927Y-128200406D01*
X119664187Y-128324888D01*
X119700497Y-128444586D01*
X119709515Y-128461457D01*
X119615556Y-128461457D01*
X119318997Y-128520446D01*
X119039645Y-128636158D01*
X118788235Y-128804145D01*
X118574428Y-129017952D01*
X118406441Y-129269362D01*
X118290729Y-129548714D01*
X118231740Y-129845273D01*
X115759967Y-129845273D01*
X114574561Y-128453469D01*
X112995408Y-126367060D01*
X111538971Y-124193200D01*
X111250162Y-123703313D01*
X122523369Y-123703313D01*
X122523369Y-124379949D01*
X122655375Y-125043583D01*
X122914312Y-125668713D01*
X123290231Y-126231316D01*
X123768684Y-126709769D01*
X124331287Y-127085688D01*
X124956417Y-127344625D01*
X125620051Y-127476631D01*
X126296687Y-127476631D01*
X126960321Y-127344625D01*
X127585451Y-127085688D01*
X128148054Y-126709769D01*
X128626507Y-126231316D01*
X129002426Y-125668713D01*
X129261363Y-125043583D01*
X129393369Y-124379949D01*
X129393369Y-123703313D01*
X129261363Y-123039679D01*
X129002426Y-122414549D01*
X128626507Y-121851946D01*
X128148054Y-121373493D01*
X127585451Y-120997574D01*
X126960321Y-120738637D01*
X126296687Y-120606631D01*
X125620051Y-120606631D01*
X124956417Y-120738637D01*
X124331287Y-120997574D01*
X123768684Y-121373493D01*
X123290231Y-121851946D01*
X122914312Y-122414549D01*
X122655375Y-123039679D01*
X122523369Y-123703313D01*
X111250162Y-123703313D01*
X110210091Y-121939116D01*
X109013170Y-119612276D01*
X108152502Y-117672004D01*
X111924421Y-117672004D01*
X111996317Y-117952193D01*
X112040377Y-118069260D01*
X112106430Y-118175482D01*
X112191937Y-118266776D01*
X112293611Y-118339634D01*
X112407545Y-118391257D01*
X112529361Y-118419661D01*
X112654379Y-118423754D01*
X112777792Y-118403378D01*
X113177132Y-118293195D01*
X113289385Y-118098767D01*
X113050171Y-117206010D01*
X112036674Y-117477575D01*
X111924421Y-117672004D01*
X108152502Y-117672004D01*
X107952170Y-117220382D01*
X107030617Y-114771383D01*
X106251570Y-112273406D01*
X105930674Y-110988387D01*
X107391552Y-110988387D01*
X107391552Y-111290755D01*
X107450541Y-111587314D01*
X107566253Y-111866666D01*
X107734240Y-112118076D01*
X107948047Y-112331883D01*
X108199457Y-112499870D01*
X108478809Y-112615582D01*
X108775368Y-112674571D01*
X109077736Y-112674571D01*
X109374295Y-112615582D01*
X109653647Y-112499870D01*
X109905057Y-112331883D01*
X110118864Y-112118076D01*
X110227024Y-111956203D01*
X110237391Y-111972875D01*
X110322898Y-112064169D01*
X110424572Y-112137028D01*
X110495005Y-112168941D01*
X110495005Y-113797450D01*
X110490723Y-113840929D01*
X110507809Y-114014419D01*
X110558416Y-114181242D01*
X110640594Y-114334988D01*
X110723472Y-114435975D01*
X110723475Y-114435978D01*
X110751188Y-114469746D01*
X110784955Y-114497458D01*
X111204884Y-114917387D01*
X111204440Y-114930944D01*
X111232799Y-115102711D01*
X111401032Y-115730565D01*
X111462356Y-115893499D01*
X111554289Y-116041339D01*
X111673297Y-116168402D01*
X111814808Y-116269807D01*
X111822533Y-116273307D01*
X111762418Y-116357197D01*
X111710796Y-116471131D01*
X111682391Y-116592948D01*
X111678299Y-116717965D01*
X111698675Y-116841378D01*
X111776505Y-117119977D01*
X111970934Y-117232230D01*
X112314133Y-117140270D01*
X113295517Y-117140270D01*
X113534730Y-118033027D01*
X113729158Y-118145280D01*
X114130088Y-118041031D01*
X114247155Y-117996971D01*
X114353377Y-117930918D01*
X114444671Y-117845411D01*
X114517530Y-117743737D01*
X114569152Y-117629803D01*
X114597557Y-117507986D01*
X114601649Y-117382969D01*
X114581273Y-117259556D01*
X114503443Y-116980957D01*
X114309014Y-116868704D01*
X113295517Y-117140270D01*
X112314133Y-117140270D01*
X112984431Y-116960664D01*
X112979255Y-116941346D01*
X113224601Y-116875605D01*
X113229777Y-116894924D01*
X114243274Y-116623359D01*
X114355527Y-116428930D01*
X114283631Y-116148741D01*
X114239571Y-116031674D01*
X114173518Y-115925452D01*
X114088011Y-115834158D01*
X113986337Y-115761300D01*
X113892330Y-115718706D01*
X113897270Y-115711812D01*
X113969119Y-115553238D01*
X114008651Y-115383693D01*
X114014348Y-115209694D01*
X113985989Y-115037927D01*
X113817756Y-114410073D01*
X113756432Y-114247139D01*
X113664499Y-114099299D01*
X113545491Y-113972236D01*
X113403980Y-113870831D01*
X113245406Y-113798982D01*
X113075861Y-113759450D01*
X112901862Y-113753753D01*
X112730095Y-113782112D01*
X112606013Y-113815360D01*
X112265004Y-113474351D01*
X112265004Y-111837365D01*
X112647419Y-111734897D01*
X112764486Y-111690836D01*
X112870708Y-111624784D01*
X112962002Y-111539277D01*
X113034861Y-111437603D01*
X113086484Y-111323669D01*
X113114887Y-111201852D01*
X113118980Y-111076835D01*
X113098604Y-110953422D01*
X112632730Y-109214756D01*
X112588669Y-109097689D01*
X112522617Y-108991467D01*
X112437110Y-108900173D01*
X112335436Y-108827314D01*
X112221502Y-108775691D01*
X112099685Y-108747288D01*
X111974668Y-108743195D01*
X111851255Y-108763571D01*
X110112589Y-109229445D01*
X109995522Y-109273506D01*
X109889300Y-109339558D01*
X109798006Y-109425065D01*
X109725147Y-109526739D01*
X109673524Y-109640673D01*
X109645121Y-109762490D01*
X109644693Y-109775563D01*
X109374295Y-109663560D01*
X109077736Y-109604571D01*
X108775368Y-109604571D01*
X108478809Y-109663560D01*
X108199457Y-109779272D01*
X107948047Y-109947259D01*
X107734240Y-110161066D01*
X107566253Y-110412476D01*
X107450541Y-110691828D01*
X107391552Y-110988387D01*
X105930674Y-110988387D01*
X105617604Y-109734710D01*
X105130828Y-107163732D01*
X104792857Y-104569012D01*
X104604808Y-101959133D01*
X104567306Y-99342747D01*
X104680475Y-96728561D01*
X104697174Y-96563551D01*
X108144422Y-96563551D01*
X108148514Y-96688568D01*
X108176919Y-96810385D01*
X108228541Y-96924319D01*
X108301400Y-97025993D01*
X108392694Y-97111500D01*
X108498916Y-97177553D01*
X108615983Y-97221613D01*
X109016913Y-97325862D01*
X109097475Y-97279349D01*
X109456686Y-97279349D01*
X109568939Y-97473777D01*
X109968279Y-97583960D01*
X110091692Y-97604336D01*
X110216710Y-97600243D01*
X110338526Y-97571839D01*
X110452460Y-97520216D01*
X110554134Y-97447358D01*
X110639641Y-97356064D01*
X110705694Y-97249842D01*
X110749754Y-97132775D01*
X110821650Y-96852586D01*
X110709397Y-96658157D01*
X109695900Y-96386592D01*
X109456686Y-97279349D01*
X109097475Y-97279349D01*
X109211341Y-97213609D01*
X109450554Y-96320852D01*
X108437057Y-96049286D01*
X108242628Y-96161539D01*
X108164798Y-96440138D01*
X108144422Y-96563551D01*
X104697174Y-96563551D01*
X104943941Y-94125206D01*
X105356831Y-91541330D01*
X105915412Y-88996271D01*
X107286282Y-88996271D01*
X107286282Y-89298639D01*
X107345271Y-89595198D01*
X107460983Y-89874550D01*
X107628970Y-90125960D01*
X107842777Y-90339767D01*
X108094187Y-90507754D01*
X108373539Y-90623466D01*
X108670098Y-90682455D01*
X108972466Y-90682455D01*
X109269025Y-90623466D01*
X109539423Y-90511463D01*
X109539851Y-90524536D01*
X109568254Y-90646353D01*
X109619877Y-90760287D01*
X109692736Y-90861961D01*
X109784030Y-90947468D01*
X109890252Y-91013520D01*
X110007319Y-91057581D01*
X110389734Y-91160049D01*
X110389735Y-92746264D01*
X110140058Y-92995942D01*
X110015976Y-92962694D01*
X109844209Y-92934335D01*
X109670210Y-92940032D01*
X109500665Y-92979564D01*
X109342091Y-93051413D01*
X109200580Y-93152818D01*
X109081572Y-93279882D01*
X108989639Y-93427721D01*
X108928315Y-93590655D01*
X108760082Y-94218509D01*
X108731723Y-94390276D01*
X108737420Y-94564275D01*
X108776952Y-94733820D01*
X108848801Y-94892394D01*
X108853741Y-94899288D01*
X108759734Y-94941882D01*
X108658060Y-95014740D01*
X108572553Y-95106034D01*
X108506500Y-95212256D01*
X108462440Y-95329323D01*
X108390544Y-95609512D01*
X108502797Y-95803941D01*
X109516294Y-96075506D01*
X109521470Y-96056187D01*
X109766816Y-96121928D01*
X109761640Y-96141246D01*
X110775137Y-96412812D01*
X110969566Y-96300559D01*
X111047396Y-96021960D01*
X111067772Y-95898547D01*
X111063680Y-95773530D01*
X111035275Y-95651713D01*
X110983653Y-95537779D01*
X110923538Y-95453889D01*
X110931263Y-95450389D01*
X111072774Y-95348984D01*
X111191782Y-95221920D01*
X111283715Y-95074081D01*
X111345039Y-94911147D01*
X111513272Y-94283293D01*
X111541631Y-94111526D01*
X111541187Y-94097970D01*
X111869783Y-93769374D01*
X111903551Y-93741661D01*
X111935351Y-93702914D01*
X112014145Y-93606903D01*
X112096323Y-93453158D01*
X112146929Y-93286334D01*
X112155862Y-93195632D01*
X112159734Y-93156321D01*
X112159734Y-93156313D01*
X112164015Y-93112844D01*
X112159734Y-93069375D01*
X112159734Y-91491624D01*
X112230166Y-91459712D01*
X112331840Y-91386853D01*
X112417347Y-91295559D01*
X112483399Y-91189337D01*
X112527460Y-91072270D01*
X112993334Y-89333604D01*
X113013710Y-89210191D01*
X113009617Y-89085174D01*
X112981214Y-88963357D01*
X112929591Y-88849423D01*
X112856732Y-88747749D01*
X112765438Y-88662242D01*
X112659216Y-88596190D01*
X112542149Y-88552129D01*
X110803483Y-88086255D01*
X110680070Y-88065879D01*
X110555053Y-88069972D01*
X110433236Y-88098375D01*
X110319302Y-88149998D01*
X110217628Y-88222857D01*
X110132121Y-88314151D01*
X110121754Y-88330823D01*
X110013594Y-88168950D01*
X109799787Y-87955143D01*
X109548377Y-87787156D01*
X109269025Y-87671444D01*
X108972466Y-87612455D01*
X108670098Y-87612455D01*
X108373539Y-87671444D01*
X108094187Y-87787156D01*
X107842777Y-87955143D01*
X107628970Y-88168950D01*
X107460983Y-88420360D01*
X107345271Y-88699712D01*
X107286282Y-88996271D01*
X105915412Y-88996271D01*
X105917770Y-88985528D01*
X106624907Y-86466233D01*
X107475890Y-83991825D01*
X108467895Y-81570516D01*
X109597637Y-79210324D01*
X110520343Y-77537381D01*
X116143310Y-77537381D01*
X116143310Y-77761887D01*
X116434056Y-78056978D01*
X116530748Y-78136331D01*
X116641062Y-78195295D01*
X116760760Y-78231605D01*
X116885241Y-78243865D01*
X117009723Y-78231605D01*
X117129421Y-78195295D01*
X117239735Y-78136331D01*
X117336426Y-78056978D01*
X117538785Y-77850275D01*
X117538785Y-77625769D01*
X116796853Y-76883837D01*
X116143310Y-77537381D01*
X110520343Y-77537381D01*
X110861364Y-76919082D01*
X111052166Y-76615844D01*
X115257220Y-76615844D01*
X115269480Y-76740325D01*
X115305790Y-76860023D01*
X115364754Y-76970337D01*
X115444107Y-77067029D01*
X115739198Y-77357775D01*
X115963704Y-77357775D01*
X116617248Y-76704232D01*
X115875316Y-75962300D01*
X115650810Y-75962300D01*
X115444107Y-76164659D01*
X115364754Y-76261350D01*
X115305790Y-76371664D01*
X115269480Y-76491362D01*
X115257220Y-76615844D01*
X111052166Y-76615844D01*
X111717660Y-75558189D01*
X116054921Y-75558189D01*
X116054921Y-75782695D01*
X116796853Y-76524627D01*
X116810996Y-76510485D01*
X116990601Y-76690090D01*
X116976458Y-76704232D01*
X117718390Y-77446164D01*
X117942896Y-77446164D01*
X118149599Y-77243805D01*
X118228952Y-77147114D01*
X118287916Y-77036800D01*
X118324226Y-76917102D01*
X118336486Y-76792620D01*
X118326370Y-76689913D01*
X118334809Y-76690744D01*
X118508063Y-76673680D01*
X118674659Y-76623144D01*
X118828195Y-76541077D01*
X118962770Y-76430634D01*
X119422391Y-75971013D01*
X119532834Y-75836438D01*
X119614901Y-75682902D01*
X119633966Y-75620051D01*
X122523369Y-75620051D01*
X122523369Y-76296687D01*
X122655375Y-76960321D01*
X122914312Y-77585451D01*
X123290231Y-78148054D01*
X123768684Y-78626507D01*
X124331287Y-79002426D01*
X124956417Y-79261363D01*
X125620051Y-79393369D01*
X126296687Y-79393369D01*
X126960321Y-79261363D01*
X127585451Y-79002426D01*
X128148054Y-78626507D01*
X128626507Y-78148054D01*
X129002426Y-77585451D01*
X129261363Y-76960321D01*
X129393369Y-76296687D01*
X129393369Y-75620051D01*
X129261363Y-74956417D01*
X129002426Y-74331287D01*
X128626507Y-73768684D01*
X128148054Y-73290231D01*
X127585451Y-72914312D01*
X126960321Y-72655375D01*
X126296687Y-72523369D01*
X125620051Y-72523369D01*
X124956417Y-72655375D01*
X124331287Y-72914312D01*
X123768684Y-73290231D01*
X123290231Y-73768684D01*
X122914312Y-74331287D01*
X122655375Y-74956417D01*
X122523369Y-75620051D01*
X119633966Y-75620051D01*
X119665437Y-75516306D01*
X119682501Y-75343052D01*
X119665437Y-75169798D01*
X119648815Y-75115001D01*
X121052973Y-73710843D01*
X121063580Y-73721450D01*
X121160271Y-73800802D01*
X121270585Y-73859767D01*
X121390283Y-73896077D01*
X121514765Y-73908337D01*
X121639247Y-73896077D01*
X121758945Y-73859767D01*
X121869259Y-73800802D01*
X121965950Y-73721450D01*
X123238742Y-72448658D01*
X123318094Y-72351967D01*
X123377059Y-72241653D01*
X123413369Y-72121955D01*
X123425629Y-71997473D01*
X123413369Y-71872991D01*
X123377059Y-71753293D01*
X123318094Y-71642979D01*
X123238742Y-71546288D01*
X121965950Y-70273496D01*
X121869259Y-70194144D01*
X121758945Y-70135179D01*
X121639247Y-70098869D01*
X121514765Y-70086609D01*
X121390283Y-70098869D01*
X121270585Y-70135179D01*
X121253714Y-70144197D01*
X121253714Y-70050238D01*
X121194725Y-69753679D01*
X121079013Y-69474327D01*
X120911026Y-69222917D01*
X120697219Y-69009110D01*
X120445809Y-68841123D01*
X120166457Y-68725411D01*
X119869898Y-68666422D01*
X119567530Y-68666422D01*
X119270971Y-68725411D01*
X118991619Y-68841123D01*
X118740209Y-69009110D01*
X118526402Y-69222917D01*
X118358415Y-69474327D01*
X118242703Y-69753679D01*
X118183714Y-70050238D01*
X118183714Y-70352606D01*
X118242703Y-70649165D01*
X118358415Y-70928517D01*
X118526402Y-71179927D01*
X118740209Y-71393734D01*
X118991619Y-71561721D01*
X119270971Y-71677433D01*
X119567530Y-71736422D01*
X119661489Y-71736422D01*
X119652471Y-71753293D01*
X119616161Y-71872991D01*
X119603901Y-71997473D01*
X119616161Y-72121955D01*
X119652471Y-72241653D01*
X119711436Y-72351967D01*
X119790788Y-72448658D01*
X119801395Y-72459265D01*
X118403198Y-73857462D01*
X118331287Y-73835648D01*
X118158033Y-73818584D01*
X117984779Y-73835648D01*
X117818183Y-73886184D01*
X117664647Y-73968251D01*
X117530072Y-74078694D01*
X117070451Y-74538315D01*
X116960008Y-74672890D01*
X116877941Y-74826426D01*
X116827405Y-74993022D01*
X116810341Y-75166276D01*
X116811172Y-75174715D01*
X116708465Y-75164599D01*
X116583983Y-75176859D01*
X116464285Y-75213169D01*
X116353971Y-75272133D01*
X116257280Y-75351486D01*
X116054921Y-75558189D01*
X111717660Y-75558189D01*
X112254898Y-74704370D01*
X113773608Y-72573550D01*
X115412453Y-70533693D01*
X117166002Y-68591558D01*
X119028457Y-66753569D01*
X120993593Y-65025867D01*
X122425564Y-63906235D01*
X131759685Y-63906235D01*
X131863934Y-64307165D01*
X131907994Y-64424232D01*
X131974047Y-64530454D01*
X132059554Y-64621748D01*
X132161228Y-64694607D01*
X132275162Y-64746229D01*
X132396979Y-64774634D01*
X132521996Y-64778726D01*
X132645409Y-64758350D01*
X132924008Y-64680520D01*
X133036261Y-64486091D01*
X132764695Y-63472594D01*
X131871938Y-63711807D01*
X131759685Y-63906235D01*
X122425564Y-63906235D01*
X123054958Y-63414124D01*
X123895772Y-62831456D01*
X131481211Y-62831456D01*
X131501587Y-62954869D01*
X131611770Y-63354209D01*
X131806198Y-63466462D01*
X132698955Y-63227248D01*
X132427390Y-62213751D01*
X132313525Y-62148011D01*
X132672735Y-62148011D01*
X132944301Y-63161508D01*
X132963619Y-63156332D01*
X133029360Y-63401678D01*
X133010041Y-63406854D01*
X133281606Y-64420351D01*
X133476035Y-64532604D01*
X133756224Y-64460708D01*
X133873291Y-64416648D01*
X133979513Y-64350595D01*
X134070807Y-64265088D01*
X134143665Y-64163414D01*
X134186259Y-64069407D01*
X134193153Y-64074347D01*
X134351727Y-64146196D01*
X134521272Y-64185728D01*
X134695271Y-64191425D01*
X134867038Y-64163066D01*
X135494892Y-63994833D01*
X135657826Y-63933509D01*
X135805666Y-63841576D01*
X135932729Y-63722568D01*
X136034134Y-63581057D01*
X136105983Y-63422483D01*
X136145515Y-63252938D01*
X136151212Y-63078939D01*
X136122853Y-62907172D01*
X136089605Y-62783090D01*
X136430615Y-62442081D01*
X138067600Y-62442081D01*
X138170068Y-62824496D01*
X138214129Y-62941563D01*
X138280181Y-63047785D01*
X138365688Y-63139079D01*
X138467362Y-63211938D01*
X138581296Y-63263561D01*
X138703113Y-63291964D01*
X138828130Y-63296057D01*
X138951543Y-63275681D01*
X140690209Y-62809807D01*
X140807276Y-62765746D01*
X140913498Y-62699694D01*
X141004792Y-62614187D01*
X141077651Y-62512513D01*
X141129274Y-62398579D01*
X141157677Y-62276762D01*
X141161770Y-62151745D01*
X141141394Y-62028332D01*
X140675520Y-60289666D01*
X140643302Y-60204065D01*
X152542111Y-60204065D01*
X152546204Y-60329083D01*
X152574608Y-60450899D01*
X152626231Y-60564833D01*
X152699089Y-60666507D01*
X152790383Y-60752014D01*
X152896605Y-60818067D01*
X153013672Y-60862127D01*
X153293861Y-60934023D01*
X153374424Y-60887510D01*
X153733635Y-60887510D01*
X153845888Y-61081939D01*
X154124487Y-61159769D01*
X154247900Y-61180145D01*
X154372917Y-61176053D01*
X154494734Y-61147648D01*
X154608668Y-61096026D01*
X154692558Y-61035911D01*
X154696058Y-61043636D01*
X154797463Y-61185147D01*
X154924527Y-61304155D01*
X155072366Y-61396088D01*
X155235300Y-61457412D01*
X155863154Y-61625645D01*
X156034921Y-61654004D01*
X156208920Y-61648307D01*
X156378465Y-61608775D01*
X156537039Y-61536926D01*
X156678550Y-61435521D01*
X156797558Y-61308458D01*
X156889491Y-61160618D01*
X156899490Y-61134050D01*
X158817069Y-61134050D01*
X158622992Y-61858357D01*
X158602616Y-61981770D01*
X158606709Y-62106787D01*
X158635112Y-62228604D01*
X158686735Y-62342538D01*
X158759594Y-62444212D01*
X158850888Y-62529719D01*
X158957110Y-62595771D01*
X159074177Y-62639832D01*
X160812843Y-63105706D01*
X160936256Y-63126082D01*
X161061273Y-63121989D01*
X161183090Y-63093586D01*
X161297024Y-63041963D01*
X161398698Y-62969104D01*
X161484205Y-62877810D01*
X161550257Y-62771588D01*
X161594318Y-62654521D01*
X162060192Y-60915855D01*
X162080568Y-60792442D01*
X162076475Y-60667425D01*
X162048072Y-60545608D01*
X161996449Y-60431674D01*
X161923590Y-60330000D01*
X161832296Y-60244493D01*
X161815624Y-60234126D01*
X161977497Y-60125966D01*
X162191304Y-59912159D01*
X162359291Y-59660749D01*
X162475003Y-59381397D01*
X162533992Y-59084838D01*
X162533992Y-58782470D01*
X162475003Y-58485911D01*
X162359291Y-58206559D01*
X162191304Y-57955149D01*
X161977497Y-57741342D01*
X161726087Y-57573355D01*
X161446735Y-57457643D01*
X161150176Y-57398654D01*
X160847808Y-57398654D01*
X160551249Y-57457643D01*
X160271897Y-57573355D01*
X160020487Y-57741342D01*
X159806680Y-57955149D01*
X159638693Y-58206559D01*
X159522981Y-58485911D01*
X159463992Y-58782470D01*
X159463992Y-59084838D01*
X159522981Y-59381397D01*
X159541805Y-59426841D01*
X159377026Y-59376855D01*
X159247013Y-59364050D01*
X159247005Y-59364050D01*
X159203536Y-59359769D01*
X159160067Y-59364050D01*
X157030244Y-59364050D01*
X156993629Y-59312953D01*
X156866565Y-59193945D01*
X156718726Y-59102012D01*
X156555792Y-59040688D01*
X155927938Y-58872455D01*
X155756171Y-58844096D01*
X155582172Y-58849793D01*
X155412627Y-58889325D01*
X155254053Y-58961174D01*
X155247159Y-58966114D01*
X155204565Y-58872107D01*
X155131707Y-58770433D01*
X155040413Y-58684926D01*
X154934191Y-58618873D01*
X154817124Y-58574813D01*
X154536935Y-58502917D01*
X154342506Y-58615170D01*
X154070941Y-59628667D01*
X154090260Y-59633843D01*
X154024519Y-59879189D01*
X154005201Y-59874013D01*
X153733635Y-60887510D01*
X153374424Y-60887510D01*
X153488290Y-60821770D01*
X153759855Y-59808273D01*
X152867098Y-59569059D01*
X152672670Y-59681312D01*
X152562487Y-60080652D01*
X152542111Y-60204065D01*
X140643302Y-60204065D01*
X140631459Y-60172599D01*
X140565407Y-60066377D01*
X140479900Y-59975083D01*
X140378226Y-59902224D01*
X140264292Y-59850601D01*
X140142475Y-59822198D01*
X140129402Y-59821770D01*
X140241405Y-59551372D01*
X140300394Y-59254813D01*
X140300394Y-59129286D01*
X152820585Y-59129286D01*
X152932838Y-59323714D01*
X153825595Y-59562927D01*
X154097161Y-58549430D01*
X153984908Y-58355001D01*
X153706309Y-58277171D01*
X153582896Y-58256795D01*
X153457879Y-58260887D01*
X153336062Y-58289292D01*
X153222128Y-58340914D01*
X153120454Y-58413773D01*
X153034947Y-58505067D01*
X152968894Y-58611289D01*
X152924834Y-58728356D01*
X152820585Y-59129286D01*
X140300394Y-59129286D01*
X140300394Y-58952445D01*
X140241405Y-58655886D01*
X140125693Y-58376534D01*
X139957706Y-58125124D01*
X139743899Y-57911317D01*
X139492489Y-57743330D01*
X139213137Y-57627618D01*
X138916578Y-57568629D01*
X138614210Y-57568629D01*
X138317651Y-57627618D01*
X138038299Y-57743330D01*
X137786889Y-57911317D01*
X137573082Y-58125124D01*
X137405095Y-58376534D01*
X137289383Y-58655886D01*
X137230394Y-58952445D01*
X137230394Y-59254813D01*
X137289383Y-59551372D01*
X137405095Y-59830724D01*
X137573082Y-60082134D01*
X137786889Y-60295941D01*
X137948762Y-60404101D01*
X137932090Y-60414468D01*
X137840796Y-60499975D01*
X137767937Y-60601649D01*
X137736025Y-60672081D01*
X136107502Y-60672081D01*
X136064035Y-60667800D01*
X136020569Y-60672081D01*
X136020559Y-60672081D01*
X135890546Y-60684886D01*
X135723723Y-60735492D01*
X135569977Y-60817670D01*
X135569975Y-60817671D01*
X135569976Y-60817671D01*
X135468989Y-60900549D01*
X135468987Y-60900551D01*
X135435219Y-60928264D01*
X135407506Y-60962032D01*
X134987578Y-61381961D01*
X134974021Y-61381517D01*
X134802254Y-61409876D01*
X134174400Y-61578109D01*
X134011466Y-61639433D01*
X133863626Y-61731366D01*
X133736563Y-61850374D01*
X133635158Y-61991885D01*
X133631658Y-61999610D01*
X133547768Y-61939495D01*
X133433834Y-61887873D01*
X133312017Y-61859468D01*
X133187000Y-61855376D01*
X133063587Y-61875752D01*
X132784988Y-61953582D01*
X132672735Y-62148011D01*
X132313525Y-62148011D01*
X132232961Y-62101498D01*
X131952772Y-62173394D01*
X131835705Y-62217454D01*
X131729483Y-62283507D01*
X131638189Y-62369014D01*
X131565331Y-62470688D01*
X131513708Y-62584622D01*
X131485304Y-62706438D01*
X131481211Y-62831456D01*
X123895772Y-62831456D01*
X125205662Y-61923729D01*
X127438596Y-60559606D01*
X129746357Y-59326280D01*
X132121291Y-58227839D01*
X134555508Y-57267935D01*
X137040946Y-56449747D01*
X139569347Y-55775989D01*
X142132357Y-55248890D01*
X144721478Y-54870200D01*
X147328077Y-54641181D01*
X149943547Y-54562587D01*
X152559183Y-54634681D01*
G37*
X152559183Y-54634681D02*
X155166371Y-54857224D01*
X157756392Y-55229474D01*
X160320703Y-55750201D01*
X162850793Y-56417678D01*
X165338250Y-57229687D01*
X167774855Y-58183541D01*
X170152491Y-59276067D01*
X172463316Y-60503659D01*
X174699638Y-61862230D01*
X176854041Y-63347277D01*
X178919393Y-64953883D01*
X180888840Y-66676717D01*
X182755842Y-68510056D01*
X184514208Y-70447824D01*
X186158127Y-72483613D01*
X187682125Y-74610650D01*
X189081146Y-76821870D01*
X190350572Y-79109980D01*
X191486181Y-81467370D01*
X192484202Y-83886207D01*
X193341329Y-86358489D01*
X194056024Y-88880604D01*
X194339999Y-90077239D01*
X194339999Y-94362882D01*
X192785750Y-94365000D01*
X192627000Y-94523750D01*
X192627000Y-95623000D01*
X194339999Y-95623000D01*
X194339999Y-95877000D01*
X192627000Y-95877000D01*
X192627000Y-96976250D01*
X192785750Y-97135000D01*
X194339999Y-97137118D01*
X194339999Y-98611928D01*
X193375683Y-98611928D01*
X193372195Y-98576510D01*
X193321589Y-98409687D01*
X193239411Y-98255941D01*
X193128817Y-98121183D01*
X193095044Y-98093466D01*
X192656534Y-97654956D01*
X192628817Y-97621183D01*
X192494059Y-97510589D01*
X192340313Y-97428411D01*
X192173490Y-97377805D01*
X192043477Y-97365000D01*
X192043469Y-97365000D01*
X192000000Y-97360719D01*
X191956531Y-97365000D01*
X189288454Y-97365000D01*
X189240256Y-97332795D01*
X189051898Y-97254774D01*
X188851939Y-97215000D01*
X188648061Y-97215000D01*
X188448102Y-97254774D01*
X188259744Y-97332795D01*
X188250000Y-97339306D01*
X188240256Y-97332795D01*
X188051898Y-97254774D01*
X187851939Y-97215000D01*
X187648061Y-97215000D01*
X187448102Y-97254774D01*
X187259744Y-97332795D01*
X187170484Y-97392436D01*
X187116363Y-96518088D01*
X187115660Y-96510644D01*
X187115269Y-96503154D01*
X187114936Y-96500000D01*
X189321928Y-96500000D01*
X189334188Y-96624482D01*
X189370498Y-96744180D01*
X189429463Y-96854494D01*
X189508815Y-96951185D01*
X189605506Y-97030537D01*
X189715820Y-97089502D01*
X189835518Y-97125812D01*
X189960000Y-97138072D01*
X192214250Y-97135000D01*
X192373000Y-96976250D01*
X192373000Y-95877000D01*
X189483750Y-95877000D01*
X189325000Y-96035750D01*
X189321928Y-96500000D01*
X187114936Y-96500000D01*
X187112359Y-96475663D01*
X186924840Y-95000000D01*
X189321928Y-95000000D01*
X189325000Y-95464250D01*
X189483750Y-95623000D01*
X192373000Y-95623000D01*
X192373000Y-94523750D01*
X192214250Y-94365000D01*
X189960000Y-94361928D01*
X189835518Y-94374188D01*
X189715820Y-94410498D01*
X189605506Y-94469463D01*
X189508815Y-94548815D01*
X189429463Y-94645506D01*
X189370498Y-94755820D01*
X189334188Y-94875518D01*
X189321928Y-95000000D01*
X186924840Y-95000000D01*
X186814303Y-94130141D01*
X186813120Y-94122747D01*
X186812247Y-94115308D01*
X186807569Y-94088063D01*
X186358772Y-91766664D01*
X186357115Y-91759366D01*
X186355763Y-91751994D01*
X186349337Y-91725108D01*
X185751671Y-89437510D01*
X185749547Y-89430337D01*
X185747722Y-89423066D01*
X185739574Y-89396650D01*
X184995529Y-87152388D01*
X184992938Y-87145343D01*
X184990655Y-87138229D01*
X184980820Y-87112394D01*
X184093499Y-84920826D01*
X184090466Y-84913980D01*
X184087722Y-84907010D01*
X184076240Y-84881863D01*
X183478120Y-83641389D01*
X186534447Y-83641389D01*
X186606343Y-83921578D01*
X186650403Y-84038645D01*
X186716456Y-84144867D01*
X186801963Y-84236161D01*
X186903637Y-84309019D01*
X186997644Y-84351613D01*
X186992704Y-84358507D01*
X186920855Y-84517081D01*
X186881323Y-84686626D01*
X186875626Y-84860625D01*
X186903985Y-85032392D01*
X187072218Y-85660246D01*
X187133542Y-85823180D01*
X187225475Y-85971020D01*
X187344483Y-86098083D01*
X187395580Y-86134699D01*
X187395581Y-88134934D01*
X187391299Y-88178413D01*
X187408385Y-88351903D01*
X187458992Y-88518726D01*
X187541170Y-88672472D01*
X187624048Y-88773459D01*
X187624051Y-88773462D01*
X187651764Y-88807230D01*
X187685531Y-88834942D01*
X187902944Y-89052355D01*
X188367270Y-90785244D01*
X188411331Y-90902311D01*
X188477383Y-91008533D01*
X188562890Y-91099827D01*
X188664564Y-91172686D01*
X188778498Y-91224309D01*
X188900315Y-91252712D01*
X189025332Y-91256805D01*
X189148745Y-91236429D01*
X190887411Y-90770555D01*
X191004478Y-90726494D01*
X191110700Y-90660442D01*
X191201994Y-90574935D01*
X191274853Y-90473261D01*
X191326476Y-90359327D01*
X191354879Y-90237510D01*
X191355307Y-90224437D01*
X191625705Y-90336440D01*
X191922264Y-90395429D01*
X192224632Y-90395429D01*
X192521191Y-90336440D01*
X192800543Y-90220728D01*
X193051953Y-90052741D01*
X193265760Y-89838934D01*
X193433747Y-89587524D01*
X193549459Y-89308172D01*
X193608448Y-89011613D01*
X193608448Y-88709245D01*
X193549459Y-88412686D01*
X193433747Y-88133334D01*
X193265760Y-87881924D01*
X193051953Y-87668117D01*
X192800543Y-87500130D01*
X192521191Y-87384418D01*
X192224632Y-87325429D01*
X191922264Y-87325429D01*
X191625705Y-87384418D01*
X191346353Y-87500130D01*
X191094943Y-87668117D01*
X190881136Y-87881924D01*
X190772976Y-88043797D01*
X190762609Y-88027125D01*
X190677102Y-87935831D01*
X190575428Y-87862972D01*
X190461494Y-87811349D01*
X190339677Y-87782946D01*
X190214660Y-87778853D01*
X190091247Y-87799229D01*
X189351255Y-87997509D01*
X189165580Y-87811835D01*
X189165580Y-86003944D01*
X189192148Y-85993945D01*
X189339987Y-85902012D01*
X189467051Y-85783004D01*
X189568456Y-85641493D01*
X189640305Y-85482919D01*
X189679837Y-85313374D01*
X189685534Y-85139375D01*
X189657175Y-84967608D01*
X189488942Y-84339754D01*
X189427618Y-84176820D01*
X189335685Y-84028980D01*
X189216677Y-83901917D01*
X189075166Y-83800512D01*
X189067441Y-83797012D01*
X189127556Y-83713122D01*
X189179178Y-83599188D01*
X189207583Y-83477371D01*
X189211675Y-83352354D01*
X189191299Y-83228941D01*
X189113469Y-82950342D01*
X188919040Y-82838089D01*
X187905543Y-83109655D01*
X187910719Y-83128973D01*
X187665373Y-83194714D01*
X187660197Y-83175395D01*
X186646700Y-83446960D01*
X186534447Y-83641389D01*
X183478120Y-83641389D01*
X183049341Y-82752124D01*
X183045872Y-82745487D01*
X183042685Y-82738711D01*
X183029604Y-82714357D01*
X183014361Y-82687350D01*
X186288325Y-82687350D01*
X186308701Y-82810763D01*
X186386531Y-83089362D01*
X186580960Y-83201615D01*
X187594457Y-82930049D01*
X187355244Y-82037292D01*
X187241379Y-81971552D01*
X187600589Y-81971552D01*
X187839803Y-82864309D01*
X188853300Y-82592744D01*
X188965553Y-82398315D01*
X188893657Y-82118126D01*
X188849597Y-82001059D01*
X188783544Y-81894837D01*
X188698037Y-81803543D01*
X188596363Y-81730685D01*
X188482429Y-81679062D01*
X188360613Y-81650658D01*
X188235595Y-81646565D01*
X188112182Y-81666941D01*
X187712842Y-81777124D01*
X187600589Y-81971552D01*
X187241379Y-81971552D01*
X187160816Y-81925039D01*
X186759886Y-82029288D01*
X186642819Y-82073348D01*
X186536597Y-82139401D01*
X186445303Y-82224908D01*
X186372444Y-82326582D01*
X186320822Y-82440516D01*
X186292417Y-82562333D01*
X186288325Y-82687350D01*
X183014361Y-82687350D01*
X181867408Y-80655325D01*
X181863517Y-80648924D01*
X181859900Y-80642369D01*
X181845275Y-80618910D01*
X180568936Y-78664146D01*
X180552452Y-78633097D01*
X180470256Y-78532369D01*
X180369989Y-78449611D01*
X180255504Y-78388005D01*
X180131201Y-78349917D01*
X180034264Y-78340096D01*
X176977797Y-78331542D01*
X176880806Y-78340821D01*
X176756291Y-78378213D01*
X176641463Y-78439177D01*
X176540735Y-78521372D01*
X176540054Y-78522197D01*
X175999615Y-78966118D01*
X175383944Y-79296238D01*
X174715877Y-79500487D01*
X174020865Y-79571083D01*
X173325373Y-79505340D01*
X172655898Y-79305760D01*
X172037933Y-78979944D01*
X171495028Y-78540308D01*
X171047853Y-78003592D01*
X170713445Y-77390243D01*
X170504538Y-76723617D01*
X170429091Y-76029113D01*
X170464879Y-75620051D01*
X170606631Y-75620051D01*
X170606631Y-76296687D01*
X170738637Y-76960321D01*
X170997574Y-77585451D01*
X171373493Y-78148054D01*
X171851946Y-78626507D01*
X172414549Y-79002426D01*
X173039679Y-79261363D01*
X173703313Y-79393369D01*
X174379949Y-79393369D01*
X175043583Y-79261363D01*
X175668713Y-79002426D01*
X176231316Y-78626507D01*
X176709769Y-78148054D01*
X177085688Y-77585451D01*
X177344625Y-76960321D01*
X177476631Y-76296687D01*
X177476631Y-75620051D01*
X177344625Y-74956417D01*
X177085688Y-74331287D01*
X176709769Y-73768684D01*
X176231316Y-73290231D01*
X175668713Y-72914312D01*
X175043583Y-72655375D01*
X174379949Y-72523369D01*
X173703313Y-72523369D01*
X173039679Y-72655375D01*
X172414549Y-72914312D01*
X171851946Y-73290231D01*
X171373493Y-73768684D01*
X170997574Y-74331287D01*
X170738637Y-74956417D01*
X170606631Y-75620051D01*
X170464879Y-75620051D01*
X170489977Y-75333178D01*
X170684878Y-74662326D01*
X171006369Y-74042108D01*
X171458163Y-73476156D01*
X171478627Y-73459265D01*
X171560822Y-73358537D01*
X171621786Y-73243709D01*
X171659178Y-73119193D01*
X171668457Y-73022203D01*
X171659905Y-69965736D01*
X171650084Y-69868799D01*
X171611996Y-69744495D01*
X171550390Y-69630010D01*
X171509294Y-69580218D01*
X171509271Y-69580189D01*
X171509246Y-69580160D01*
X171467633Y-69529743D01*
X171366904Y-69447548D01*
X171336666Y-69431494D01*
X169554888Y-68261084D01*
X169549273Y-68257650D01*
X169543822Y-68253972D01*
X169520116Y-68239751D01*
X169340308Y-68136949D01*
X172523506Y-68136949D01*
X172523506Y-68361455D01*
X172725865Y-68568158D01*
X172822556Y-68647511D01*
X172932870Y-68706475D01*
X173052568Y-68742785D01*
X173177050Y-68755045D01*
X173279757Y-68744929D01*
X173278926Y-68753368D01*
X173295990Y-68926622D01*
X173346526Y-69093218D01*
X173428593Y-69246754D01*
X173539036Y-69381329D01*
X173998657Y-69840950D01*
X174133232Y-69951393D01*
X174286768Y-70033460D01*
X174453364Y-70083996D01*
X174626618Y-70101060D01*
X174799872Y-70083996D01*
X174966468Y-70033460D01*
X175110716Y-69956358D01*
X176548320Y-71393962D01*
X176537713Y-71404569D01*
X176458361Y-71501260D01*
X176399396Y-71611574D01*
X176363086Y-71731272D01*
X176350826Y-71855754D01*
X176363086Y-71980236D01*
X176399396Y-72099934D01*
X176458361Y-72210248D01*
X176537713Y-72306939D01*
X177810505Y-73579731D01*
X177907196Y-73659083D01*
X178017510Y-73718048D01*
X178137208Y-73754358D01*
X178261690Y-73766618D01*
X178386172Y-73754358D01*
X178505870Y-73718048D01*
X178616184Y-73659083D01*
X178712875Y-73579731D01*
X179985667Y-72306939D01*
X180065019Y-72210248D01*
X180123984Y-72099934D01*
X180160294Y-71980236D01*
X180172554Y-71855754D01*
X180160294Y-71731272D01*
X180123984Y-71611574D01*
X180114966Y-71594703D01*
X180208925Y-71594703D01*
X180505484Y-71535714D01*
X180784836Y-71420002D01*
X181036246Y-71252015D01*
X181250053Y-71038208D01*
X181418040Y-70786798D01*
X181533752Y-70507446D01*
X181592741Y-70210887D01*
X181592741Y-69908519D01*
X181533752Y-69611960D01*
X181418040Y-69332608D01*
X181250053Y-69081198D01*
X181036246Y-68867391D01*
X180784836Y-68699404D01*
X180505484Y-68583692D01*
X180208925Y-68524703D01*
X179906557Y-68524703D01*
X179609998Y-68583692D01*
X179330646Y-68699404D01*
X179079236Y-68867391D01*
X178865429Y-69081198D01*
X178697442Y-69332608D01*
X178581730Y-69611960D01*
X178522741Y-69908519D01*
X178522741Y-70002478D01*
X178505870Y-69993460D01*
X178386172Y-69957150D01*
X178261690Y-69944890D01*
X178137208Y-69957150D01*
X178017510Y-69993460D01*
X177907196Y-70052425D01*
X177810505Y-70131777D01*
X177799898Y-70142384D01*
X176142016Y-68484502D01*
X176134022Y-68403338D01*
X176083486Y-68236742D01*
X176001419Y-68083206D01*
X175890976Y-67948631D01*
X175431355Y-67489010D01*
X175296780Y-67378567D01*
X175143244Y-67296500D01*
X174976648Y-67245964D01*
X174803394Y-67228900D01*
X174794955Y-67229731D01*
X174805071Y-67127024D01*
X174792811Y-67002542D01*
X174756501Y-66882844D01*
X174697537Y-66772530D01*
X174618184Y-66675839D01*
X174411481Y-66473480D01*
X174186975Y-66473480D01*
X173445043Y-67215412D01*
X173459186Y-67229555D01*
X173279581Y-67409160D01*
X173265438Y-67395017D01*
X172523506Y-68136949D01*
X169340308Y-68136949D01*
X167883071Y-67303800D01*
X171725805Y-67303800D01*
X171738065Y-67428282D01*
X171774375Y-67547980D01*
X171833339Y-67658294D01*
X171912692Y-67754985D01*
X172119395Y-67957344D01*
X172343901Y-67957344D01*
X173085833Y-67215412D01*
X172432289Y-66561869D01*
X172207783Y-66561869D01*
X171912692Y-66852615D01*
X171833339Y-66949307D01*
X171774375Y-67059621D01*
X171738065Y-67179319D01*
X171725805Y-67303800D01*
X167883071Y-67303800D01*
X167467524Y-67066219D01*
X167460894Y-67062708D01*
X167454440Y-67058935D01*
X167429866Y-67046274D01*
X165612804Y-66157757D01*
X172611895Y-66157757D01*
X172611895Y-66382263D01*
X173265438Y-67035807D01*
X174007370Y-66293875D01*
X174007370Y-66069369D01*
X173805011Y-65862666D01*
X173708320Y-65783313D01*
X173598006Y-65724349D01*
X173478308Y-65688039D01*
X173353826Y-65675779D01*
X173229345Y-65688039D01*
X173109647Y-65724349D01*
X172999333Y-65783313D01*
X172902641Y-65862666D01*
X172611895Y-66157757D01*
X165612804Y-66157757D01*
X165305821Y-66007647D01*
X165298993Y-66004577D01*
X165292295Y-66001222D01*
X165266955Y-65990173D01*
X163080313Y-65090779D01*
X163073286Y-65088151D01*
X163066400Y-65085241D01*
X163040400Y-65075850D01*
X160800276Y-64319441D01*
X160793099Y-64317273D01*
X160786035Y-64314812D01*
X160759483Y-64307119D01*
X158475216Y-63696846D01*
X158467927Y-63695149D01*
X158460706Y-63693145D01*
X158433731Y-63687186D01*
X158433713Y-63687182D01*
X158433707Y-63687181D01*
X156114824Y-63225591D01*
X156107441Y-63224368D01*
X156100105Y-63222834D01*
X156072797Y-63218627D01*
X156072784Y-63218625D01*
X156072780Y-63218625D01*
X153728940Y-62907639D01*
X153721491Y-62906894D01*
X153714075Y-62905838D01*
X153686538Y-62903401D01*
X151327512Y-62744317D01*
X151320029Y-62744055D01*
X151312561Y-62743479D01*
X151284925Y-62742824D01*
X148920550Y-62736304D01*
X148913075Y-62736525D01*
X148905576Y-62736432D01*
X148877955Y-62737562D01*
X146518088Y-62883635D01*
X146510644Y-62884338D01*
X146503154Y-62884729D01*
X146475663Y-62887639D01*
X144130141Y-63185695D01*
X144122747Y-63186878D01*
X144115308Y-63187751D01*
X144088063Y-63192429D01*
X141766664Y-63641226D01*
X141759361Y-63642884D01*
X141751995Y-63644235D01*
X141725108Y-63650661D01*
X139437510Y-64248328D01*
X139430337Y-64250452D01*
X139423066Y-64252277D01*
X139396650Y-64260425D01*
X137152387Y-65004470D01*
X137145342Y-65007061D01*
X137138228Y-65009344D01*
X137112393Y-65019179D01*
X134920825Y-65906500D01*
X134913979Y-65909533D01*
X134907009Y-65912277D01*
X134881862Y-65923759D01*
X132752123Y-66950658D01*
X132745486Y-66954127D01*
X132738710Y-66957314D01*
X132714356Y-66970395D01*
X130655324Y-68132591D01*
X130648923Y-68136482D01*
X130642368Y-68140099D01*
X130618909Y-68154724D01*
X128664145Y-69431063D01*
X128633096Y-69447547D01*
X128532368Y-69529743D01*
X128449610Y-69630010D01*
X128388004Y-69744495D01*
X128349916Y-69868799D01*
X128340095Y-69965736D01*
X128331542Y-73022204D01*
X128340821Y-73119194D01*
X128378213Y-73243709D01*
X128439177Y-73358537D01*
X128521372Y-73459265D01*
X128522197Y-73459946D01*
X128966118Y-74000385D01*
X129296239Y-74616057D01*
X129500487Y-75284122D01*
X129571083Y-75979135D01*
X129505340Y-76674627D01*
X129305760Y-77344102D01*
X128979944Y-77962067D01*
X128540308Y-78504972D01*
X128003592Y-78952147D01*
X127390243Y-79286555D01*
X126723617Y-79495462D01*
X126029114Y-79570909D01*
X125333180Y-79510023D01*
X124662326Y-79315122D01*
X124042108Y-78993631D01*
X123476156Y-78541837D01*
X123459265Y-78521373D01*
X123358537Y-78439178D01*
X123243709Y-78378214D01*
X123119193Y-78340822D01*
X123022203Y-78331543D01*
X119965736Y-78340095D01*
X119868799Y-78349916D01*
X119744495Y-78388004D01*
X119630010Y-78449610D01*
X119580218Y-78490706D01*
X119580189Y-78490729D01*
X119580160Y-78490754D01*
X119529743Y-78532367D01*
X119447548Y-78633096D01*
X119431494Y-78663334D01*
X118261084Y-80445112D01*
X118257650Y-80450727D01*
X118253972Y-80456178D01*
X118239751Y-80479884D01*
X117066219Y-82532476D01*
X117062708Y-82539106D01*
X117058935Y-82545560D01*
X117046274Y-82570134D01*
X116007647Y-84694179D01*
X116004577Y-84701007D01*
X116001222Y-84707705D01*
X115990173Y-84733045D01*
X115090779Y-86919687D01*
X115088151Y-86926714D01*
X115085241Y-86933600D01*
X115075850Y-86959600D01*
X114319441Y-89199724D01*
X114317273Y-89206901D01*
X114314812Y-89213965D01*
X114307119Y-89240517D01*
X113696846Y-91524784D01*
X113695149Y-91532073D01*
X113693145Y-91539294D01*
X113687182Y-91566288D01*
X113225591Y-93885176D01*
X113224368Y-93892559D01*
X113222834Y-93899895D01*
X113218625Y-93927217D01*
X112907639Y-96271060D01*
X112906894Y-96278509D01*
X112905838Y-96285925D01*
X112903401Y-96313462D01*
X112744317Y-98672488D01*
X112744055Y-98679971D01*
X112743479Y-98687439D01*
X112742824Y-98715075D01*
X112736304Y-101079450D01*
X112736525Y-101086925D01*
X112736432Y-101094424D01*
X112737562Y-101122045D01*
X112883635Y-103481913D01*
X112884338Y-103489357D01*
X112884729Y-103496847D01*
X112887639Y-103524337D01*
X113185695Y-105869859D01*
X113186878Y-105877249D01*
X113187751Y-105884692D01*
X113192429Y-105911937D01*
X113641226Y-108233336D01*
X113642884Y-108240639D01*
X113644235Y-108248005D01*
X113650661Y-108274892D01*
X114248328Y-110562491D01*
X114250459Y-110569687D01*
X114252278Y-110576934D01*
X114260425Y-110603351D01*
X115004470Y-112847613D01*
X115007061Y-112854658D01*
X115009344Y-112861772D01*
X115019179Y-112887607D01*
X115906500Y-115079175D01*
X115909536Y-115086028D01*
X115912277Y-115092990D01*
X115923759Y-115118137D01*
X116950658Y-117247877D01*
X116954130Y-117254519D01*
X116957315Y-117261291D01*
X116970396Y-117285644D01*
X118132591Y-119344676D01*
X118136483Y-119351079D01*
X118140099Y-119357632D01*
X118154724Y-119381091D01*
X119431571Y-121336634D01*
X119448576Y-121368448D01*
X119531053Y-121468946D01*
X119631551Y-121551423D01*
X119746208Y-121612708D01*
X119870618Y-121650448D01*
X119967582Y-121659998D01*
X123032419Y-121660001D01*
X123129383Y-121650451D01*
X123253793Y-121612711D01*
X123368450Y-121551426D01*
X123418800Y-121510104D01*
X123418923Y-121510005D01*
X123420763Y-121508494D01*
X123468948Y-121468949D01*
X123469036Y-121468842D01*
X124008754Y-121025513D01*
X124624426Y-120695392D01*
X125292491Y-120491144D01*
X125987504Y-120420548D01*
X126682996Y-120486291D01*
X127352471Y-120685871D01*
X127970434Y-121011685D01*
X128513339Y-121451321D01*
X128960516Y-121988040D01*
X129294923Y-122601387D01*
X129503831Y-123268014D01*
X129579278Y-123962517D01*
X129518392Y-124658451D01*
X129323491Y-125329305D01*
X129002000Y-125949523D01*
X128550535Y-126515064D01*
X128531052Y-126531053D01*
X128448575Y-126631551D01*
X128387290Y-126746208D01*
X128349550Y-126870618D01*
X128340000Y-126967582D01*
X128340002Y-130032418D01*
X128349552Y-130129382D01*
X128387292Y-130253792D01*
X128448577Y-130368449D01*
X128531054Y-130468947D01*
X128581055Y-130509982D01*
X128581079Y-130510003D01*
X128581105Y-130510023D01*
X128631552Y-130551424D01*
X128662564Y-130568000D01*
X130445111Y-131738916D01*
X130450735Y-131742355D01*
X130456178Y-131746028D01*
X130479884Y-131760249D01*
X132532476Y-132933781D01*
X132539109Y-132937294D01*
X132545560Y-132941065D01*
X132570134Y-132953726D01*
X134694179Y-133992353D01*
X134701007Y-133995423D01*
X134707705Y-133998778D01*
X134733045Y-134009827D01*
X136919687Y-134909221D01*
X136926717Y-134911850D01*
X136933600Y-134914759D01*
X136959600Y-134924150D01*
X139199724Y-135680559D01*
X139206901Y-135682727D01*
X139213965Y-135685188D01*
X139240517Y-135692881D01*
X141524783Y-136303154D01*
X141532077Y-136304852D01*
X141539294Y-136306855D01*
X141566268Y-136312814D01*
X141566286Y-136312818D01*
X141566292Y-136312819D01*
X143885176Y-136774409D01*
X143892558Y-136775632D01*
X143899895Y-136777166D01*
X143927203Y-136781373D01*
X143927216Y-136781375D01*
X143927220Y-136781375D01*
X146271059Y-137092361D01*
X146278511Y-137093106D01*
X146285925Y-137094162D01*
X146313453Y-137096598D01*
X146313461Y-137096599D01*
X146313463Y-137096599D01*
X148672488Y-137255683D01*
X148679971Y-137255945D01*
X148687439Y-137256521D01*
X148715075Y-137257176D01*
X151079450Y-137263696D01*
X151086925Y-137263475D01*
X151094424Y-137263568D01*
X151122045Y-137262438D01*
X153481913Y-137116365D01*
X153489357Y-137115662D01*
X153496847Y-137115271D01*
X153524337Y-137112361D01*
X155869859Y-136814305D01*
X155877249Y-136813122D01*
X155884692Y-136812249D01*
X155911937Y-136807571D01*
X158233336Y-136358774D01*
X158240639Y-136357116D01*
X158248005Y-136355765D01*
X158274892Y-136349339D01*
X160562491Y-135751672D01*
X160569687Y-135749541D01*
X160576934Y-135747722D01*
X160603351Y-135739575D01*
X162847613Y-134995530D01*
X162854658Y-134992939D01*
X162861772Y-134990656D01*
X162887607Y-134980821D01*
X165079175Y-134093500D01*
X165086028Y-134090464D01*
X165092990Y-134087723D01*
X165118137Y-134076241D01*
X167247877Y-133049342D01*
X167254519Y-133045870D01*
X167261291Y-133042685D01*
X167285644Y-133029604D01*
X169344676Y-131867409D01*
X169351079Y-131863517D01*
X169357632Y-131859901D01*
X169381091Y-131845276D01*
X171335863Y-130568932D01*
X171366904Y-130552452D01*
X171467632Y-130470257D01*
X171550390Y-130369990D01*
X171611996Y-130255505D01*
X171650084Y-130131201D01*
X171659905Y-130034264D01*
X171664550Y-128374062D01*
X176379829Y-128374062D01*
X176392089Y-128498544D01*
X176428399Y-128618242D01*
X176487364Y-128728556D01*
X176566716Y-128825247D01*
X177839508Y-130098039D01*
X177936199Y-130177391D01*
X178046513Y-130236356D01*
X178166211Y-130272666D01*
X178290693Y-130284926D01*
X178415175Y-130272666D01*
X178534873Y-130236356D01*
X178551744Y-130227338D01*
X178551744Y-130321297D01*
X178610733Y-130617856D01*
X178726445Y-130897208D01*
X178894432Y-131148618D01*
X179108239Y-131362425D01*
X179359649Y-131530412D01*
X179639001Y-131646124D01*
X179935560Y-131705113D01*
X180237928Y-131705113D01*
X180534487Y-131646124D01*
X180813839Y-131530412D01*
X181065249Y-131362425D01*
X181279056Y-131148618D01*
X181447043Y-130897208D01*
X181562755Y-130617856D01*
X181621744Y-130321297D01*
X181621744Y-130018929D01*
X181562755Y-129722370D01*
X181447043Y-129443018D01*
X181279056Y-129191608D01*
X181065249Y-128977801D01*
X180813839Y-128809814D01*
X180534487Y-128694102D01*
X180237928Y-128635113D01*
X180143969Y-128635113D01*
X180152987Y-128618242D01*
X180189297Y-128498544D01*
X180201557Y-128374062D01*
X180189297Y-128249580D01*
X180152987Y-128129882D01*
X180094022Y-128019568D01*
X180014670Y-127922877D01*
X179963892Y-127872099D01*
X181391482Y-126444510D01*
X181454835Y-126463728D01*
X181628089Y-126480792D01*
X181801343Y-126463728D01*
X181967939Y-126413192D01*
X182121475Y-126331125D01*
X182256050Y-126220682D01*
X182715671Y-125761061D01*
X182826114Y-125626486D01*
X182908181Y-125472950D01*
X182958717Y-125306354D01*
X182975781Y-125133100D01*
X182974950Y-125124661D01*
X183077657Y-125134777D01*
X183202139Y-125122517D01*
X183321837Y-125086207D01*
X183432151Y-125027243D01*
X183528842Y-124947890D01*
X183731201Y-124741187D01*
X183731201Y-124516681D01*
X182989269Y-123774749D01*
X182975127Y-123788892D01*
X182795522Y-123609287D01*
X182809664Y-123595144D01*
X183168874Y-123595144D01*
X183910806Y-124337076D01*
X184135312Y-124337076D01*
X184342015Y-124134717D01*
X184421368Y-124038026D01*
X184480332Y-123927712D01*
X184516642Y-123808014D01*
X184528902Y-123683532D01*
X184516642Y-123559051D01*
X184480332Y-123439353D01*
X184421368Y-123329039D01*
X184342015Y-123232347D01*
X184046924Y-122941601D01*
X183822418Y-122941601D01*
X183168874Y-123595144D01*
X182809664Y-123595144D01*
X182067732Y-122853212D01*
X181843226Y-122853212D01*
X181636523Y-123055571D01*
X181557170Y-123152262D01*
X181498206Y-123262576D01*
X181461896Y-123382274D01*
X181449636Y-123506756D01*
X181459752Y-123609463D01*
X181451313Y-123608632D01*
X181278059Y-123625696D01*
X181111463Y-123676232D01*
X180957927Y-123758299D01*
X180823352Y-123868742D01*
X180363731Y-124328363D01*
X180253288Y-124462938D01*
X180171221Y-124616474D01*
X180120685Y-124783070D01*
X180103621Y-124956324D01*
X180120685Y-125129578D01*
X180139903Y-125192931D01*
X178709402Y-126623433D01*
X178645187Y-126570733D01*
X178534873Y-126511768D01*
X178415175Y-126475458D01*
X178290693Y-126463198D01*
X178166211Y-126475458D01*
X178046513Y-126511768D01*
X177936199Y-126570733D01*
X177839508Y-126650085D01*
X176566716Y-127922877D01*
X176487364Y-128019568D01*
X176428399Y-128129882D01*
X176392089Y-128249580D01*
X176379829Y-128374062D01*
X171664550Y-128374062D01*
X171668458Y-126977796D01*
X171659179Y-126880806D01*
X171621787Y-126756291D01*
X171560823Y-126641463D01*
X171478628Y-126540734D01*
X171477801Y-126540051D01*
X171033882Y-125999615D01*
X170703762Y-125383944D01*
X170499513Y-124715877D01*
X170428917Y-124020865D01*
X170458934Y-123703313D01*
X170606631Y-123703313D01*
X170606631Y-124379949D01*
X170738637Y-125043583D01*
X170997574Y-125668713D01*
X171373493Y-126231316D01*
X171851946Y-126709769D01*
X172414549Y-127085688D01*
X173039679Y-127344625D01*
X173703313Y-127476631D01*
X174379949Y-127476631D01*
X175043583Y-127344625D01*
X175668713Y-127085688D01*
X176231316Y-126709769D01*
X176709769Y-126231316D01*
X177085688Y-125668713D01*
X177344625Y-125043583D01*
X177476631Y-124379949D01*
X177476631Y-123703313D01*
X177344625Y-123039679D01*
X177100000Y-122449101D01*
X182247337Y-122449101D01*
X182247337Y-122673607D01*
X182989269Y-123415539D01*
X183642812Y-122761995D01*
X183642812Y-122537489D01*
X183352066Y-122242398D01*
X183255374Y-122163045D01*
X183145060Y-122104081D01*
X183025362Y-122067771D01*
X182900881Y-122055511D01*
X182776399Y-122067771D01*
X182656701Y-122104081D01*
X182546387Y-122163045D01*
X182449696Y-122242398D01*
X182247337Y-122449101D01*
X177100000Y-122449101D01*
X177085688Y-122414549D01*
X176709769Y-121851946D01*
X176231316Y-121373493D01*
X175668713Y-120997574D01*
X175043583Y-120738637D01*
X174379949Y-120606631D01*
X173703313Y-120606631D01*
X173039679Y-120738637D01*
X172414549Y-120997574D01*
X171851946Y-121373493D01*
X171373493Y-121851946D01*
X170997574Y-122414549D01*
X170738637Y-123039679D01*
X170606631Y-123703313D01*
X170458934Y-123703313D01*
X170494660Y-123325373D01*
X170694240Y-122655898D01*
X171020054Y-122037935D01*
X171459690Y-121495030D01*
X171996409Y-121047853D01*
X172609756Y-120713446D01*
X173276383Y-120504538D01*
X173970887Y-120429091D01*
X174666822Y-120489977D01*
X175337674Y-120684878D01*
X175957892Y-121006369D01*
X176523847Y-121458165D01*
X176540736Y-121478627D01*
X176641464Y-121560822D01*
X176756292Y-121621786D01*
X176880807Y-121659178D01*
X176977797Y-121668457D01*
X180034263Y-121659904D01*
X180131200Y-121650083D01*
X180255504Y-121611995D01*
X180369989Y-121550389D01*
X180419772Y-121509300D01*
X180419810Y-121509270D01*
X180419848Y-121509237D01*
X180470256Y-121467631D01*
X180552452Y-121366903D01*
X180568510Y-121336657D01*
X181738914Y-119554887D01*
X181742348Y-119549272D01*
X181746026Y-119543821D01*
X181760247Y-119520115D01*
X182933779Y-117467523D01*
X182937292Y-117460890D01*
X182941063Y-117454439D01*
X182953724Y-117429865D01*
X183128433Y-117072576D01*
X185273035Y-117072576D01*
X185277127Y-117197593D01*
X185305532Y-117319410D01*
X185357154Y-117433344D01*
X185430013Y-117535018D01*
X185521307Y-117620525D01*
X185627529Y-117686578D01*
X185744596Y-117730638D01*
X186145526Y-117834887D01*
X186226088Y-117788374D01*
X186585299Y-117788374D01*
X186697552Y-117982802D01*
X187096892Y-118092985D01*
X187220305Y-118113361D01*
X187345323Y-118109268D01*
X187467139Y-118080864D01*
X187581073Y-118029241D01*
X187682747Y-117956383D01*
X187768254Y-117865089D01*
X187834307Y-117758867D01*
X187878367Y-117641800D01*
X187950263Y-117361611D01*
X187838010Y-117167182D01*
X186824513Y-116895617D01*
X186585299Y-117788374D01*
X186226088Y-117788374D01*
X186339954Y-117722634D01*
X186579167Y-116829877D01*
X185565670Y-116558311D01*
X185371241Y-116670564D01*
X185293411Y-116949163D01*
X185273035Y-117072576D01*
X183128433Y-117072576D01*
X183594945Y-116118537D01*
X185519157Y-116118537D01*
X185631410Y-116312966D01*
X186644907Y-116584531D01*
X186650083Y-116565212D01*
X186895429Y-116630953D01*
X186890253Y-116650271D01*
X187903750Y-116921837D01*
X188098179Y-116809584D01*
X188176009Y-116530985D01*
X188196385Y-116407572D01*
X188192293Y-116282555D01*
X188163888Y-116160738D01*
X188112266Y-116046804D01*
X188052151Y-115962914D01*
X188059876Y-115959414D01*
X188201387Y-115858009D01*
X188320395Y-115730945D01*
X188412328Y-115583106D01*
X188473652Y-115420172D01*
X188641885Y-114792318D01*
X188670244Y-114620551D01*
X188664547Y-114446552D01*
X188625015Y-114277007D01*
X188553166Y-114118433D01*
X188451761Y-113976922D01*
X188324698Y-113857914D01*
X188176858Y-113765981D01*
X188150290Y-113755982D01*
X188150290Y-112208527D01*
X188345711Y-112013107D01*
X189085703Y-112211387D01*
X189209116Y-112231763D01*
X189334133Y-112227670D01*
X189455950Y-112199267D01*
X189569884Y-112147644D01*
X189671558Y-112074785D01*
X189757065Y-111983491D01*
X189767432Y-111966819D01*
X189875592Y-112128692D01*
X190089399Y-112342499D01*
X190340809Y-112510486D01*
X190620161Y-112626198D01*
X190916720Y-112685187D01*
X191219088Y-112685187D01*
X191515647Y-112626198D01*
X191794999Y-112510486D01*
X192046409Y-112342499D01*
X192260216Y-112128692D01*
X192428203Y-111877282D01*
X192543915Y-111597930D01*
X192602904Y-111301371D01*
X192602904Y-110999003D01*
X192543915Y-110702444D01*
X192428203Y-110423092D01*
X192260216Y-110171682D01*
X192046409Y-109957875D01*
X191794999Y-109789888D01*
X191515647Y-109674176D01*
X191219088Y-109615187D01*
X190916720Y-109615187D01*
X190620161Y-109674176D01*
X190349763Y-109786179D01*
X190349335Y-109773106D01*
X190320932Y-109651289D01*
X190269309Y-109537355D01*
X190196450Y-109435681D01*
X190105156Y-109350174D01*
X189998934Y-109284122D01*
X189881867Y-109240061D01*
X188143201Y-108774187D01*
X188019788Y-108753811D01*
X187894771Y-108757904D01*
X187772954Y-108786307D01*
X187659020Y-108837930D01*
X187557346Y-108910789D01*
X187471839Y-109002083D01*
X187405787Y-109108305D01*
X187361726Y-109225372D01*
X186897400Y-110958261D01*
X186670241Y-111185420D01*
X186636474Y-111213132D01*
X186608761Y-111246900D01*
X186608758Y-111246903D01*
X186525880Y-111347890D01*
X186443702Y-111501636D01*
X186393095Y-111668459D01*
X186376009Y-111841949D01*
X186380291Y-111885428D01*
X186380290Y-113625227D01*
X186329193Y-113661843D01*
X186210185Y-113788907D01*
X186118252Y-113936746D01*
X186056928Y-114099680D01*
X185888695Y-114727534D01*
X185860336Y-114899301D01*
X185866033Y-115073300D01*
X185905565Y-115242845D01*
X185977414Y-115401419D01*
X185982354Y-115408313D01*
X185888347Y-115450907D01*
X185786673Y-115523765D01*
X185701166Y-115615059D01*
X185635113Y-115721281D01*
X185591053Y-115838348D01*
X185519157Y-116118537D01*
X183594945Y-116118537D01*
X183992352Y-115305821D01*
X183995422Y-115298993D01*
X183998777Y-115292295D01*
X184009826Y-115266955D01*
X184909219Y-113080313D01*
X184911847Y-113073286D01*
X184914757Y-113066400D01*
X184924148Y-113040400D01*
X185680558Y-110800276D01*
X185682726Y-110793099D01*
X185685187Y-110786035D01*
X185692880Y-110759483D01*
X186303152Y-108475216D01*
X186304849Y-108467928D01*
X186306853Y-108460706D01*
X186312816Y-108433713D01*
X186774408Y-106114824D01*
X186775631Y-106107442D01*
X186777165Y-106100105D01*
X186781374Y-106072783D01*
X186923713Y-105000000D01*
X189321928Y-105000000D01*
X189334188Y-105124482D01*
X189370498Y-105244180D01*
X189429463Y-105354494D01*
X189508815Y-105451185D01*
X189605506Y-105530537D01*
X189715820Y-105589502D01*
X189835518Y-105625812D01*
X189960000Y-105638072D01*
X192214250Y-105635000D01*
X192373000Y-105476250D01*
X192373000Y-104377000D01*
X189483750Y-104377000D01*
X189325000Y-104535750D01*
X189321928Y-105000000D01*
X186923713Y-105000000D01*
X187092360Y-103728941D01*
X187093105Y-103721489D01*
X187094161Y-103714075D01*
X187096598Y-103686538D01*
X187109177Y-103500000D01*
X189321928Y-103500000D01*
X189325000Y-103964250D01*
X189483750Y-104123000D01*
X192373000Y-104123000D01*
X192373000Y-103023750D01*
X192214250Y-102865000D01*
X189960000Y-102861928D01*
X189835518Y-102874188D01*
X189715820Y-102910498D01*
X189605506Y-102969463D01*
X189508815Y-103048815D01*
X189429463Y-103145506D01*
X189370498Y-103255820D01*
X189334188Y-103375518D01*
X189321928Y-103500000D01*
X187109177Y-103500000D01*
X187185541Y-102367624D01*
X187259744Y-102417205D01*
X187448102Y-102495226D01*
X187648061Y-102535000D01*
X187851939Y-102535000D01*
X188051898Y-102495226D01*
X188240256Y-102417205D01*
X188250000Y-102410694D01*
X188259744Y-102417205D01*
X188448102Y-102495226D01*
X188648061Y-102535000D01*
X188851939Y-102535000D01*
X189051898Y-102495226D01*
X189240256Y-102417205D01*
X189288454Y-102385000D01*
X192206531Y-102385000D01*
X192250000Y-102389281D01*
X192293469Y-102385000D01*
X192293477Y-102385000D01*
X192423490Y-102372195D01*
X192590313Y-102321589D01*
X192744059Y-102239411D01*
X192878817Y-102128817D01*
X192906534Y-102095044D01*
X193095044Y-101906534D01*
X193128817Y-101878817D01*
X193239411Y-101744059D01*
X193321589Y-101590313D01*
X193372195Y-101423490D01*
X193375683Y-101388072D01*
X194340000Y-101388072D01*
X194340000Y-102862882D01*
X192785750Y-102865000D01*
X192627000Y-103023750D01*
X192627000Y-104123000D01*
X194340000Y-104123000D01*
X194340000Y-104377000D01*
X192627000Y-104377000D01*
X192627000Y-105476250D01*
X192785750Y-105635000D01*
X194340000Y-105637118D01*
X194340000Y-109917912D01*
X193714504Y-112393696D01*
X192928584Y-114889535D01*
X192000298Y-117335994D01*
X190932733Y-119724934D01*
X189729401Y-122048501D01*
X188394324Y-124298920D01*
X186931925Y-126468747D01*
X185347040Y-128550804D01*
X183644922Y-130538187D01*
X181831230Y-132424288D01*
X179911977Y-134202854D01*
X177893526Y-135867991D01*
X175782548Y-137414192D01*
X173586106Y-138836288D01*
X171311418Y-140129603D01*
X168966053Y-141289835D01*
X166557793Y-142313132D01*
X164094627Y-143196101D01*
X161584726Y-143935814D01*
X159036381Y-144529826D01*
X156458079Y-144976158D01*
X153858355Y-145273334D01*
X151245848Y-145420365D01*
X148629218Y-145416765D01*
X146017101Y-145262547D01*
X143418210Y-144958221D01*
X140841163Y-144504802D01*
X138294463Y-143903782D01*
X135786590Y-143157162D01*
X133325867Y-142267422D01*
X130920431Y-141237504D01*
X130502035Y-141029092D01*
X137461260Y-141029092D01*
X137461260Y-141331460D01*
X137520249Y-141628019D01*
X137635961Y-141907371D01*
X137803948Y-142158781D01*
X138017755Y-142372588D01*
X138269165Y-142540575D01*
X138548517Y-142656287D01*
X138845076Y-142715276D01*
X139147444Y-142715276D01*
X139444003Y-142656287D01*
X139723355Y-142540575D01*
X139974765Y-142372588D01*
X140188572Y-142158781D01*
X140356559Y-141907371D01*
X140472271Y-141628019D01*
X140531260Y-141331460D01*
X140531260Y-141029092D01*
X140479513Y-140768939D01*
X140596292Y-140831358D01*
X140763115Y-140881964D01*
X140893128Y-140894769D01*
X140893138Y-140894769D01*
X140936604Y-140899050D01*
X140980070Y-140894769D01*
X143003830Y-140894769D01*
X143040445Y-140945866D01*
X143167509Y-141064874D01*
X143315348Y-141156807D01*
X143478282Y-141218131D01*
X144106136Y-141386364D01*
X144277903Y-141414723D01*
X144451902Y-141409026D01*
X144621447Y-141369494D01*
X144780021Y-141297645D01*
X144786915Y-141292705D01*
X144829509Y-141386712D01*
X144902367Y-141488386D01*
X144993661Y-141573893D01*
X145099883Y-141639946D01*
X145216950Y-141684006D01*
X145497139Y-141755902D01*
X145577702Y-141709389D01*
X145936913Y-141709389D01*
X146049166Y-141903818D01*
X146327765Y-141981648D01*
X146451178Y-142002024D01*
X146576195Y-141997932D01*
X146698012Y-141969527D01*
X146811946Y-141917905D01*
X146913620Y-141845046D01*
X146999127Y-141753752D01*
X147065180Y-141647530D01*
X147109240Y-141530463D01*
X147213489Y-141129533D01*
X147101236Y-140935105D01*
X146208479Y-140695892D01*
X145936913Y-141709389D01*
X145577702Y-141709389D01*
X145691568Y-141643649D01*
X145963133Y-140630152D01*
X145943814Y-140624976D01*
X145990552Y-140450546D01*
X146274219Y-140450546D01*
X147166976Y-140689760D01*
X147361404Y-140577507D01*
X147471587Y-140178167D01*
X147491963Y-140054754D01*
X147487870Y-139929736D01*
X147459466Y-139807920D01*
X147407843Y-139693986D01*
X147334985Y-139592312D01*
X147243691Y-139506805D01*
X147137469Y-139440752D01*
X147020402Y-139396692D01*
X146740213Y-139324796D01*
X146545784Y-139437049D01*
X146274219Y-140450546D01*
X145990552Y-140450546D01*
X146009555Y-140379630D01*
X146028873Y-140384806D01*
X146300439Y-139371309D01*
X146188186Y-139176880D01*
X145909587Y-139099050D01*
X145786174Y-139078674D01*
X145661157Y-139082766D01*
X145539340Y-139111171D01*
X145425406Y-139162793D01*
X145341516Y-139222908D01*
X145338016Y-139215183D01*
X145236611Y-139073672D01*
X145109547Y-138954664D01*
X144961708Y-138862731D01*
X144798774Y-138801407D01*
X144170920Y-138633174D01*
X143999153Y-138604815D01*
X143825154Y-138610512D01*
X143655609Y-138650044D01*
X143497035Y-138721893D01*
X143355524Y-138823298D01*
X143236516Y-138950361D01*
X143144583Y-139098201D01*
X143134584Y-139124769D01*
X141303184Y-139124769D01*
X141173980Y-138995565D01*
X141372260Y-138255573D01*
X141386094Y-138171779D01*
X158630823Y-138171779D01*
X158651199Y-138295192D01*
X159117073Y-140033858D01*
X159161134Y-140150925D01*
X159227186Y-140257147D01*
X159312693Y-140348441D01*
X159414367Y-140421300D01*
X159528301Y-140472923D01*
X159650118Y-140501326D01*
X159663191Y-140501754D01*
X159551188Y-140772152D01*
X159492199Y-141068711D01*
X159492199Y-141371079D01*
X159551188Y-141667638D01*
X159666900Y-141946990D01*
X159834887Y-142198400D01*
X160048694Y-142412207D01*
X160300104Y-142580194D01*
X160579456Y-142695906D01*
X160876015Y-142754895D01*
X161178383Y-142754895D01*
X161474942Y-142695906D01*
X161754294Y-142580194D01*
X162005704Y-142412207D01*
X162219511Y-142198400D01*
X162387498Y-141946990D01*
X162503210Y-141667638D01*
X162562199Y-141371079D01*
X162562199Y-141068711D01*
X162503210Y-140772152D01*
X162387498Y-140492800D01*
X162219511Y-140241390D01*
X162005704Y-140027583D01*
X161843831Y-139919423D01*
X161860503Y-139909056D01*
X161951797Y-139823549D01*
X162024656Y-139721875D01*
X162056568Y-139651443D01*
X163508310Y-139651443D01*
X163551779Y-139655724D01*
X163595248Y-139651443D01*
X163595256Y-139651443D01*
X163725269Y-139638638D01*
X163892092Y-139588032D01*
X164045838Y-139505854D01*
X164180596Y-139395260D01*
X164208313Y-139361487D01*
X164563533Y-139006267D01*
X164577090Y-139006711D01*
X164748857Y-138978352D01*
X165376711Y-138810119D01*
X165539645Y-138748795D01*
X165687485Y-138656862D01*
X165814548Y-138537854D01*
X165915953Y-138396343D01*
X165919453Y-138388618D01*
X166003343Y-138448733D01*
X166117277Y-138500355D01*
X166239094Y-138528760D01*
X166364111Y-138532852D01*
X166487524Y-138512476D01*
X166766123Y-138434646D01*
X166878376Y-138240217D01*
X166606810Y-137226720D01*
X166587492Y-137231896D01*
X166568490Y-137160980D01*
X166852156Y-137160980D01*
X167123721Y-138174477D01*
X167318150Y-138286730D01*
X167598339Y-138214834D01*
X167715406Y-138170774D01*
X167821628Y-138104721D01*
X167912922Y-138019214D01*
X167985780Y-137917540D01*
X168037403Y-137803606D01*
X168065807Y-137681790D01*
X168069900Y-137556772D01*
X168049524Y-137433359D01*
X167939341Y-137034019D01*
X167744913Y-136921766D01*
X166852156Y-137160980D01*
X166568490Y-137160980D01*
X166521751Y-136986550D01*
X166541070Y-136981374D01*
X166269505Y-135967877D01*
X166155640Y-135902137D01*
X166514850Y-135902137D01*
X166786416Y-136915634D01*
X167679173Y-136676421D01*
X167791426Y-136481993D01*
X167687177Y-136081063D01*
X167643117Y-135963996D01*
X167577064Y-135857774D01*
X167491557Y-135766480D01*
X167389883Y-135693621D01*
X167275949Y-135641999D01*
X167154132Y-135613594D01*
X167029115Y-135609502D01*
X166905702Y-135629878D01*
X166627103Y-135707708D01*
X166514850Y-135902137D01*
X166155640Y-135902137D01*
X166075076Y-135855624D01*
X165794887Y-135927520D01*
X165677820Y-135971580D01*
X165571598Y-136037633D01*
X165480304Y-136123140D01*
X165407446Y-136224814D01*
X165364852Y-136318821D01*
X165357958Y-136313881D01*
X165199384Y-136242032D01*
X165029839Y-136202500D01*
X164855840Y-136196803D01*
X164684073Y-136225162D01*
X164056219Y-136393395D01*
X163893285Y-136454719D01*
X163745445Y-136546652D01*
X163618382Y-136665660D01*
X163516977Y-136807171D01*
X163445128Y-136965745D01*
X163405596Y-137135290D01*
X163399899Y-137309289D01*
X163428258Y-137481056D01*
X163461506Y-137605138D01*
X163185201Y-137881443D01*
X161724993Y-137881443D01*
X161622525Y-137499028D01*
X161578464Y-137381961D01*
X161512412Y-137275739D01*
X161426905Y-137184445D01*
X161325231Y-137111586D01*
X161211297Y-137059963D01*
X161089480Y-137031560D01*
X160964463Y-137027467D01*
X160841050Y-137047843D01*
X159102384Y-137513717D01*
X158985317Y-137557778D01*
X158879095Y-137623830D01*
X158787801Y-137709337D01*
X158714942Y-137811011D01*
X158663319Y-137924945D01*
X158634916Y-138046762D01*
X158630823Y-138171779D01*
X141386094Y-138171779D01*
X141392636Y-138132160D01*
X141388543Y-138007143D01*
X141360140Y-137885326D01*
X141308517Y-137771392D01*
X141235658Y-137669718D01*
X141144364Y-137584211D01*
X141038142Y-137518159D01*
X140921075Y-137474098D01*
X139182409Y-137008224D01*
X139058996Y-136987848D01*
X138933979Y-136991941D01*
X138812162Y-137020344D01*
X138698228Y-137071967D01*
X138596554Y-137144826D01*
X138511047Y-137236120D01*
X138444995Y-137342342D01*
X138400934Y-137459409D01*
X137935060Y-139198075D01*
X137914684Y-139321488D01*
X137918777Y-139446505D01*
X137947180Y-139568322D01*
X137998803Y-139682256D01*
X138071662Y-139783930D01*
X138162956Y-139869437D01*
X138179628Y-139879804D01*
X138017755Y-139987964D01*
X137803948Y-140201771D01*
X137635961Y-140453181D01*
X137520249Y-140732533D01*
X137461260Y-141029092D01*
X130502035Y-141029092D01*
X128578275Y-140070828D01*
X126307155Y-138771261D01*
X124114598Y-137343107D01*
X122007917Y-135791129D01*
X119994042Y-134120436D01*
X119706902Y-133852872D01*
X125479036Y-133852872D01*
X125479036Y-134077378D01*
X125681395Y-134284081D01*
X125778086Y-134363434D01*
X125888400Y-134422398D01*
X126008098Y-134458708D01*
X126132580Y-134470968D01*
X126257061Y-134458708D01*
X126376759Y-134422398D01*
X126487073Y-134363434D01*
X126583765Y-134284081D01*
X126874511Y-133988990D01*
X126874511Y-133764484D01*
X126220968Y-133110940D01*
X125479036Y-133852872D01*
X119706902Y-133852872D01*
X118079701Y-132336608D01*
X116271195Y-130445514D01*
X115759967Y-129845273D01*
X118231740Y-129845273D01*
X118231740Y-130147641D01*
X118290729Y-130444200D01*
X118406441Y-130723552D01*
X118574428Y-130974962D01*
X118788235Y-131188769D01*
X119039645Y-131356756D01*
X119318997Y-131472468D01*
X119615556Y-131531457D01*
X119917924Y-131531457D01*
X120214483Y-131472468D01*
X120493835Y-131356756D01*
X120745245Y-131188769D01*
X120959052Y-130974962D01*
X121127039Y-130723552D01*
X121242751Y-130444200D01*
X121301740Y-130147641D01*
X121301740Y-130053682D01*
X121318611Y-130062700D01*
X121438309Y-130099010D01*
X121562791Y-130111270D01*
X121687273Y-130099010D01*
X121806971Y-130062700D01*
X121917285Y-130003735D01*
X121985669Y-129947614D01*
X123371602Y-131333548D01*
X123352384Y-131396901D01*
X123335320Y-131570155D01*
X123352384Y-131743409D01*
X123402920Y-131910005D01*
X123484987Y-132063541D01*
X123595430Y-132198116D01*
X124055051Y-132657737D01*
X124189626Y-132768180D01*
X124343162Y-132850247D01*
X124509758Y-132900783D01*
X124683012Y-132917847D01*
X124691451Y-132917016D01*
X124681335Y-133019723D01*
X124693595Y-133144205D01*
X124729905Y-133263903D01*
X124788869Y-133374217D01*
X124868222Y-133470908D01*
X125074925Y-133673267D01*
X125299431Y-133673267D01*
X126041363Y-132931335D01*
X126400573Y-132931335D01*
X127054117Y-133584878D01*
X127278623Y-133584878D01*
X127573714Y-133294132D01*
X127653067Y-133197440D01*
X127712031Y-133087126D01*
X127748341Y-132967428D01*
X127760601Y-132842947D01*
X127748341Y-132718465D01*
X127712031Y-132598767D01*
X127653067Y-132488453D01*
X127573714Y-132391762D01*
X127367011Y-132189403D01*
X127142505Y-132189403D01*
X126400573Y-132931335D01*
X126041363Y-132931335D01*
X126027221Y-132917193D01*
X126206826Y-132737588D01*
X126220968Y-132751730D01*
X126962900Y-132009798D01*
X126962900Y-131785292D01*
X126760541Y-131578589D01*
X126663850Y-131499236D01*
X126553536Y-131440272D01*
X126433838Y-131403962D01*
X126309356Y-131391702D01*
X126206649Y-131401818D01*
X126207480Y-131393379D01*
X126190416Y-131220125D01*
X126139880Y-131053529D01*
X126057813Y-130899993D01*
X125947370Y-130765418D01*
X125487749Y-130305797D01*
X125353174Y-130195354D01*
X125199638Y-130113287D01*
X125033042Y-130062751D01*
X124859788Y-130045687D01*
X124686534Y-130062751D01*
X124623181Y-130081969D01*
X123239785Y-128698574D01*
X123286768Y-128651591D01*
X123366120Y-128554900D01*
X123425085Y-128444586D01*
X123461395Y-128324888D01*
X123473655Y-128200406D01*
X123461395Y-128075924D01*
X123425085Y-127956226D01*
X123366120Y-127845912D01*
X123286768Y-127749221D01*
X122013976Y-126476429D01*
X121917285Y-126397077D01*
X121806971Y-126338112D01*
X121687273Y-126301802D01*
X121562791Y-126289542D01*
X121438309Y-126301802D01*
X121318611Y-126338112D01*
X121208297Y-126397077D01*
X121111606Y-126476429D01*
X119838814Y-127749221D01*
X119759462Y-127845912D01*
X119700497Y-127956226D01*
X119664187Y-128075924D01*
X119651927Y-128200406D01*
X119664187Y-128324888D01*
X119700497Y-128444586D01*
X119709515Y-128461457D01*
X119615556Y-128461457D01*
X119318997Y-128520446D01*
X119039645Y-128636158D01*
X118788235Y-128804145D01*
X118574428Y-129017952D01*
X118406441Y-129269362D01*
X118290729Y-129548714D01*
X118231740Y-129845273D01*
X115759967Y-129845273D01*
X114574561Y-128453469D01*
X112995408Y-126367060D01*
X111538971Y-124193200D01*
X111250162Y-123703313D01*
X122523369Y-123703313D01*
X122523369Y-124379949D01*
X122655375Y-125043583D01*
X122914312Y-125668713D01*
X123290231Y-126231316D01*
X123768684Y-126709769D01*
X124331287Y-127085688D01*
X124956417Y-127344625D01*
X125620051Y-127476631D01*
X126296687Y-127476631D01*
X126960321Y-127344625D01*
X127585451Y-127085688D01*
X128148054Y-126709769D01*
X128626507Y-126231316D01*
X129002426Y-125668713D01*
X129261363Y-125043583D01*
X129393369Y-124379949D01*
X129393369Y-123703313D01*
X129261363Y-123039679D01*
X129002426Y-122414549D01*
X128626507Y-121851946D01*
X128148054Y-121373493D01*
X127585451Y-120997574D01*
X126960321Y-120738637D01*
X126296687Y-120606631D01*
X125620051Y-120606631D01*
X124956417Y-120738637D01*
X124331287Y-120997574D01*
X123768684Y-121373493D01*
X123290231Y-121851946D01*
X122914312Y-122414549D01*
X122655375Y-123039679D01*
X122523369Y-123703313D01*
X111250162Y-123703313D01*
X110210091Y-121939116D01*
X109013170Y-119612276D01*
X108152502Y-117672004D01*
X111924421Y-117672004D01*
X111996317Y-117952193D01*
X112040377Y-118069260D01*
X112106430Y-118175482D01*
X112191937Y-118266776D01*
X112293611Y-118339634D01*
X112407545Y-118391257D01*
X112529361Y-118419661D01*
X112654379Y-118423754D01*
X112777792Y-118403378D01*
X113177132Y-118293195D01*
X113289385Y-118098767D01*
X113050171Y-117206010D01*
X112036674Y-117477575D01*
X111924421Y-117672004D01*
X108152502Y-117672004D01*
X107952170Y-117220382D01*
X107030617Y-114771383D01*
X106251570Y-112273406D01*
X105930674Y-110988387D01*
X107391552Y-110988387D01*
X107391552Y-111290755D01*
X107450541Y-111587314D01*
X107566253Y-111866666D01*
X107734240Y-112118076D01*
X107948047Y-112331883D01*
X108199457Y-112499870D01*
X108478809Y-112615582D01*
X108775368Y-112674571D01*
X109077736Y-112674571D01*
X109374295Y-112615582D01*
X109653647Y-112499870D01*
X109905057Y-112331883D01*
X110118864Y-112118076D01*
X110227024Y-111956203D01*
X110237391Y-111972875D01*
X110322898Y-112064169D01*
X110424572Y-112137028D01*
X110495005Y-112168941D01*
X110495005Y-113797450D01*
X110490723Y-113840929D01*
X110507809Y-114014419D01*
X110558416Y-114181242D01*
X110640594Y-114334988D01*
X110723472Y-114435975D01*
X110723475Y-114435978D01*
X110751188Y-114469746D01*
X110784955Y-114497458D01*
X111204884Y-114917387D01*
X111204440Y-114930944D01*
X111232799Y-115102711D01*
X111401032Y-115730565D01*
X111462356Y-115893499D01*
X111554289Y-116041339D01*
X111673297Y-116168402D01*
X111814808Y-116269807D01*
X111822533Y-116273307D01*
X111762418Y-116357197D01*
X111710796Y-116471131D01*
X111682391Y-116592948D01*
X111678299Y-116717965D01*
X111698675Y-116841378D01*
X111776505Y-117119977D01*
X111970934Y-117232230D01*
X112314133Y-117140270D01*
X113295517Y-117140270D01*
X113534730Y-118033027D01*
X113729158Y-118145280D01*
X114130088Y-118041031D01*
X114247155Y-117996971D01*
X114353377Y-117930918D01*
X114444671Y-117845411D01*
X114517530Y-117743737D01*
X114569152Y-117629803D01*
X114597557Y-117507986D01*
X114601649Y-117382969D01*
X114581273Y-117259556D01*
X114503443Y-116980957D01*
X114309014Y-116868704D01*
X113295517Y-117140270D01*
X112314133Y-117140270D01*
X112984431Y-116960664D01*
X112979255Y-116941346D01*
X113224601Y-116875605D01*
X113229777Y-116894924D01*
X114243274Y-116623359D01*
X114355527Y-116428930D01*
X114283631Y-116148741D01*
X114239571Y-116031674D01*
X114173518Y-115925452D01*
X114088011Y-115834158D01*
X113986337Y-115761300D01*
X113892330Y-115718706D01*
X113897270Y-115711812D01*
X113969119Y-115553238D01*
X114008651Y-115383693D01*
X114014348Y-115209694D01*
X113985989Y-115037927D01*
X113817756Y-114410073D01*
X113756432Y-114247139D01*
X113664499Y-114099299D01*
X113545491Y-113972236D01*
X113403980Y-113870831D01*
X113245406Y-113798982D01*
X113075861Y-113759450D01*
X112901862Y-113753753D01*
X112730095Y-113782112D01*
X112606013Y-113815360D01*
X112265004Y-113474351D01*
X112265004Y-111837365D01*
X112647419Y-111734897D01*
X112764486Y-111690836D01*
X112870708Y-111624784D01*
X112962002Y-111539277D01*
X113034861Y-111437603D01*
X113086484Y-111323669D01*
X113114887Y-111201852D01*
X113118980Y-111076835D01*
X113098604Y-110953422D01*
X112632730Y-109214756D01*
X112588669Y-109097689D01*
X112522617Y-108991467D01*
X112437110Y-108900173D01*
X112335436Y-108827314D01*
X112221502Y-108775691D01*
X112099685Y-108747288D01*
X111974668Y-108743195D01*
X111851255Y-108763571D01*
X110112589Y-109229445D01*
X109995522Y-109273506D01*
X109889300Y-109339558D01*
X109798006Y-109425065D01*
X109725147Y-109526739D01*
X109673524Y-109640673D01*
X109645121Y-109762490D01*
X109644693Y-109775563D01*
X109374295Y-109663560D01*
X109077736Y-109604571D01*
X108775368Y-109604571D01*
X108478809Y-109663560D01*
X108199457Y-109779272D01*
X107948047Y-109947259D01*
X107734240Y-110161066D01*
X107566253Y-110412476D01*
X107450541Y-110691828D01*
X107391552Y-110988387D01*
X105930674Y-110988387D01*
X105617604Y-109734710D01*
X105130828Y-107163732D01*
X104792857Y-104569012D01*
X104604808Y-101959133D01*
X104567306Y-99342747D01*
X104680475Y-96728561D01*
X104697174Y-96563551D01*
X108144422Y-96563551D01*
X108148514Y-96688568D01*
X108176919Y-96810385D01*
X108228541Y-96924319D01*
X108301400Y-97025993D01*
X108392694Y-97111500D01*
X108498916Y-97177553D01*
X108615983Y-97221613D01*
X109016913Y-97325862D01*
X109097475Y-97279349D01*
X109456686Y-97279349D01*
X109568939Y-97473777D01*
X109968279Y-97583960D01*
X110091692Y-97604336D01*
X110216710Y-97600243D01*
X110338526Y-97571839D01*
X110452460Y-97520216D01*
X110554134Y-97447358D01*
X110639641Y-97356064D01*
X110705694Y-97249842D01*
X110749754Y-97132775D01*
X110821650Y-96852586D01*
X110709397Y-96658157D01*
X109695900Y-96386592D01*
X109456686Y-97279349D01*
X109097475Y-97279349D01*
X109211341Y-97213609D01*
X109450554Y-96320852D01*
X108437057Y-96049286D01*
X108242628Y-96161539D01*
X108164798Y-96440138D01*
X108144422Y-96563551D01*
X104697174Y-96563551D01*
X104943941Y-94125206D01*
X105356831Y-91541330D01*
X105915412Y-88996271D01*
X107286282Y-88996271D01*
X107286282Y-89298639D01*
X107345271Y-89595198D01*
X107460983Y-89874550D01*
X107628970Y-90125960D01*
X107842777Y-90339767D01*
X108094187Y-90507754D01*
X108373539Y-90623466D01*
X108670098Y-90682455D01*
X108972466Y-90682455D01*
X109269025Y-90623466D01*
X109539423Y-90511463D01*
X109539851Y-90524536D01*
X109568254Y-90646353D01*
X109619877Y-90760287D01*
X109692736Y-90861961D01*
X109784030Y-90947468D01*
X109890252Y-91013520D01*
X110007319Y-91057581D01*
X110389734Y-91160049D01*
X110389735Y-92746264D01*
X110140058Y-92995942D01*
X110015976Y-92962694D01*
X109844209Y-92934335D01*
X109670210Y-92940032D01*
X109500665Y-92979564D01*
X109342091Y-93051413D01*
X109200580Y-93152818D01*
X109081572Y-93279882D01*
X108989639Y-93427721D01*
X108928315Y-93590655D01*
X108760082Y-94218509D01*
X108731723Y-94390276D01*
X108737420Y-94564275D01*
X108776952Y-94733820D01*
X108848801Y-94892394D01*
X108853741Y-94899288D01*
X108759734Y-94941882D01*
X108658060Y-95014740D01*
X108572553Y-95106034D01*
X108506500Y-95212256D01*
X108462440Y-95329323D01*
X108390544Y-95609512D01*
X108502797Y-95803941D01*
X109516294Y-96075506D01*
X109521470Y-96056187D01*
X109766816Y-96121928D01*
X109761640Y-96141246D01*
X110775137Y-96412812D01*
X110969566Y-96300559D01*
X111047396Y-96021960D01*
X111067772Y-95898547D01*
X111063680Y-95773530D01*
X111035275Y-95651713D01*
X110983653Y-95537779D01*
X110923538Y-95453889D01*
X110931263Y-95450389D01*
X111072774Y-95348984D01*
X111191782Y-95221920D01*
X111283715Y-95074081D01*
X111345039Y-94911147D01*
X111513272Y-94283293D01*
X111541631Y-94111526D01*
X111541187Y-94097970D01*
X111869783Y-93769374D01*
X111903551Y-93741661D01*
X111935351Y-93702914D01*
X112014145Y-93606903D01*
X112096323Y-93453158D01*
X112146929Y-93286334D01*
X112155862Y-93195632D01*
X112159734Y-93156321D01*
X112159734Y-93156313D01*
X112164015Y-93112844D01*
X112159734Y-93069375D01*
X112159734Y-91491624D01*
X112230166Y-91459712D01*
X112331840Y-91386853D01*
X112417347Y-91295559D01*
X112483399Y-91189337D01*
X112527460Y-91072270D01*
X112993334Y-89333604D01*
X113013710Y-89210191D01*
X113009617Y-89085174D01*
X112981214Y-88963357D01*
X112929591Y-88849423D01*
X112856732Y-88747749D01*
X112765438Y-88662242D01*
X112659216Y-88596190D01*
X112542149Y-88552129D01*
X110803483Y-88086255D01*
X110680070Y-88065879D01*
X110555053Y-88069972D01*
X110433236Y-88098375D01*
X110319302Y-88149998D01*
X110217628Y-88222857D01*
X110132121Y-88314151D01*
X110121754Y-88330823D01*
X110013594Y-88168950D01*
X109799787Y-87955143D01*
X109548377Y-87787156D01*
X109269025Y-87671444D01*
X108972466Y-87612455D01*
X108670098Y-87612455D01*
X108373539Y-87671444D01*
X108094187Y-87787156D01*
X107842777Y-87955143D01*
X107628970Y-88168950D01*
X107460983Y-88420360D01*
X107345271Y-88699712D01*
X107286282Y-88996271D01*
X105915412Y-88996271D01*
X105917770Y-88985528D01*
X106624907Y-86466233D01*
X107475890Y-83991825D01*
X108467895Y-81570516D01*
X109597637Y-79210324D01*
X110520343Y-77537381D01*
X116143310Y-77537381D01*
X116143310Y-77761887D01*
X116434056Y-78056978D01*
X116530748Y-78136331D01*
X116641062Y-78195295D01*
X116760760Y-78231605D01*
X116885241Y-78243865D01*
X117009723Y-78231605D01*
X117129421Y-78195295D01*
X117239735Y-78136331D01*
X117336426Y-78056978D01*
X117538785Y-77850275D01*
X117538785Y-77625769D01*
X116796853Y-76883837D01*
X116143310Y-77537381D01*
X110520343Y-77537381D01*
X110861364Y-76919082D01*
X111052166Y-76615844D01*
X115257220Y-76615844D01*
X115269480Y-76740325D01*
X115305790Y-76860023D01*
X115364754Y-76970337D01*
X115444107Y-77067029D01*
X115739198Y-77357775D01*
X115963704Y-77357775D01*
X116617248Y-76704232D01*
X115875316Y-75962300D01*
X115650810Y-75962300D01*
X115444107Y-76164659D01*
X115364754Y-76261350D01*
X115305790Y-76371664D01*
X115269480Y-76491362D01*
X115257220Y-76615844D01*
X111052166Y-76615844D01*
X111717660Y-75558189D01*
X116054921Y-75558189D01*
X116054921Y-75782695D01*
X116796853Y-76524627D01*
X116810996Y-76510485D01*
X116990601Y-76690090D01*
X116976458Y-76704232D01*
X117718390Y-77446164D01*
X117942896Y-77446164D01*
X118149599Y-77243805D01*
X118228952Y-77147114D01*
X118287916Y-77036800D01*
X118324226Y-76917102D01*
X118336486Y-76792620D01*
X118326370Y-76689913D01*
X118334809Y-76690744D01*
X118508063Y-76673680D01*
X118674659Y-76623144D01*
X118828195Y-76541077D01*
X118962770Y-76430634D01*
X119422391Y-75971013D01*
X119532834Y-75836438D01*
X119614901Y-75682902D01*
X119633966Y-75620051D01*
X122523369Y-75620051D01*
X122523369Y-76296687D01*
X122655375Y-76960321D01*
X122914312Y-77585451D01*
X123290231Y-78148054D01*
X123768684Y-78626507D01*
X124331287Y-79002426D01*
X124956417Y-79261363D01*
X125620051Y-79393369D01*
X126296687Y-79393369D01*
X126960321Y-79261363D01*
X127585451Y-79002426D01*
X128148054Y-78626507D01*
X128626507Y-78148054D01*
X129002426Y-77585451D01*
X129261363Y-76960321D01*
X129393369Y-76296687D01*
X129393369Y-75620051D01*
X129261363Y-74956417D01*
X129002426Y-74331287D01*
X128626507Y-73768684D01*
X128148054Y-73290231D01*
X127585451Y-72914312D01*
X126960321Y-72655375D01*
X126296687Y-72523369D01*
X125620051Y-72523369D01*
X124956417Y-72655375D01*
X124331287Y-72914312D01*
X123768684Y-73290231D01*
X123290231Y-73768684D01*
X122914312Y-74331287D01*
X122655375Y-74956417D01*
X122523369Y-75620051D01*
X119633966Y-75620051D01*
X119665437Y-75516306D01*
X119682501Y-75343052D01*
X119665437Y-75169798D01*
X119648815Y-75115001D01*
X121052973Y-73710843D01*
X121063580Y-73721450D01*
X121160271Y-73800802D01*
X121270585Y-73859767D01*
X121390283Y-73896077D01*
X121514765Y-73908337D01*
X121639247Y-73896077D01*
X121758945Y-73859767D01*
X121869259Y-73800802D01*
X121965950Y-73721450D01*
X123238742Y-72448658D01*
X123318094Y-72351967D01*
X123377059Y-72241653D01*
X123413369Y-72121955D01*
X123425629Y-71997473D01*
X123413369Y-71872991D01*
X123377059Y-71753293D01*
X123318094Y-71642979D01*
X123238742Y-71546288D01*
X121965950Y-70273496D01*
X121869259Y-70194144D01*
X121758945Y-70135179D01*
X121639247Y-70098869D01*
X121514765Y-70086609D01*
X121390283Y-70098869D01*
X121270585Y-70135179D01*
X121253714Y-70144197D01*
X121253714Y-70050238D01*
X121194725Y-69753679D01*
X121079013Y-69474327D01*
X120911026Y-69222917D01*
X120697219Y-69009110D01*
X120445809Y-68841123D01*
X120166457Y-68725411D01*
X119869898Y-68666422D01*
X119567530Y-68666422D01*
X119270971Y-68725411D01*
X118991619Y-68841123D01*
X118740209Y-69009110D01*
X118526402Y-69222917D01*
X118358415Y-69474327D01*
X118242703Y-69753679D01*
X118183714Y-70050238D01*
X118183714Y-70352606D01*
X118242703Y-70649165D01*
X118358415Y-70928517D01*
X118526402Y-71179927D01*
X118740209Y-71393734D01*
X118991619Y-71561721D01*
X119270971Y-71677433D01*
X119567530Y-71736422D01*
X119661489Y-71736422D01*
X119652471Y-71753293D01*
X119616161Y-71872991D01*
X119603901Y-71997473D01*
X119616161Y-72121955D01*
X119652471Y-72241653D01*
X119711436Y-72351967D01*
X119790788Y-72448658D01*
X119801395Y-72459265D01*
X118403198Y-73857462D01*
X118331287Y-73835648D01*
X118158033Y-73818584D01*
X117984779Y-73835648D01*
X117818183Y-73886184D01*
X117664647Y-73968251D01*
X117530072Y-74078694D01*
X117070451Y-74538315D01*
X116960008Y-74672890D01*
X116877941Y-74826426D01*
X116827405Y-74993022D01*
X116810341Y-75166276D01*
X116811172Y-75174715D01*
X116708465Y-75164599D01*
X116583983Y-75176859D01*
X116464285Y-75213169D01*
X116353971Y-75272133D01*
X116257280Y-75351486D01*
X116054921Y-75558189D01*
X111717660Y-75558189D01*
X112254898Y-74704370D01*
X113773608Y-72573550D01*
X115412453Y-70533693D01*
X117166002Y-68591558D01*
X119028457Y-66753569D01*
X120993593Y-65025867D01*
X122425564Y-63906235D01*
X131759685Y-63906235D01*
X131863934Y-64307165D01*
X131907994Y-64424232D01*
X131974047Y-64530454D01*
X132059554Y-64621748D01*
X132161228Y-64694607D01*
X132275162Y-64746229D01*
X132396979Y-64774634D01*
X132521996Y-64778726D01*
X132645409Y-64758350D01*
X132924008Y-64680520D01*
X133036261Y-64486091D01*
X132764695Y-63472594D01*
X131871938Y-63711807D01*
X131759685Y-63906235D01*
X122425564Y-63906235D01*
X123054958Y-63414124D01*
X123895772Y-62831456D01*
X131481211Y-62831456D01*
X131501587Y-62954869D01*
X131611770Y-63354209D01*
X131806198Y-63466462D01*
X132698955Y-63227248D01*
X132427390Y-62213751D01*
X132313525Y-62148011D01*
X132672735Y-62148011D01*
X132944301Y-63161508D01*
X132963619Y-63156332D01*
X133029360Y-63401678D01*
X133010041Y-63406854D01*
X133281606Y-64420351D01*
X133476035Y-64532604D01*
X133756224Y-64460708D01*
X133873291Y-64416648D01*
X133979513Y-64350595D01*
X134070807Y-64265088D01*
X134143665Y-64163414D01*
X134186259Y-64069407D01*
X134193153Y-64074347D01*
X134351727Y-64146196D01*
X134521272Y-64185728D01*
X134695271Y-64191425D01*
X134867038Y-64163066D01*
X135494892Y-63994833D01*
X135657826Y-63933509D01*
X135805666Y-63841576D01*
X135932729Y-63722568D01*
X136034134Y-63581057D01*
X136105983Y-63422483D01*
X136145515Y-63252938D01*
X136151212Y-63078939D01*
X136122853Y-62907172D01*
X136089605Y-62783090D01*
X136430615Y-62442081D01*
X138067600Y-62442081D01*
X138170068Y-62824496D01*
X138214129Y-62941563D01*
X138280181Y-63047785D01*
X138365688Y-63139079D01*
X138467362Y-63211938D01*
X138581296Y-63263561D01*
X138703113Y-63291964D01*
X138828130Y-63296057D01*
X138951543Y-63275681D01*
X140690209Y-62809807D01*
X140807276Y-62765746D01*
X140913498Y-62699694D01*
X141004792Y-62614187D01*
X141077651Y-62512513D01*
X141129274Y-62398579D01*
X141157677Y-62276762D01*
X141161770Y-62151745D01*
X141141394Y-62028332D01*
X140675520Y-60289666D01*
X140643302Y-60204065D01*
X152542111Y-60204065D01*
X152546204Y-60329083D01*
X152574608Y-60450899D01*
X152626231Y-60564833D01*
X152699089Y-60666507D01*
X152790383Y-60752014D01*
X152896605Y-60818067D01*
X153013672Y-60862127D01*
X153293861Y-60934023D01*
X153374424Y-60887510D01*
X153733635Y-60887510D01*
X153845888Y-61081939D01*
X154124487Y-61159769D01*
X154247900Y-61180145D01*
X154372917Y-61176053D01*
X154494734Y-61147648D01*
X154608668Y-61096026D01*
X154692558Y-61035911D01*
X154696058Y-61043636D01*
X154797463Y-61185147D01*
X154924527Y-61304155D01*
X155072366Y-61396088D01*
X155235300Y-61457412D01*
X155863154Y-61625645D01*
X156034921Y-61654004D01*
X156208920Y-61648307D01*
X156378465Y-61608775D01*
X156537039Y-61536926D01*
X156678550Y-61435521D01*
X156797558Y-61308458D01*
X156889491Y-61160618D01*
X156899490Y-61134050D01*
X158817069Y-61134050D01*
X158622992Y-61858357D01*
X158602616Y-61981770D01*
X158606709Y-62106787D01*
X158635112Y-62228604D01*
X158686735Y-62342538D01*
X158759594Y-62444212D01*
X158850888Y-62529719D01*
X158957110Y-62595771D01*
X159074177Y-62639832D01*
X160812843Y-63105706D01*
X160936256Y-63126082D01*
X161061273Y-63121989D01*
X161183090Y-63093586D01*
X161297024Y-63041963D01*
X161398698Y-62969104D01*
X161484205Y-62877810D01*
X161550257Y-62771588D01*
X161594318Y-62654521D01*
X162060192Y-60915855D01*
X162080568Y-60792442D01*
X162076475Y-60667425D01*
X162048072Y-60545608D01*
X161996449Y-60431674D01*
X161923590Y-60330000D01*
X161832296Y-60244493D01*
X161815624Y-60234126D01*
X161977497Y-60125966D01*
X162191304Y-59912159D01*
X162359291Y-59660749D01*
X162475003Y-59381397D01*
X162533992Y-59084838D01*
X162533992Y-58782470D01*
X162475003Y-58485911D01*
X162359291Y-58206559D01*
X162191304Y-57955149D01*
X161977497Y-57741342D01*
X161726087Y-57573355D01*
X161446735Y-57457643D01*
X161150176Y-57398654D01*
X160847808Y-57398654D01*
X160551249Y-57457643D01*
X160271897Y-57573355D01*
X160020487Y-57741342D01*
X159806680Y-57955149D01*
X159638693Y-58206559D01*
X159522981Y-58485911D01*
X159463992Y-58782470D01*
X159463992Y-59084838D01*
X159522981Y-59381397D01*
X159541805Y-59426841D01*
X159377026Y-59376855D01*
X159247013Y-59364050D01*
X159247005Y-59364050D01*
X159203536Y-59359769D01*
X159160067Y-59364050D01*
X157030244Y-59364050D01*
X156993629Y-59312953D01*
X156866565Y-59193945D01*
X156718726Y-59102012D01*
X156555792Y-59040688D01*
X155927938Y-58872455D01*
X155756171Y-58844096D01*
X155582172Y-58849793D01*
X155412627Y-58889325D01*
X155254053Y-58961174D01*
X155247159Y-58966114D01*
X155204565Y-58872107D01*
X155131707Y-58770433D01*
X155040413Y-58684926D01*
X154934191Y-58618873D01*
X154817124Y-58574813D01*
X154536935Y-58502917D01*
X154342506Y-58615170D01*
X154070941Y-59628667D01*
X154090260Y-59633843D01*
X154024519Y-59879189D01*
X154005201Y-59874013D01*
X153733635Y-60887510D01*
X153374424Y-60887510D01*
X153488290Y-60821770D01*
X153759855Y-59808273D01*
X152867098Y-59569059D01*
X152672670Y-59681312D01*
X152562487Y-60080652D01*
X152542111Y-60204065D01*
X140643302Y-60204065D01*
X140631459Y-60172599D01*
X140565407Y-60066377D01*
X140479900Y-59975083D01*
X140378226Y-59902224D01*
X140264292Y-59850601D01*
X140142475Y-59822198D01*
X140129402Y-59821770D01*
X140241405Y-59551372D01*
X140300394Y-59254813D01*
X140300394Y-59129286D01*
X152820585Y-59129286D01*
X152932838Y-59323714D01*
X153825595Y-59562927D01*
X154097161Y-58549430D01*
X153984908Y-58355001D01*
X153706309Y-58277171D01*
X153582896Y-58256795D01*
X153457879Y-58260887D01*
X153336062Y-58289292D01*
X153222128Y-58340914D01*
X153120454Y-58413773D01*
X153034947Y-58505067D01*
X152968894Y-58611289D01*
X152924834Y-58728356D01*
X152820585Y-59129286D01*
X140300394Y-59129286D01*
X140300394Y-58952445D01*
X140241405Y-58655886D01*
X140125693Y-58376534D01*
X139957706Y-58125124D01*
X139743899Y-57911317D01*
X139492489Y-57743330D01*
X139213137Y-57627618D01*
X138916578Y-57568629D01*
X138614210Y-57568629D01*
X138317651Y-57627618D01*
X138038299Y-57743330D01*
X137786889Y-57911317D01*
X137573082Y-58125124D01*
X137405095Y-58376534D01*
X137289383Y-58655886D01*
X137230394Y-58952445D01*
X137230394Y-59254813D01*
X137289383Y-59551372D01*
X137405095Y-59830724D01*
X137573082Y-60082134D01*
X137786889Y-60295941D01*
X137948762Y-60404101D01*
X137932090Y-60414468D01*
X137840796Y-60499975D01*
X137767937Y-60601649D01*
X137736025Y-60672081D01*
X136107502Y-60672081D01*
X136064035Y-60667800D01*
X136020569Y-60672081D01*
X136020559Y-60672081D01*
X135890546Y-60684886D01*
X135723723Y-60735492D01*
X135569977Y-60817670D01*
X135569975Y-60817671D01*
X135569976Y-60817671D01*
X135468989Y-60900549D01*
X135468987Y-60900551D01*
X135435219Y-60928264D01*
X135407506Y-60962032D01*
X134987578Y-61381961D01*
X134974021Y-61381517D01*
X134802254Y-61409876D01*
X134174400Y-61578109D01*
X134011466Y-61639433D01*
X133863626Y-61731366D01*
X133736563Y-61850374D01*
X133635158Y-61991885D01*
X133631658Y-61999610D01*
X133547768Y-61939495D01*
X133433834Y-61887873D01*
X133312017Y-61859468D01*
X133187000Y-61855376D01*
X133063587Y-61875752D01*
X132784988Y-61953582D01*
X132672735Y-62148011D01*
X132313525Y-62148011D01*
X132232961Y-62101498D01*
X131952772Y-62173394D01*
X131835705Y-62217454D01*
X131729483Y-62283507D01*
X131638189Y-62369014D01*
X131565331Y-62470688D01*
X131513708Y-62584622D01*
X131485304Y-62706438D01*
X131481211Y-62831456D01*
X123895772Y-62831456D01*
X125205662Y-61923729D01*
X127438596Y-60559606D01*
X129746357Y-59326280D01*
X132121291Y-58227839D01*
X134555508Y-57267935D01*
X137040946Y-56449747D01*
X139569347Y-55775989D01*
X142132357Y-55248890D01*
X144721478Y-54870200D01*
X147328077Y-54641181D01*
X149943547Y-54562587D01*
X152559183Y-54634681D01*
M02*
